<svg xmlns="http://www.w3.org/2000/svg" width="375.861" height="242.143" viewBox="0 0 375.861 242.143"><g transform="translate(-28.129 -18.785)"><g transform="translate(125.688 47.331)"><path d="M184.141,111l-59.267-.029L142.75,61.053l23.383.012L147.614,47.386l59.267.029-4.865,13.666-31.746-.015-4.076,11.316,27.25.013-4.861,13.623L161.333,86,157.3,97.365l31.747.015Z" transform="translate(-124.874 -47.386)" fill="#fe3b1f"/><path d="M251.408,111.062l-23.021-.012.649-1.818a32.672,32.672,0,0,1-12.2,2.258q-24.777-.013-23.818-11.152a13.011,13.011,0,0,1,.781-3.329q2.906-8.164,11.886-11.665,5.49-2.127,17.088-3.143t17.142-3.232l.474-1.33a8.446,8.446,0,0,0,.5-2.086q.445-4.127-5.31-4.131-7.062,0-9.484,6.209L201.9,77.618q10.317-16.947,37.521-16.935,24.957.012,23.689,15.279a27.727,27.727,0,0,1-1.579,6.835ZM233.655,96.319l2.312-6.478a27.236,27.236,0,0,1-6.156,1.241,26.836,26.836,0,0,0-6.249,1.284,6.885,6.885,0,0,0-4.3,3.947,5.583,5.583,0,0,0-.294,1.331q-.289,3.373,5.824,3.376Q231.992,101.023,233.655,96.319Z" transform="translate(-125.006 -47.412)" fill="#fe3b1f"/><path d="M333.423,76.618,307.7,76.606a6.972,6.972,0,0,0,.425-1.8q.3-3.475-4.782-3.479-7.465,0-7.834,4.3-.241,2.8,8.263,4.3,13.55,2.446,16.842,3.91,6.755,3.017,6.248,8.914a13.167,13.167,0,0,1-.728,3.237q-5.568,15.558-37.9,15.542-29.677-.016-27.451-15.947l25.719.013a6.488,6.488,0,0,0-.417,1.716q-.307,3.566,5.269,3.568,7.825,0,8.2-4.3.238-2.749-8.267-4.26-13.421-2.4-16.842-3.91-6.759-2.972-6.248-8.914a13.432,13.432,0,0,1,.728-3.236q5.614-15.6,37.945-15.586Q335.647,60.688,333.423,76.618Z" transform="translate(-125.137 -47.412)" fill="#fe3b1f"/><path d="M400.767,61.208l-46.843,66.2-21.719-.011,11.351-16.416-.034-49.8,21.675.01-.053,18.374L377.788,61.2Z" transform="translate(-125.275 -47.413)" fill="#fe3b1f"/><g transform="translate(18.102 84.18)"><path d="M207.415,189.726l-53.748-.242q-14.721-.066-9.105-10.484a36.2,36.2,0,0,1,3.947-5.731l20.878-25.49q13.186-16.131,31.531-16.05l53.748.243-10.109,12.373-34.854-.157q-9.173-.042-15.79,8.029l-13.792,16.866a18.243,18.243,0,0,0-2.079,3.069q-2.568,5.011,4.678,5.043l11.511.052,8.414-10.317-6.65-.03L206.1,154.528l29.993.136Z" transform="translate(-143.011 -131.73)" fill="#fe3b1f"/><path d="M297.74,169.242q-17.365,21.241-51.624,21.086-29.03-.13-21.047-15.344a36.819,36.819,0,0,1,4.156-6.05l3-3.708q17.347-21.2,51.6-21.044,28.845.129,21.131,15.183a34.769,34.769,0,0,1-4.221,6.17Zm-31.906,4.59,10.711-13.1a18.358,18.358,0,0,0,2.035-2.985q1.985-3.873-2.645-3.893-6.194-.03-11.772,6.822l-10.712,13.1a17.3,17.3,0,0,0-2.082,2.983q-1.985,3.875,2.648,3.9Q260.206,180.684,265.834,173.832Z" transform="translate(-143.166 -131.754)" fill="#fe3b1f"/><path d="M357.856,157.314l-11.464-.051L319.428,190.23l-23.481-.106,26.963-32.967-11.464-.052L321.6,144.733l11.464.052L343.2,132.37l23.482.1-10.13,12.415,11.464.052Z" transform="translate(-143.307 -131.731)" fill="#fe3b1f"/></g></g><g transform="translate(128.497 45.77)"><g transform="translate(0)"><path d="M186.956,109.439l-59.267-.029,17.877-49.92,23.382.011L150.429,45.822l59.267.029-4.865,13.667L173.086,59.5l-4.077,11.316,27.25.014L191.4,84.454l-27.249-.013L160.114,95.8l31.746.016Z" transform="translate(-127.689 -45.822)"/><path d="M254.224,109.5l-23.023-.012.651-1.818a32.69,32.69,0,0,1-12.2,2.257q-24.78-.012-23.819-11.152a12.956,12.956,0,0,1,.781-3.328q2.906-8.165,11.887-11.666,5.488-2.127,17.088-3.142T242.729,77.4l.475-1.33a8.373,8.373,0,0,0,.494-2.086q.443-4.126-5.311-4.13-7.059,0-9.484,6.209l-24.191-.012q10.316-16.949,37.523-16.936,24.957.013,23.686,15.28a27.812,27.812,0,0,1-1.577,6.834ZM236.471,94.755l2.311-6.477a27.2,27.2,0,0,1-6.154,1.24,26.887,26.887,0,0,0-6.25,1.284,6.894,6.894,0,0,0-4.3,3.947,5.643,5.643,0,0,0-.294,1.331q-.292,3.373,5.825,3.376Q234.8,99.459,236.471,94.755Z" transform="translate(-127.821 -45.848)"/><path d="M336.239,75.055l-25.721-.013a7.09,7.09,0,0,0,.425-1.8q.3-3.476-4.782-3.48-7.466,0-7.837,4.3-.24,2.794,8.265,4.3,13.55,2.446,16.84,3.91,6.758,3.018,6.25,8.914a13.213,13.213,0,0,1-.729,3.237q-5.568,15.559-37.9,15.542-29.678-.015-27.453-15.946l25.722.013a6.5,6.5,0,0,0-.419,1.715q-.306,3.566,5.271,3.569,7.824,0,8.193-4.3.237-2.749-8.267-4.261-13.419-2.4-16.842-3.91-6.758-2.97-6.248-8.913a13.554,13.554,0,0,1,.729-3.237q5.614-15.6,37.944-15.586Q338.462,59.124,336.239,75.055Z" transform="translate(-127.952 -45.848)"/><path d="M403.581,59.644l-46.84,66.2-21.72-.011,11.349-16.416-.031-49.8,21.675.011L367.961,78,380.6,59.633Z" transform="translate(-128.09 -45.849)"/></g><g transform="translate(18.102 84.181)"><g transform="translate(0 0)"><path d="M210.23,188.162l-53.748-.242q-14.721-.066-9.105-10.484a36.3,36.3,0,0,1,3.948-5.731L172.2,146.217q13.186-16.131,31.531-16.05l53.749.241-10.111,12.374-34.854-.158q-9.173-.04-15.79,8.029l-13.791,16.867a18.086,18.086,0,0,0-2.079,3.069q-2.569,5.011,4.678,5.043l11.51.051,8.414-10.317-6.65-.03,10.111-12.373,29.992.135Z" transform="translate(-145.826 -130.167)"/><path d="M300.557,167.678q-17.369,21.242-51.625,21.086-29.03-.13-21.049-15.344a36.9,36.9,0,0,1,4.158-6.049l3-3.708q17.345-21.2,51.6-21.045,28.846.13,21.131,15.184a34.8,34.8,0,0,1-4.221,6.17Zm-31.909,4.59,10.713-13.1a18.337,18.337,0,0,0,2.033-2.984q1.987-3.873-2.645-3.894-6.193-.028-11.77,6.822l-10.713,13.1a17.393,17.393,0,0,0-2.082,2.984q-1.985,3.875,2.647,3.9Q263.021,179.121,268.648,172.269Z" transform="translate(-145.981 -130.191)"/><path d="M360.671,155.751l-11.465-.051-26.963,32.966-23.482-.1,26.964-32.967-11.464-.052,10.155-12.373,11.465.052,10.132-12.414,23.479.1-10.13,12.414,11.464.052Z" transform="translate(-146.122 -130.168)"/></g></g></g><path d="M60.477,260.832q17.441-50.4,34.918-100.9H28.128L144.037,18.786l.133.067Q126.742,69.29,109.284,119.82h67.28L60.608,260.927C60.563,260.9,60.52,260.863,60.477,260.832Z" transform="translate(0)" fill="#fe3b1f" fill-rule="evenodd"/></g></svg>