<svg xmlns="http://www.w3.org/2000/svg" width="1285.681" height="830.49" viewBox="0 0 1285.681 830.49"><g transform="translate(-28.128 -18.786)"><g transform="translate(359.302 116.688)"><path d="M328.146,265.576l-203.272-.1L186.186,94.259l80.2.041L202.867,47.386l203.272.1L389.455,94.358l-108.883-.051-13.98,38.811,93.462.045-16.671,46.722-93.462-.048L236.081,218.8l108.886.051Z" transform="translate(-124.874 -47.386)" fill="#fe3b1f"/><path d="M393.371,233.473l-78.958-.041,2.225-6.237a112.057,112.057,0,0,1-41.844,7.743q-84.979-.046-81.69-38.25a44.631,44.631,0,0,1,2.68-11.416q9.966-28,40.766-40.01,18.829-7.3,58.607-10.779T353.95,123.4l1.626-4.563a28.971,28.971,0,0,0,1.7-7.154q1.525-14.156-18.211-14.168-24.22-.015-32.527,21.3l-82.973-.041q35.383-58.125,128.689-58.084,85.6.041,81.248,52.4a95.1,95.1,0,0,1-5.415,23.442Zm-60.887-50.567,7.928-22.22q-6.706,2.588-21.114,4.255t-21.432,4.4q-11.5,4.554-14.733,13.538a19.136,19.136,0,0,0-1.01,4.566q-.991,11.569,19.974,11.58Q326.779,199.039,332.484,182.906Z" transform="translate(40.159 -15.166)" fill="#fe3b1f"/><path d="M510.29,115.361l-88.221-.041a23.9,23.9,0,0,0,1.458-6.189q1.032-11.918-16.4-11.933-25.6-.01-26.868,14.737-.827,9.586,28.34,14.761,46.474,8.39,57.765,13.412,23.168,10.346,21.429,30.572a45.149,45.149,0,0,1-2.5,11.1q-19.1,53.36-129.983,53.3-101.785-.056-94.15-54.695l88.211.044a22.263,22.263,0,0,0-1.431,5.884q-1.053,12.231,18.071,12.238,26.839.01,28.107-14.737.816-9.427-28.354-14.61Q319.737,160.974,308,155.8q-23.183-10.192-21.429-30.572a46.074,46.074,0,0,1,2.5-11.1Q308.326,60.62,419.215,60.673,517.919,60.724,510.29,115.361Z" transform="translate(204.083 -15.19)" fill="#fe3b1f"/><path d="M567.357,61.276,406.7,288.312l-74.491-.038,38.931-56.3L371.02,61.18l74.34.034-.181,63.02,43.364-63Z" transform="translate(377.516 -13.961)" fill="#fe3b1f"/><g transform="translate(62.085 288.719)"><path d="M363.9,330.642l-184.343-.828q-50.49-.226-31.229-35.957A124.145,124.145,0,0,1,161.869,274.2l71.605-87.423q45.226-55.326,108.144-55.047l184.343.832L491.288,175l-119.543-.537q-31.46-.144-54.157,27.539l-47.3,57.848a62.573,62.573,0,0,0-7.13,10.526q-8.806,17.186,16.044,17.3l39.479.178,28.857-35.385-22.808-.1,34.68-42.44,102.869.466Z" transform="translate(-143.011 -131.73)" fill="#fe3b1f"/><path d="M478.5,230.136q-59.557,72.851-177.058,72.321-99.567-.447-72.187-52.627a126.273,126.273,0,0,1,14.254-20.751l10.3-12.717q59.5-72.707,176.993-72.177,98.93.442,72.475,52.073A119.245,119.245,0,0,1,488.8,217.419ZM369.067,245.879,405.8,200.954a62.945,62.945,0,0,0,6.98-10.239q6.809-13.283-9.071-13.354-21.242-.1-40.376,23.4L326.6,245.687a59.309,59.309,0,0,0-7.141,10.232q-6.809,13.289,9.082,13.361Q349.764,269.377,369.067,245.879Z" transform="translate(51.653 -101.558)" fill="#fe3b1f"/><path d="M508.281,217.921l-39.318-.175L376.483,330.816l-80.536-.363,92.476-113.069-39.318-.178,34.834-42.433,39.318.178L458,132.37l80.536.359L503.8,175.31l39.318.178Z" transform="translate(227.573 -130.178)" fill="#fe3b1f"/></g></g><g transform="translate(368.938 111.334)"><g transform="translate(0)"><path d="M330.961,264.012l-203.272-.1L189,92.7l80.194.038L205.682,45.822l203.272.1L392.27,92.8l-108.88-.055-13.984,38.811,93.462.048L346.2,178.321l-93.458-.044L238.9,217.239l108.883.055Z" transform="translate(-127.689 -45.822)"/><path d="M396.187,231.912l-78.965-.041,2.232-6.237a112.119,112.119,0,0,1-41.841,7.74q-84.99-.041-81.693-38.25a44.424,44.424,0,0,1,2.677-11.413q9.966-28,40.769-40.013,18.824-7.3,58.607-10.776t58.789-11.088l1.629-4.563a28.731,28.731,0,0,0,1.694-7.154q1.52-14.151-18.214-14.165-24.21-.015-32.527,21.3l-82.97-.041q35.383-58.13,128.7-58.087,85.6.046,81.238,52.408a95.393,95.393,0,0,1-5.409,23.438ZM335.3,181.342l7.925-22.216q-6.7,2.588-21.107,4.252t-21.436,4.4q-11.491,4.56-14.737,13.538a19.34,19.34,0,0,0-1.01,4.566q-1,11.568,19.977,11.58Q329.585,197.475,335.3,181.342Z" transform="translate(37.346 -13.602)"/><path d="M513.11,113.8l-88.218-.045a24.309,24.309,0,0,0,1.458-6.186q1.022-11.923-16.4-11.936-25.607-.01-26.878,14.74-.822,9.581,28.347,14.757,46.474,8.39,57.758,13.412,23.178,10.352,21.436,30.572a45.325,45.325,0,0,1-2.5,11.1q-19.1,53.365-129.98,53.3-101.79-.051-94.157-54.691l88.221.044a22.272,22.272,0,0,0-1.438,5.881Q349.713,196.986,368.839,197q26.834.01,28.1-14.737.812-9.427-28.354-14.613-46.022-8.231-57.765-13.412-23.178-10.187-21.429-30.569a46.484,46.484,0,0,1,2.5-11.1q19.255-53.5,130.141-53.456Q520.735,59.16,513.11,113.8Z" transform="translate(201.267 -13.626)"/><path d="M570.166,59.712,409.515,286.751l-74.494-.038,38.924-56.3-.106-170.794,74.34.038L448,122.674l43.357-63Z" transform="translate(374.704 -12.397)"/></g><g transform="translate(62.085 288.723)"><g transform="translate(0 0)"><path d="M366.718,329.076l-184.342-.828q-50.49-.226-31.229-35.957a124.508,124.508,0,0,1,13.542-19.656l71.605-87.42q45.226-55.326,108.144-55.047L528.782,131l-34.68,42.44L374.56,172.9q-31.46-.139-54.157,27.539l-47.3,57.851a62.024,62.024,0,0,0-7.13,10.526q-8.811,17.186,16.044,17.3l39.476.175L350.348,250.9l-22.808-.1,34.68-42.437,102.865.462Z" transform="translate(-145.826 -130.167)"/><path d="M481.321,228.572q-59.573,72.856-177.062,72.321-99.567-.447-72.194-52.627a126.555,126.555,0,0,1,14.261-20.748l10.3-12.717q59.491-72.707,176.986-72.18,98.935.447,72.474,52.076a119.366,119.366,0,0,1-14.476,21.162ZM371.88,244.315l36.744-44.925a62.894,62.894,0,0,0,6.973-10.235q6.814-13.283-9.071-13.357-21.242-.1-40.369,23.4l-36.744,44.929a59.642,59.642,0,0,0-7.141,10.235q-6.809,13.289,9.078,13.36Q352.582,267.817,371.88,244.315Z" transform="translate(48.837 -99.998)"/><path d="M511.1,216.358l-39.322-.175L379.3,329.249l-80.539-.359L391.24,215.82l-39.318-.178,34.83-42.437,39.322.178,34.752-42.577,80.529.359L506.61,173.743l39.318.178Z" transform="translate(224.756 -128.615)"/></g></g></g><g transform="translate(332.66 615.366)"><path d="M152.346,245.95c-1.961,0-19.115-12.224-22.288-12.224H128.37c-.27.27-.068.4-.27.945,0,.544,1.013,3.919,1.013,4.933v.2c0,.544-2.838,4.4-4.933,6.826a5.8,5.8,0,0,1-2.564.541c-2.636,0-4.525-3.581-4.525-5.474v-.065a32.872,32.872,0,0,0,1.013-3.245,1.172,1.172,0,0,0,.065-.469c0-.339-.065-.746-.065-1.15a1.96,1.96,0,0,1,.27-1.082c2.293-4.864,1.215-5.6,2.026-9.386,1.01-4.864,1.753-16.208,6.076-19.248h.137c2.567,0,12.967-10.67,19.584-10.67,5.135,0,7.161,5.2,7.161,9.047v.678c-.476,7.36-10.132,15.264-15.6,20.193.876.743,2.838,2.362,3.375,2.362.27,0,.27-.065.27-.137s0-.134.27-.134c.678,0,.743.88,1.013,1.147.678.544,1.691.544,2.228.815.27.335.746,1.284,1.284,1.554A15.359,15.359,0,0,0,150.792,234a18.59,18.59,0,0,1,2.026-.476c2.834,0,6.145,2.5,6.145,5.34v.2C158.761,242.709,155.653,245.95,152.346,245.95Zm-7.363-38.7c0-.811-.27-2.228-1.619-2.228-2.026,0-5.676,4.594-6.011,4.594h-.205c-3.307,0-8.1,10.061-8.1,12.357v1.013h2.9c3.851-2.632,12.833-10.807,13.035-15.4Z" transform="translate(-117.091 -185.032)"/><path d="M166.252,248.608h-2.365c-1.284,0-5.268-2.766-6.145-4.388a40.133,40.133,0,0,1-3.581-7.764c-4.8,6.48-12.292,15.329-17.557,15.329-2.3,0-6.689-1.078-6.689-5,0-2.3,6.079-12.563,7.024-13.508,10.738-10.94,15.668-17.085,21.408-17.085,3.04,0,6.418,3.1,6.418,6.415,0,1.349-2.567,10-2.567,11.279,0,3.851,1.756,7.154,6.079,7.154,3.646,0,5.4-1.955,7.158-2.834a1.854,1.854,0,0,1,.945-.27c1.421,0,1.961,2.163,1.961,2.838C178.342,244.22,167.265,248.608,166.252,248.608Zm-26.071-6.549c1.893-1.017,3.31-1.756,7.226-6.213,3.649-4.19,5.4-6.754,5.4-8.308V227.2C149.5,227.2,140.924,237.74,140.181,242.06Zm20.193-34.577c-1.688,2.16-6.552,7.428-10.061,7.428a1.82,1.82,0,0,1-1.421-1.352c0-1.013.609-1.013,1.691-2.5a41.265,41.265,0,0,0,3.173-5.2c1.89-2.971,2.026-3.108,2.026-7.024,0-1.756,4.186-3.916,6.145-3.916,2.7,0,2.838,4.388,2.838,5.268C164.766,201.876,162.332,204.847,160.374,207.483Z" transform="translate(-86.017 -188.57)"/><path d="M174.625,216.731c-.407,6.281-12.7,20.936-19.45,20.936-.541,0-2.163-.88-2.769-.88-1.554,0-4.053,15.2-4.053,15.2,0,1.417,4.053,3.848,4.053,6.415,0,1.417-2.769,9.184-6.35,9.184-2.026,0-3.848-3.851-3.848-3.916,0-19.183,2.971-19.991,7.428-43.7,2.026-3.779.945-5.535,2.971-8.643.606-.941,2.838-1.551,4.659-3.04,1.284-1.078,4.594-3.375,5.337-5.6,3.851-1.352.876-1.825,5.4-1.825,5.47,0,7.9,5.337,7.9,9.184A25.747,25.747,0,0,1,174.625,216.731Zm-7.161-7.9c-4.522,0-13.3,17.561-13.3,19.587a1.414,1.414,0,0,0,.537,1.082c.746,0,1.76.2,2.3.2,3.177,0,10.875-9.39,10.875-12.7,0-.134-.068-.2-.068-.335a40.328,40.328,0,0,0,1.284-4.861S168.748,208.827,167.464,208.827Z" transform="translate(-56.229 -174.182)"/><path d="M169.387,251.42c-.407.27-5.405,3.447-6.822,3.447-.541,0-3.1-.205-3.649-.205-.739,0-4.05-4.594-4.118-4.864a21.213,21.213,0,0,1-1.147-7.089v-.472c0-5.135,1.958-20.262,7.9-20.262,1.421,0,3.581,3.783,3.581,4.525,0,.541-3.31,10.536-3.31,14.719a18.918,18.918,0,0,0,1.013,5h.472c3.512,0,7.836-2.838,10.2-5,.811-.739,3.581-2.564,4.121-2.564a1.936,1.936,0,0,1,1.619,1.691C179.246,243.516,170.739,250.407,169.387,251.42Zm.2-44.371a9.694,9.694,0,0,1-3.581-.746c-.743-.267-1.215-1.821-1.958-2.766-1.352-2.026-3.04-2.232-3.04-5.2a5.238,5.238,0,0,1,5.405-5.135c3.779,0,2.362,1.688,5.539,5.268a12.536,12.536,0,0,1,1.078,3.984C173.033,204.277,171.208,207.05,169.589,207.05Z" transform="translate(-28.501 -192.731)"/><path d="M192.211,240.407c0,3.919,3.173,4.19,3.173,6.689,0,2.362-2.636,7.565-5.47,7.565-3.581,0-5-6.281-5-7.565,0-.2,3.577-13.576,3.577-13.778v-1.486c-1.078.541-2.091.4-2.43,1.01-3.512,4.864-15.127,19.587-21.408,19.587h-2.026c-1.825,0-3.512-4.522-3.512-4.594a6.428,6.428,0,0,1,1.958-3.848c4.594-4.864,7.363-12.628,13.847-15.8,4.323-2.092,4.388-5.2,10.266-5.2.541,0,2.294.873,3.242,1.078a18.572,18.572,0,0,1,1.349,2.362c3.985-9.451,7.565-21.138,10.807-30.527.407-1.284,2.838-2.834,3.581-2.834,1.349,0,4.118,1.551,4.118,3.848C208.283,199.48,192.211,228.724,192.211,240.407Z" transform="translate(-15.259 -193.065)"/><path d="M193.485,226.264c-1.284.88-2.365,2.567-3.783,3.649-1.619,1.215-5.672,3.177-8.51,3.177-3.512,0-9.725-2.906-9.725-7.363,0-6.148,3.31-6.685,3.649-13.237,8.171-7.5,10.735-10.94,19.111-10.94,3.649,0,6.685,4.454,6.685,7.295C200.913,214.581,198.143,222.957,193.485,226.264Zm.609-17.554c-2.163,0-3.108,1.212-6.757,2.9-1.551.743-4.457,3.581-4.724,4.933-.2.541-.407,1.215-.476,1.417-1.688,2.362-2.5,2.163-2.5,5.333a3.836,3.836,0,0,0,.541,1.759h2.027c1.824,0,6.483-3.108,7.158-3.581,1.756-1.284,5.878-8.308,5.878-11.279C195.241,210.192,194.833,208.71,194.094,208.71Z" transform="translate(14.669 -172.507)"/><path d="M195.356,248c-6.145,0-8.914-5.542-8.914-10.673,0-.407,6.959-24.448,6.959-30.729a3.812,3.812,0,0,0-.068-.945c.743-1.825.808-9.725,5.4-9.725a5.892,5.892,0,0,1,5.809,5.672c0,2.567-1.688,4.727-2.7,6.891-.336,5.063-8.3,19.652-8.3,28.836,0,1.825,3.1,2.9,3.444,2.9h1.147c5.946,0,13.645-7.024,15.469-7.024a1.912,1.912,0,0,1,1.417.815v1.753C210.688,240.974,201.5,248,195.356,248Z" transform="translate(50.956 -186.132)"/><path d="M215.737,226.264c-1.284.88-2.362,2.567-3.783,3.649-1.619,1.215-5.672,3.177-8.51,3.177-3.509,0-9.722-2.906-9.722-7.363,0-6.148,3.307-6.685,3.646-13.237,8.171-7.5,10.738-10.94,19.115-10.94,3.646,0,6.685,4.454,6.685,7.295C223.169,214.581,220.4,222.957,215.737,226.264Zm.609-17.554c-2.16,0-3.108,1.212-6.754,2.9-1.554.743-4.457,3.581-4.727,4.933-.2.541-.407,1.215-.472,1.417-1.688,2.362-2.5,2.163-2.5,5.333a3.835,3.835,0,0,0,.541,1.759h2.023c1.825,0,6.483-3.108,7.161-3.581,1.756-1.284,5.874-8.308,5.874-11.279C217.493,210.192,217.089,208.71,216.346,208.71Z" transform="translate(68.598 -172.507)"/><path d="M232.362,231.313c-5.337,3.516-12.566,5.676-16.684,5.676-4.792,0-7.158-3.783-7.158-7.9,0-3.581,1.215-8.917,2.43-13.035.339-1.082,1.893-2.632,2.3-4.19,1.147-4.388,7.363-11.142,11.485-11.142,2.026,0,5.059,1.421,5.059,4.59,0,4.594-14.247,7.23-14.247,21.275,0,1.825.678,3.447,2.834,3.447,5.07,0,11.146-2.434,17.359-5.878a.527.527,0,0,1,.274-.065c.678,0,.743,1.619.743,1.688C236.754,227.465,235.806,229.019,232.362,231.313Z" transform="translate(104.454 -174.516)"/><path d="M238.049,226.264c-1.284.88-2.359,2.567-3.776,3.649-1.626,1.215-5.672,3.177-8.51,3.177-3.516,0-9.725-2.906-9.725-7.363,0-6.148,3.307-6.685,3.649-13.237,8.171-7.5,10.735-10.94,19.111-10.94,3.642,0,6.685,4.454,6.685,7.295C245.484,214.581,242.711,222.957,238.049,226.264Zm.609-17.554c-2.16,0-3.1,1.212-6.754,2.9-1.551.743-4.454,3.581-4.724,4.933-.2.541-.407,1.215-.472,1.417-1.684,2.362-2.5,2.163-2.5,5.333a3.839,3.839,0,0,0,.544,1.759h2.023c1.828,0,6.483-3.108,7.158-3.581,1.76-1.284,5.878-8.308,5.878-11.279C239.808,210.192,239.4,208.71,238.658,208.71Z" transform="translate(122.671 -172.507)"/><path d="M266.652,233.139a13.874,13.874,0,0,1-4.32,1.284c-3.919,0-6.62-2.163-9.527-6.148-.945-3.509-2.769-13.3-3.379-13.3-.4,0-13.028,17.561-18.906,17.561-2.834,0-4.936-4.392-4.936-6.216,0-1.013,4.936-13.641,4.936-16.277v-.2c1.551-4.125.743-8.174,6.21-8.174,3.043,0,4.118,3.108,4.118,5.474,0,2.5-4.183,9.181-4.183,11.005,0,.678.065.678.339.743,2.294-3.04,8.3-9.455,10.673-13.576.873-1.482,2.29-1.753,3.844-1.753,8.986,0,4.392,22.151,11.82,22.151,5.809,0,8.376-3.512,11.012-4.8a2.758,2.758,0,0,1,.739-.133,1.916,1.916,0,0,1,1.961,1.958,3.424,3.424,0,0,1-1.017,2.294C274.488,227.262,268.949,232.061,266.652,233.139Z" transform="translate(145.804 -172.221)"/><path d="M268.3,206.815c-3.444.606-8.1.88-9.253,6.148a47.588,47.588,0,0,0-.952,9.047,22.461,22.461,0,0,0,.14,3.1,26.854,26.854,0,0,0-.674,4.933c-.065,5.607-1.215,12.224-6.617,17.831-2.369,1.28-6.285,5.063-7.972,5.063-3.242,0-5.607-1.688-5.607-4.59a6.029,6.029,0,0,1,1.623-3.851,21.933,21.933,0,0,0,2.362.2,6.7,6.7,0,0,0,6.011-3.444c2.5-3.851,2.975-8.445,3.444-12.563a9.382,9.382,0,0,0,.072-1.486c0-2.095-.274-5-.274-8.171,0-5.741.948-12.357,6.483-17.02a11.693,11.693,0,0,1,1.352-1.688c.674-.609,4.926-1.486,5.676-1.486,2.228,0,5.128.945,5.128,3.581A10.194,10.194,0,0,1,268.3,206.815Z" transform="translate(174.349 -179.057)"/><path d="M262.417,251.42c-.407.27-5.4,3.447-6.819,3.447-.544,0-3.112-.205-3.652-.205-.743,0-4.05-4.594-4.118-4.864a21.4,21.4,0,0,1-1.15-7.089v-.472c0-5.135,1.958-20.262,7.9-20.262,1.417,0,3.577,3.783,3.577,4.525,0,.541-3.31,10.536-3.31,14.719a19.038,19.038,0,0,0,1.017,5h.472c3.512,0,7.839-2.838,10.2-5,.808-.739,3.577-2.564,4.118-2.564a1.943,1.943,0,0,1,1.626,1.691C272.279,243.516,263.765,250.407,262.417,251.42Zm.2-44.371a9.636,9.636,0,0,1-3.574-.746c-.743-.267-1.219-1.821-1.961-2.766-1.349-2.026-3.04-2.232-3.04-5.2a5.235,5.235,0,0,1,5.4-5.135c3.783,0,2.365,1.688,5.542,5.268a12.617,12.617,0,0,1,1.075,3.984C266.059,204.277,264.241,207.05,262.615,207.05Z" transform="translate(196.913 -192.731)"/><path d="M292.806,215.641c-.407,11.279,2.294,47.883-24.581,47.883-5.6,0-18.509-2.43-18.509-7.565,0-1.417.476-5,2.975-6.617a2.122,2.122,0,0,1,1.212.743,15.783,15.783,0,0,0,1.958,2.906,21.855,21.855,0,0,0,14.189,5.131c11.344,0,15.664-15.332,15.87-22.76v-8.24c-.541-2.5-.339-5.809-1.623-7.63-.541.606-12.631,10.735-15.2,10.735-.267,0-.267-.065-.267-.134s0-.137-.339-.137c-.4,0-3.512,1.15-4.118,1.15-2.567,0-5.672-3.916-5.672-5.943,0-17.427,18.232-21,20.193-22.154a13.487,13.487,0,0,1,6.552-1.619c1.01,0,2.359,1.147,4.05,1.756,3.786,1.417,4.053,3.31,4.053,5.131v.948C293.549,209.832,292.875,213.413,292.806,215.641Zm-10-5.874c-8.91,0-15.736,6.819-16.007,12.491.068.27.876.339,1.688.339.739,0,1.489-.068,1.623-.068,3.984-1.619,11.889-9.116,13.847-12.7C283.554,209.832,283.218,209.767,282.811,209.767Z" transform="translate(204.277 -172.89)"/><path d="M293.733,237.441c-5.135,0-5.878-13.98-5.878-14.856,0-.743-.541-2.026-.743-3.379-.274,0-.342-.2-.609-.469-2.5,2.9-11.752,12.224-15.87,12.224a5.957,5.957,0,0,1-6.079-6.011c0-6.213,5.063-20.669,5.4-21.206.743-1.082,3.036-1.623,3.711-1.623a4.158,4.158,0,0,1,3.919,3.919c0,1.958-4.594,11.954-4.594,13.032v.674l.274.339c6.418-4.19,11.413-8.24,14.049-12.358.541-1.013,3.108-1.688,4.323-1.688,3.985,0,4.118,3.574,4.118,6.819v.945a13.369,13.369,0,0,0,.068,1.688c.134,2.232.134,5.135.134,7.836.068.068.342.606.541.876,0,.88-.274,1.688-.274,2.567a3.4,3.4,0,0,0,.476,1.688c1.15,1.893,2.7,2.3,2.7,4.594C299.4,236.565,295.284,237.441,293.733,237.441Z" transform="translate(240.231 -171.121)"/><path d="M286.156,222.154c-.541.068-2.027,2.906-2.027,4.19,0,1.212.743,2.3,1.619,2.3,3.31,0,7.093-4.933,9.462-4.933,1.006,0,2.492,2.3,2.492,3.04,0,3.649-11.954,10.536-13.573,10.536-5.607,0-7.428-6.887-7.428-9.927,0-2.567,1.143-3.649,1.143-5.672,0-1.421-1.886-2.3-1.886-4.8,0-7.493,7.363-1.551,9.181-8.441.075-.065,8.445-7.428,10.071-7.428,3.509,0,6.617,2.026,6.617,5.539C301.827,212.025,290.342,221.414,286.156,222.154Z" transform="translate(267.865 -173.799)"/><path d="M312.549,206.815c-3.444.606-8.1.88-9.246,6.148a47.313,47.313,0,0,0-.952,9.047,23.612,23.612,0,0,0,.133,3.1,27.461,27.461,0,0,0-.674,4.933c-.069,5.607-1.215,12.224-6.62,17.831-2.359,1.28-6.278,5.063-7.969,5.063-3.242,0-5.6-1.688-5.6-4.59a6.028,6.028,0,0,1,1.616-3.851,22.073,22.073,0,0,0,2.369.2,6.7,6.7,0,0,0,6.011-3.444c2.5-3.851,2.968-8.445,3.44-12.563a9.828,9.828,0,0,0,.069-1.486c0-2.095-.267-5-.267-8.171,0-5.741.941-12.357,6.483-17.02a11.7,11.7,0,0,1,1.352-1.688c.674-.609,4.926-1.486,5.669-1.486,2.225,0,5.135.945,5.135,3.581A10.246,10.246,0,0,1,312.549,206.815Z" transform="translate(281.587 -179.057)"/><path d="M297.168,252.741c-5.063,0-5.6-2.975-5.6-6.757,0-2.834.743-3.848.743-3.848,2.632-1.554,2.632-2.567,4.861-2.567,4.19,0,5,3.31,5,5.333C302.169,245.645,301.758,252.741,297.168,252.741ZM308.854,205.8c-.811,1.753-.541,4.453-1.759,5.871-1.349,5.474-1.619,4.46-3.17,11.009-1.082,4.525-2.167,5.607-2.167,8.849a12.843,12.843,0,0,0,.069,1.554c-1.01.068-3.375.876-3.779.876-1.623,0-3.581-1.078-3.581-3.04a9.9,9.9,0,0,1,1.284-2.834c3.173-12.361,2.7-13.573,4.659-22.285.674-3.043,1.958-11.416,6.826-11.416,2.834,0,4.385,2.567,4.385,4.864C311.62,201.072,309.731,203.975,308.854,205.8Z" transform="translate(305.68 -189.862)"/></g><path d="M139.079,848.947Q198.9,676.077,258.84,502.872H28.128Q227.3,260.334,425.67,18.786c.151.079.3.151.455.229Q366.352,192,306.473,365.31H537.227q-199.309,242.538-397.7,483.966C139.373,849.169,139.226,849.053,139.079,848.947Z" transform="translate(0)" fill="#fe3b1f" fill-rule="evenodd"/></g></svg>