<svg xmlns="http://www.w3.org/2000/svg" width="500" height="150" viewBox="0 0 500 150"><g transform="translate(20475 16513)"><rect width="500" height="150" transform="translate(-20475 -16513)" fill="#fe3b1f"/><g transform="translate(-20424.988 -16469.469)"><path d="M515.181,51.3l4.795-12.125h13.845L527.25,20.78,535.467,0,559,62.491H541.646L537.624,51.3H515.181" transform="translate(-393.027 0)" fill="#fff"/><path d="M244.632,62.494,269.828,0h-16.7L235.888,40.386,223.632,0h-12.84L197.633,40.386l-9.281-18.4-8.4,25.874,8.527,14.635H204.92L216.811,26.28,228.15,62.494h16.483" transform="translate(-137.285 -0.003)"/><path d="M15.855,41.039H26.144a30.314,30.314,0,0,0,8.326-1.044l2.662-8.2L44.568,8.887a18.275,18.275,0,0,0-1.941-2.548Q36.9,0,25.867,0H0V62.491H15.855ZM29.475,14.377A8.174,8.174,0,0,1,31.712,20.4a8.8,8.8,0,0,1-1.967,6.033q-2.158,2.478-7.943,2.477H15.855V12.125h5.989q5.393,0,7.63,2.252" fill="#fff"/></g><path d="M17.64-12.708A21.027,21.027,0,0,1,16.992-7.2,11.437,11.437,0,0,1,15.12-3.222,7.949,7.949,0,0,1,12.186-.81a8.76,8.76,0,0,1-3.8.81H2.916V-25.488H8.424a8.76,8.76,0,0,1,3.8.81,7.74,7.74,0,0,1,2.916,2.43,11.832,11.832,0,0,1,1.854,4.014A21.234,21.234,0,0,1,17.64-12.708Zm-2.484,0a18.724,18.724,0,0,0-.522-4.7,10.069,10.069,0,0,0-1.44-3.294,6.127,6.127,0,0,0-2.16-1.944,5.712,5.712,0,0,0-2.682-.648H5.4V-2.2H8.352a5.712,5.712,0,0,0,2.682-.648,6.127,6.127,0,0,0,2.16-1.944,10.077,10.077,0,0,0,1.44-3.276A18.342,18.342,0,0,0,15.156-12.708Zm9.864-10.62a1.717,1.717,0,0,1-.468,1.242,1.5,1.5,0,0,1-1.116.486,1.48,1.48,0,0,1-1.134-.486,1.756,1.756,0,0,1-.45-1.242,1.773,1.773,0,0,1,.45-1.224,1.455,1.455,0,0,1,1.134-.5,1.455,1.455,0,0,1,1.134.5A1.773,1.773,0,0,1,25.02-23.328ZM22.248,0V-17.856h2.376V0ZM36.972-14.76a3.849,3.849,0,0,0-1.206-1.278,3.168,3.168,0,0,0-1.782-.486,2.4,2.4,0,0,0-1.89.846,3.246,3.246,0,0,0-.738,2.214,2.683,2.683,0,0,0,.72,2.088,6.842,6.842,0,0,0,2.16,1.188,11.341,11.341,0,0,1,1.44.7A5.282,5.282,0,0,1,36.954-8.46,5.112,5.112,0,0,1,37.872-7a5.181,5.181,0,0,1,.36,2.034A5.606,5.606,0,0,1,36.81-.882,4.926,4.926,0,0,1,33.12.576a5.6,5.6,0,0,1-2.772-.7,6.181,6.181,0,0,1-2.088-1.89L29.7-3.564a5.558,5.558,0,0,0,1.458,1.53,3.388,3.388,0,0,0,2,.594,2.531,2.531,0,0,0,2.034-.918,3.644,3.644,0,0,0,.774-2.43,3.324,3.324,0,0,0-.288-1.458,2.979,2.979,0,0,0-.756-.99,5.035,5.035,0,0,0-1.062-.684q-.594-.288-1.242-.54A8.719,8.719,0,0,1,31.3-9.072a4.41,4.41,0,0,1-1.134-.936,4.49,4.49,0,0,1-.81-1.386,5.568,5.568,0,0,1-.306-1.962,5.43,5.43,0,0,1,.378-2.052,4.619,4.619,0,0,1,1.062-1.6,5.112,5.112,0,0,1,1.566-1.044,4.838,4.838,0,0,1,1.926-.378,5.409,5.409,0,0,1,2.61.594,5.277,5.277,0,0,1,1.782,1.53ZM54.72-8.892a18.744,18.744,0,0,1-.36,3.816,10.179,10.179,0,0,1-1.08,2.988A5.738,5.738,0,0,1,51.516-.126a4.283,4.283,0,0,1-2.448.7A3.868,3.868,0,0,1,46.35-.432,5.339,5.339,0,0,1,44.82-3.06h-.036V8.64H42.408v-26.5h2.3v3.2h.072a6.1,6.1,0,0,1,1.44-2.718,3.733,3.733,0,0,1,2.844-1.062,4.168,4.168,0,0,1,2.394.72,5.836,5.836,0,0,1,1.782,1.98,10.526,10.526,0,0,1,1.1,3.006A18.136,18.136,0,0,1,54.72-8.892Zm-2.448-.072a18.36,18.36,0,0,0-.216-2.9,8.953,8.953,0,0,0-.684-2.358A4.4,4.4,0,0,0,50.2-15.8a2.556,2.556,0,0,0-1.674-.576,2.556,2.556,0,0,0-1.674.576,4.578,4.578,0,0,0-1.188,1.584,8.935,8.935,0,0,0-.72,2.358,16.977,16.977,0,0,0-.234,2.9,17.526,17.526,0,0,0,.234,2.952,8.664,8.664,0,0,0,.72,2.358,4.505,4.505,0,0,0,1.206,1.566,2.576,2.576,0,0,0,1.656.576A2.556,2.556,0,0,0,50.2-2.088a4.434,4.434,0,0,0,1.17-1.566,8.691,8.691,0,0,0,.684-2.358A18.955,18.955,0,0,0,52.272-8.964Zm18.288.072a15.9,15.9,0,0,1-.432,3.852A10.254,10.254,0,0,1,68.9-2.052,5.73,5.73,0,0,1,66.942-.108a5.076,5.076,0,0,1-2.61.684A4.98,4.98,0,0,1,61.74-.108a5.945,5.945,0,0,1-1.962-1.944A9.95,9.95,0,0,1,58.536-5.04,15.9,15.9,0,0,1,58.1-8.892a17.024,17.024,0,0,1,.414-3.888A9.9,9.9,0,0,1,59.724-15.8a5.73,5.73,0,0,1,1.962-1.944,5.145,5.145,0,0,1,2.646-.684,5.076,5.076,0,0,1,2.61.684A5.73,5.73,0,0,1,68.9-15.8a10.218,10.218,0,0,1,1.224,3.024A16.344,16.344,0,0,1,70.56-8.892Zm-2.448-.036a17.527,17.527,0,0,0-.234-2.952,9.121,9.121,0,0,0-.7-2.358,4.434,4.434,0,0,0-1.17-1.566,2.556,2.556,0,0,0-1.674-.576,2.627,2.627,0,0,0-1.692.576,4.167,4.167,0,0,0-1.17,1.566,9.64,9.64,0,0,0-.684,2.358,17.526,17.526,0,0,0-.234,2.952,16.89,16.89,0,0,0,.234,2.916,9.976,9.976,0,0,0,.684,2.34,3.985,3.985,0,0,0,1.17,1.566,2.682,2.682,0,0,0,1.692.558,2.682,2.682,0,0,0,1.692-.558,3.985,3.985,0,0,0,1.17-1.566,9.976,9.976,0,0,0,.684-2.34A16.891,16.891,0,0,0,68.112-8.928ZM84.168,0V-11.52a15.817,15.817,0,0,0-.09-1.674,5.239,5.239,0,0,0-.4-1.548,2.982,2.982,0,0,0-.864-1.152,2.251,2.251,0,0,0-1.458-.45,2.746,2.746,0,0,0-1.6.486,4.019,4.019,0,0,0-1.188,1.332,7.46,7.46,0,0,0-.756,1.944,9.54,9.54,0,0,0-.27,2.286V0H75.168V-13.356q0-.576-.018-1.242t-.036-1.3q-.018-.63-.036-1.152t-.054-.81h2.3q.072.684.108,1.656t.036,1.836h.072A6.467,6.467,0,0,1,79.2-17.3a3.94,3.94,0,0,1,2.88-1.134,4,4,0,0,1,2.322.612,3.987,3.987,0,0,1,1.35,1.6,7.446,7.446,0,0,1,.63,2.232,19.049,19.049,0,0,1,.162,2.466V0ZM94.716-23.328a1.717,1.717,0,0,1-.468,1.242,1.5,1.5,0,0,1-1.116.486A1.48,1.48,0,0,1,92-22.086a1.756,1.756,0,0,1-.45-1.242A1.773,1.773,0,0,1,92-24.552a1.455,1.455,0,0,1,1.134-.5,1.455,1.455,0,0,1,1.134.5A1.773,1.773,0,0,1,94.716-23.328ZM91.944,0V-17.856H94.32V0Zm20.232-9a18.136,18.136,0,0,1-.378,3.834,10.788,10.788,0,0,1-1.1,3.024,5.87,5.87,0,0,1-1.764,2,4.144,4.144,0,0,1-2.412.72A3.733,3.733,0,0,1,103.68-.486,6.1,6.1,0,0,1,102.24-3.2h-.072V0h-2.3V-27.216h2.376V-14.8h.036a5.339,5.339,0,0,1,1.53-2.628,3.868,3.868,0,0,1,2.718-1.008,4.306,4.306,0,0,1,2.43.7,5.707,5.707,0,0,1,1.782,1.944,9.936,9.936,0,0,1,1.08,2.97A18.744,18.744,0,0,1,112.176-9Zm-2.448.072a18.7,18.7,0,0,0-.216-2.916,8.959,8.959,0,0,0-.684-2.376,4.4,4.4,0,0,0-1.17-1.584,2.556,2.556,0,0,0-1.674-.576,2.576,2.576,0,0,0-1.656.576,4.47,4.47,0,0,0-1.206,1.584,8.935,8.935,0,0,0-.72,2.376,17.3,17.3,0,0,0-.234,2.916,17.207,17.207,0,0,0,.234,2.934,8.661,8.661,0,0,0,.72,2.34,4.616,4.616,0,0,0,1.188,1.566,2.556,2.556,0,0,0,1.674.576,2.556,2.556,0,0,0,1.674-.576,4.434,4.434,0,0,0,1.17-1.566,8.682,8.682,0,0,0,.684-2.34A18.608,18.608,0,0,0,109.728-8.928ZM116.64,0V-27.216h2.376V0Zm9.252-8.424a13.684,13.684,0,0,0,.252,2.718,8.007,8.007,0,0,0,.738,2.16,4.033,4.033,0,0,0,1.224,1.44,2.945,2.945,0,0,0,1.746.522,2.823,2.823,0,0,0,2.088-.792,5.434,5.434,0,0,0,1.224-1.908l1.8,1.044a6.9,6.9,0,0,1-1.926,2.718,4.822,4.822,0,0,1-3.258,1.1,5.254,5.254,0,0,1-4.644-2.52,12.554,12.554,0,0,1-1.656-6.948,16.179,16.179,0,0,1,.432-3.852,9.919,9.919,0,0,1,1.242-3.024,6.057,6.057,0,0,1,1.98-1.962,4.975,4.975,0,0,1,2.61-.7,4.977,4.977,0,0,1,2.682.684,5.239,5.239,0,0,1,1.782,1.872,8.9,8.9,0,0,1,.99,2.772A17.832,17.832,0,0,1,135.5-9.72v1.3Zm7.2-1.98a9.664,9.664,0,0,0-.828-4.338,2.729,2.729,0,0,0-2.592-1.638,2.518,2.518,0,0,0-1.746.63,5.021,5.021,0,0,0-1.152,1.548,7.691,7.691,0,0,0-.648,1.962,10.007,10.007,0,0,0-.2,1.836ZM155.484-1.26a4.756,4.756,0,0,1-3.96,1.836,5.017,5.017,0,0,1-2.664-.7,5.852,5.852,0,0,1-1.926-1.944,9.651,9.651,0,0,1-1.17-2.988,17.521,17.521,0,0,1-.4-3.87,17.521,17.521,0,0,1,.4-3.87,9.6,9.6,0,0,1,1.188-3.006,5.788,5.788,0,0,1,1.944-1.944,5.118,5.118,0,0,1,2.664-.684,5.028,5.028,0,0,1,2.34.5,4.994,4.994,0,0,1,1.548,1.188l-1.26,1.728a3.223,3.223,0,0,0-1.08-.972,3.063,3.063,0,0,0-1.512-.36,2.608,2.608,0,0,0-1.674.558,4.255,4.255,0,0,0-1.17,1.548,9.122,9.122,0,0,0-.7,2.34,17.441,17.441,0,0,0-.234,2.97,16.892,16.892,0,0,0,.234,2.916,8.835,8.835,0,0,0,.7,2.3A3.946,3.946,0,0,0,149.958-2.2a2.876,2.876,0,0,0,1.746.54,3.12,3.12,0,0,0,1.566-.378A3.408,3.408,0,0,0,154.4-3.1ZM169.92-8.892a15.9,15.9,0,0,1-.432,3.852,10.254,10.254,0,0,1-1.224,2.988A5.73,5.73,0,0,1,166.3-.108a5.076,5.076,0,0,1-2.61.684A4.98,4.98,0,0,1,161.1-.108a5.945,5.945,0,0,1-1.962-1.944A9.95,9.95,0,0,1,157.9-5.04a15.9,15.9,0,0,1-.432-3.852,17.023,17.023,0,0,1,.414-3.888,9.9,9.9,0,0,1,1.206-3.024,5.73,5.73,0,0,1,1.962-1.944,5.145,5.145,0,0,1,2.646-.684,5.076,5.076,0,0,1,2.61.684,5.73,5.73,0,0,1,1.962,1.944,10.218,10.218,0,0,1,1.224,3.024A16.344,16.344,0,0,1,169.92-8.892Zm-2.448-.036a17.528,17.528,0,0,0-.234-2.952,9.122,9.122,0,0,0-.7-2.358,4.434,4.434,0,0,0-1.17-1.566,2.556,2.556,0,0,0-1.674-.576A2.627,2.627,0,0,0,162-15.8a4.167,4.167,0,0,0-1.17,1.566,9.64,9.64,0,0,0-.684,2.358,17.528,17.528,0,0,0-.234,2.952,16.892,16.892,0,0,0,.234,2.916,9.976,9.976,0,0,0,.684,2.34A3.985,3.985,0,0,0,162-2.106a2.682,2.682,0,0,0,1.692.558,2.682,2.682,0,0,0,1.692-.558,3.985,3.985,0,0,0,1.17-1.566,9.976,9.976,0,0,0,.684-2.34A16.892,16.892,0,0,0,167.472-8.928Zm9.432-5.436a5.8,5.8,0,0,1,1.53-2.934,3.97,3.97,0,0,1,2.934-1.134,3.788,3.788,0,0,1,1.674.342,3.707,3.707,0,0,1,1.188.9,4.052,4.052,0,0,1,.756,1.314,9.813,9.813,0,0,1,.414,1.548h.072a7.277,7.277,0,0,1,.612-1.53,5.326,5.326,0,0,1,.99-1.314,4.643,4.643,0,0,1,1.368-.918,4.277,4.277,0,0,1,1.746-.342,3.91,3.91,0,0,1,2.3.612,4.186,4.186,0,0,1,1.35,1.6,7.121,7.121,0,0,1,.648,2.232,19.051,19.051,0,0,1,.162,2.466V0H192.24V-11.52a15.813,15.813,0,0,0-.09-1.674,5.629,5.629,0,0,0-.378-1.548,2.83,2.83,0,0,0-.846-1.152,2.31,2.31,0,0,0-1.494-.45,2.689,2.689,0,0,0-1.566.486,3.849,3.849,0,0,0-1.17,1.332,7.433,7.433,0,0,0-.72,1.944,10.189,10.189,0,0,0-.252,2.286V0h-2.376V-11.52a16.329,16.329,0,0,0-.09-1.692,6.116,6.116,0,0,0-.36-1.566,2.564,2.564,0,0,0-.828-1.134,2.315,2.315,0,0,0-1.458-.432,2.665,2.665,0,0,0-1.584.486,4.11,4.11,0,0,0-1.17,1.332,7.043,7.043,0,0,0-.738,1.944,10.189,10.189,0,0,0-.252,2.286V0h-2.34V-13.356q0-.576-.018-1.242t-.036-1.3q-.018-.63-.036-1.152t-.054-.81h2.3q.072.684.108,1.656t.036,1.836Zm34.524,5.472A15.9,15.9,0,0,1,211-5.04a10.254,10.254,0,0,1-1.224,2.988A5.73,5.73,0,0,1,207.81-.108a5.076,5.076,0,0,1-2.61.684,4.98,4.98,0,0,1-2.592-.684,5.945,5.945,0,0,1-1.962-1.944A9.95,9.95,0,0,1,199.4-5.04a15.9,15.9,0,0,1-.432-3.852,17.023,17.023,0,0,1,.414-3.888,9.9,9.9,0,0,1,1.206-3.024,5.73,5.73,0,0,1,1.962-1.944,5.145,5.145,0,0,1,2.646-.684,5.076,5.076,0,0,1,2.61.684,5.73,5.73,0,0,1,1.962,1.944A10.218,10.218,0,0,1,211-12.78,16.344,16.344,0,0,1,211.428-8.892Zm-2.448-.036a17.528,17.528,0,0,0-.234-2.952,9.122,9.122,0,0,0-.7-2.358,4.434,4.434,0,0,0-1.17-1.566,2.556,2.556,0,0,0-1.674-.576,2.627,2.627,0,0,0-1.692.576,4.167,4.167,0,0,0-1.17,1.566,9.64,9.64,0,0,0-.684,2.358,17.528,17.528,0,0,0-.234,2.952,16.892,16.892,0,0,0,.234,2.916,9.976,9.976,0,0,0,.684,2.34,3.985,3.985,0,0,0,1.17,1.566,2.682,2.682,0,0,0,1.692.558,2.682,2.682,0,0,0,1.692-.558,3.985,3.985,0,0,0,1.17-1.566,9.976,9.976,0,0,0,.684-2.34A16.892,16.892,0,0,0,208.98-8.928ZM13.572,43l-1.044-4.644H6.8L5.76,43H0L6.192,17.512h7.236L19.584,43ZM9.756,23.056H9.612L7.452,33.892h4.356Zm17.46,1.116V26.4h.108a5.252,5.252,0,0,1,1.422-2.016,3.7,3.7,0,0,1,2.5-.792,4.832,4.832,0,0,1,2.682.756,6.093,6.093,0,0,1,1.944,2.07,10.954,10.954,0,0,1,1.188,3.1,17.088,17.088,0,0,1,.414,3.87,18.476,18.476,0,0,1-.414,4,11.675,11.675,0,0,1-1.188,3.24,6.293,6.293,0,0,1-1.944,2.16,4.671,4.671,0,0,1-2.682.792,3.832,3.832,0,0,1-2.556-.792,4.212,4.212,0,0,1-1.3-1.8h-.072V51.64H21.78V24.172Zm-.108,9.4a13.022,13.022,0,0,0,.144,1.98,6.62,6.62,0,0,0,.45,1.638,3.066,3.066,0,0,0,.756,1.1,1.555,1.555,0,0,0,1.062.4,1.6,1.6,0,0,0,1.1-.4,3.066,3.066,0,0,0,.756-1.1,6.151,6.151,0,0,0,.432-1.638,15.761,15.761,0,0,0,0-3.978,6.137,6.137,0,0,0-.432-1.62,3.066,3.066,0,0,0-.756-1.1,1.6,1.6,0,0,0-1.1-.4,1.555,1.555,0,0,0-1.062.4,3.066,3.066,0,0,0-.756,1.1,6.619,6.619,0,0,0-.45,1.62A12.923,12.923,0,0,0,27.108,33.568ZM40.788,43V15.784h5.76V43ZM50.9,43V24.172h5.688V43Zm5.94-23.94a3.335,3.335,0,0,1-.864,2.322,3.088,3.088,0,0,1-4.464,0,3.335,3.335,0,0,1-.864-2.322,3.455,3.455,0,0,1,.234-1.278,3.514,3.514,0,0,1,.63-1.044,3,3,0,0,1,4.464,0,3.514,3.514,0,0,1,.63,1.044A3.455,3.455,0,0,1,56.844,19.06Zm15.012,22.5a5.236,5.236,0,0,1-1.944,1.476,7.184,7.184,0,0,1-5.9-.2,6.656,6.656,0,0,1-2.3-2.07A9.835,9.835,0,0,1,60.282,37.6a15.735,15.735,0,0,1-.486-4.032,15,15,0,0,1,.5-4.014,10.142,10.142,0,0,1,1.44-3.15,6.606,6.606,0,0,1,2.322-2.07,6.676,6.676,0,0,1,3.186-.738,6.064,6.064,0,0,1,4.536,1.872L69.516,29.86a2.5,2.5,0,0,0-.792-.792,1.952,1.952,0,0,0-1.044-.288,2.031,2.031,0,0,0-1.746,1.26,7.32,7.32,0,0,0-.7,3.528,7.371,7.371,0,0,0,.684,3.51,2.08,2.08,0,0,0,1.872,1.242,1.843,1.843,0,0,0,1.062-.306,2.4,2.4,0,0,0,.738-.81Zm9.72-6.768H80.568a6.434,6.434,0,0,0-1.188.108,2.524,2.524,0,0,0-1.008.414,2.188,2.188,0,0,0-.684.792,2.69,2.69,0,0,0-.252,1.242,2.344,2.344,0,0,0,.486,1.638,1.542,1.542,0,0,0,1.17.522,2,2,0,0,0,1.134-.324A2.385,2.385,0,0,0,81,38.338a4.348,4.348,0,0,0,.432-1.188,6.2,6.2,0,0,0,.144-1.314Zm.18,5.868a3.714,3.714,0,0,1-1.422,2.034,4.563,4.563,0,0,1-2.754.774,5.332,5.332,0,0,1-1.692-.288,4.343,4.343,0,0,1-1.584-.954,5.065,5.065,0,0,1-1.188-1.764,6.944,6.944,0,0,1-.468-2.718,6.529,6.529,0,0,1,.7-3.2,5.724,5.724,0,0,1,1.836-2.016,7.341,7.341,0,0,1,2.574-1.062,13.99,13.99,0,0,1,2.916-.306h.72v-.288a2.667,2.667,0,0,0-.63-1.98,2.3,2.3,0,0,0-1.674-.612,3.838,3.838,0,0,0-1.89.468,5.2,5.2,0,0,0-1.458,1.188L73.26,26.476a7.81,7.81,0,0,1,2.862-2.124,8.359,8.359,0,0,1,3.4-.756,8.15,8.15,0,0,1,3.24.576,5.206,5.206,0,0,1,2.16,1.692,7.121,7.121,0,0,1,1.188,2.718,16.939,16.939,0,0,1,.36,3.69V43H81.828V40.66Zm19.836.9a5.236,5.236,0,0,1-1.944,1.476,7.184,7.184,0,0,1-5.9-.2,6.656,6.656,0,0,1-2.3-2.07A9.835,9.835,0,0,1,90.018,37.6a15.735,15.735,0,0,1-.486-4.032,15,15,0,0,1,.5-4.014,10.142,10.142,0,0,1,1.44-3.15,6.605,6.605,0,0,1,2.322-2.07,6.676,6.676,0,0,1,3.186-.738,6.064,6.064,0,0,1,4.536,1.872L99.252,29.86a2.5,2.5,0,0,0-.792-.792,1.952,1.952,0,0,0-1.044-.288,2.031,2.031,0,0,0-1.746,1.26,7.32,7.32,0,0,0-.7,3.528,7.371,7.371,0,0,0,.684,3.51,2.08,2.08,0,0,0,1.872,1.242,1.843,1.843,0,0,0,1.062-.306,2.4,2.4,0,0,0,.738-.81Zm1.98,1.44V24.172h5.688V43Zm5.94-23.94a3.335,3.335,0,0,1-.864,2.322,3.088,3.088,0,0,1-4.464,0,3.335,3.335,0,0,1-.864-2.322,3.455,3.455,0,0,1,.234-1.278,3.514,3.514,0,0,1,.63-1.044,3,3,0,0,1,4.464,0,3.514,3.514,0,0,1,.63,1.044A3.455,3.455,0,0,1,109.512,19.06ZM128.124,33.6a14.437,14.437,0,0,1-.54,4.05,9.952,9.952,0,0,1-1.53,3.186,6.93,6.93,0,0,1-5.742,2.844,6.941,6.941,0,0,1-3.276-.756,7.471,7.471,0,0,1-2.466-2.088A9.527,9.527,0,0,1,113,37.654a14.437,14.437,0,0,1-.54-4.05,14.628,14.628,0,0,1,.54-4.068,9.713,9.713,0,0,1,1.548-3.2,7.239,7.239,0,0,1,2.466-2.088,7.145,7.145,0,0,1,9.036,2.088,9.931,9.931,0,0,1,1.53,3.2A14.628,14.628,0,0,1,128.124,33.6Zm-5.4-.036a12.923,12.923,0,0,0-.144-2,7.221,7.221,0,0,0-.432-1.62,2.9,2.9,0,0,0-.738-1.1,1.6,1.6,0,0,0-1.1-.4,1.555,1.555,0,0,0-1.062.4,2.9,2.9,0,0,0-.738,1.1,7.221,7.221,0,0,0-.432,1.62,13.933,13.933,0,0,0,0,4,7.221,7.221,0,0,0,.432,1.62,2.9,2.9,0,0,0,.738,1.1,1.555,1.555,0,0,0,1.062.4,1.6,1.6,0,0,0,1.1-.4,2.9,2.9,0,0,0,.738-1.1,7.221,7.221,0,0,0,.432-1.62A12.923,12.923,0,0,0,122.724,33.568Zm-1.116-11.412H117.72l3.24-5.184h4.68Zm15.336,2.016v2.664h.072a5.247,5.247,0,0,1,1.656-2.358,4.456,4.456,0,0,1,2.952-.99,4.137,4.137,0,0,1,4.1,2.448,8.159,8.159,0,0,1,.72,2.556,24.084,24.084,0,0,1,.18,2.988V43h-5.652V31.444a5.86,5.86,0,0,0-.342-2.088,1.317,1.317,0,0,0-1.35-.9,1.8,1.8,0,0,0-1.62.954,4.8,4.8,0,0,0-.576,2.5V43h-5.652V24.172ZM179.064,43h-6.12l-3.132-17.1h-.072l-3.1,17.1h-6.12l-4.788-25.488H161.6l2.628,17.748h.144l2.772-17.748h5.58l2.88,17.748h.108l2.592-17.748h5.58ZM190.3,35.008a5.48,5.48,0,0,0,.2,1.494,4.761,4.761,0,0,0,.522,1.224,2.621,2.621,0,0,0,.792.828,1.867,1.867,0,0,0,1.044.306,1.98,1.98,0,0,0,1.512-.612,4.434,4.434,0,0,0,.9-1.44l4.14,2.34a8.112,8.112,0,0,1-2.61,3.312,6.855,6.855,0,0,1-4.158,1.224,7.334,7.334,0,0,1-3.078-.648,6.964,6.964,0,0,1-2.484-1.926,9.239,9.239,0,0,1-1.656-3.15,14.3,14.3,0,0,1-.594-4.32,14.781,14.781,0,0,1,.558-4.194,9.532,9.532,0,0,1,1.584-3.2,7.278,7.278,0,0,1,2.43-2.034,6.684,6.684,0,0,1,3.1-.72,6.756,6.756,0,0,1,3.312.756,6.411,6.411,0,0,1,2.25,2.07,9,9,0,0,1,1.278,3.132,18.7,18.7,0,0,1,.4,3.978v1.584Zm4.248-3.672a5.981,5.981,0,0,0-.468-2.52,1.6,1.6,0,0,0-1.548-1.008,1.5,1.5,0,0,0-.99.342,2.957,2.957,0,0,0-.7.864,4.4,4.4,0,0,0-.432,1.152,5.273,5.273,0,0,0-.144,1.17ZM203,15.784h5.616v10.3h.108a3.36,3.36,0,0,1,1.35-1.764,4.062,4.062,0,0,1,2.394-.72,4.92,4.92,0,0,1,2.682.738,6.134,6.134,0,0,1,1.962,2.034,10.043,10.043,0,0,1,1.188,3.078,17.834,17.834,0,0,1,.4,3.87,18.477,18.477,0,0,1-.414,4,11.574,11.574,0,0,1-1.206,3.258,6.591,6.591,0,0,1-1.962,2.2,4.538,4.538,0,0,1-2.646.81,3.7,3.7,0,0,1-2.628-.846,5.226,5.226,0,0,1-1.332-2h-.072V43H203Zm5.328,17.784a13.023,13.023,0,0,0,.144,1.98,6.62,6.62,0,0,0,.45,1.638,3.066,3.066,0,0,0,.756,1.1,1.555,1.555,0,0,0,1.062.4,1.6,1.6,0,0,0,1.1-.4,3.066,3.066,0,0,0,.756-1.1,6.151,6.151,0,0,0,.432-1.638,15.761,15.761,0,0,0,0-3.978,6.137,6.137,0,0,0-.432-1.62,3.066,3.066,0,0,0-.756-1.1,1.6,1.6,0,0,0-1.1-.4,1.555,1.555,0,0,0-1.062.4,3.066,3.066,0,0,0-.756,1.1,6.618,6.618,0,0,0-.45,1.62A12.924,12.924,0,0,0,208.332,33.568Z" transform="translate(-20225 -16450)" fill="#fff"/></g></svg>