<svg xmlns="http://www.w3.org/2000/svg" xmlns:xlink="http://www.w3.org/1999/xlink" width="1080" height="1080" viewBox="0 0 1080 1080"><defs><linearGradient id="a" x2="1" y2="1" gradientUnits="objectBoundingBox"><stop offset="0" stop-color="#fe3b1f" stop-opacity="0.749"/><stop offset="1" stop-color="#f73b1f"/></linearGradient><clipPath id="c"><rect width="1080" height="1080"/></clipPath></defs><g id="b" clip-path="url(#c)"><path d="M5855,17402a548.705,548.705,0,0,1-55.212-2.789,540.14,540.14,0,0,1-53.618-8.184c-17.4-3.559-34.813-8.035-51.751-13.307-16.75-5.207-33.442-11.316-49.613-18.156-16.018-6.775-31.9-14.426-47.2-22.74-15.185-8.248-30.165-17.348-44.523-27.049-14.277-9.645-28.263-20.1-41.571-31.086-13.282-10.961-26.184-22.687-38.348-34.854-12.183-12.184-23.909-25.086-34.853-38.348-10.983-13.307-21.442-27.295-31.086-41.572-9.691-14.344-18.792-29.322-27.048-44.521-8.315-15.307-15.965-31.189-22.739-47.205-6.84-16.17-12.949-32.863-18.159-49.613-5.269-16.939-9.746-34.35-13.307-51.75a541.526,541.526,0,0,1-8.183-53.617,548.069,548.069,0,0,1,0-110.424,541.413,541.413,0,0,1,8.183-53.617c3.561-17.4,8.038-34.811,13.307-51.75,5.21-16.752,11.32-33.443,18.159-49.611,6.773-16.016,14.424-31.9,22.739-47.205,8.257-15.2,17.357-30.178,27.048-44.521,9.645-14.275,20.1-28.264,31.086-41.572,10.956-13.275,22.682-26.176,34.853-38.346s25.076-23.9,38.348-34.854c13.308-10.982,27.294-21.441,41.571-31.086,14.358-9.7,29.338-18.8,44.523-27.051,15.311-8.315,31.192-15.966,47.2-22.738,16.17-6.839,32.863-12.948,49.613-18.158,16.938-5.268,34.349-9.745,51.751-13.307a541.335,541.335,0,0,1,53.618-8.183,548.065,548.065,0,0,1,110.423,0,541.369,541.369,0,0,1,53.617,8.183c17.4,3.562,34.812,8.038,51.75,13.307,16.751,5.211,33.443,11.32,49.613,18.158,16.01,6.771,31.892,14.422,47.2,22.738,15.187,8.25,30.166,17.352,44.522,27.051,14.277,9.645,28.264,20.1,41.571,31.086,13.271,10.951,26.173,22.678,38.348,34.854s23.9,25.068,34.853,38.346c10.982,13.309,21.441,27.3,31.086,41.572,9.689,14.34,18.79,29.32,27.048,44.521,8.317,15.313,15.968,31.2,22.739,47.205,6.838,16.166,12.948,32.859,18.159,49.611,5.269,16.939,9.746,34.352,13.307,51.75a541.413,541.413,0,0,1,8.183,53.617,548.069,548.069,0,0,1,0,110.424,541.526,541.526,0,0,1-8.183,53.617c-3.561,17.4-8.038,34.811-13.307,51.75-5.21,16.752-11.319,33.445-18.159,49.613-6.771,16.01-14.421,31.893-22.739,47.205-8.259,15.2-17.359,30.182-27.048,44.521-9.645,14.277-20.1,28.266-31.086,41.572-10.946,13.266-22.672,26.166-34.853,38.348-12.164,12.166-25.066,23.893-38.348,34.854-13.307,10.982-27.293,21.441-41.571,31.086-14.357,9.7-29.336,18.8-44.522,27.049-15.305,8.314-31.187,15.965-47.2,22.74-16.17,6.84-32.863,12.949-49.613,18.156-16.938,5.271-34.349,9.748-51.75,13.307a540.2,540.2,0,0,1-53.617,8.184A548.681,548.681,0,0,1,5855,17402Zm75.267-582.293v0l9.764,16.246a100.8,100.8,0,0,0-25.668,33.781,99.652,99.652,0,0,0-1.331,81.3,100.736,100.736,0,0,0,21.286,31.469,100.556,100.556,0,0,0,31.405,21.363,98.912,98.912,0,0,0,38.355,8.064c.332,0,.67,0,1,0h.011a100.6,100.6,0,0,0,20.232-2.051,99.306,99.306,0,0,0,35.866-15.189,100.3,100.3,0,0,0,36.193-44.385,99.509,99.509,0,0,0,5.733-18.92,100.852,100.852,0,0,0,1.885-20.3,99.535,99.535,0,0,0-17.341-55.146,100.991,100.991,0,0,0-43.629-35.963,99.024,99.024,0,0,0-38.382-8c-.239,0-.478,0-.716,0a98.763,98.763,0,0,0-32.4,5.393l-25.7-42.885h64.361a18.7,18.7,0,0,0,18.744-18.744v-24.994a18.7,18.7,0,0,0-18.744-18.75h-35.384a18.713,18.713,0,0,0-13.9,6.172l-29.292,32.57-17.81-29.68a19.019,19.019,0,0,0-6.874-6.641,18.812,18.812,0,0,0-9.216-2.422h-62.488a12.536,12.536,0,0,0-12.5,12.5v12.494a12.533,12.533,0,0,0,12.5,12.5h51.862l15,24.994H5783.036a74.467,74.467,0,0,0-11.985-12.494,70.644,70.644,0,0,0-16.107-9.895,95.037,95.037,0,0,0-21.569-6.51,157.865,157.865,0,0,0-28.371-2.346h-43.35a19.346,19.346,0,0,0-13.821,5.824,18.573,18.573,0,0,0,.277,26.3,18.676,18.676,0,0,0,13.15,5.371H5705c16.586,0,28.8,6.336,37.336,19.369l-8.826,16.014a99.312,99.312,0,0,0-28.576-4.125c-1.168,0-2.408.021-3.686.063a99.1,99.1,0,0,0-53.217,17.811,100.9,100.9,0,0,0-34.84,42.555,99.225,99.225,0,0,0-8.173,37.189,101.215,101.215,0,0,0,1.638,20.555,99.509,99.509,0,0,0,14.663,36.545,100.283,100.283,0,0,0,44.235,37.15,99.7,99.7,0,0,0,19.006,5.988,100.875,100.875,0,0,0,20.438,2.088,100.2,100.2,0,0,0,96.854-74.986h65.768a18.75,18.75,0,0,0,18.745-19.605,119.125,119.125,0,0,1,10-53.443,117.7,117.7,0,0,1,14.057-23.795,119.232,119.232,0,0,1,19.841-20.4Zm74.65,154.75a62.518,62.518,0,0,1-57.848-86.1,61.838,61.838,0,0,1,12.646-19.439l38.585,64.361a12.29,12.29,0,0,0,4.638,4.5,12.644,12.644,0,0,0,12.543-.205l10.7-6.4a12.28,12.28,0,0,0,5.69-7.686,12.593,12.593,0,0,0-1.4-9.5l-37.96-63.186a60.064,60.064,0,0,1,12.42-1.254h.139a62.33,62.33,0,0,1,12.958,1.355,61.7,61.7,0,0,1,12.03,3.875,62.492,62.492,0,0,1-21.69,119.588C6007.215,16974.428,6006.051,16974.459,6004.918,16974.459Zm-299.913-.016a62.147,62.147,0,0,1-34.908-10.689,62.824,62.824,0,0,1-22.659-27.5,62.277,62.277,0,0,1,5.769-59.2,62.841,62.841,0,0,1,27.5-22.66,61.926,61.926,0,0,1,24.295-4.92,58.474,58.474,0,0,1,9.761.781l-32.415,58.895a18.769,18.769,0,0,0,16.4,27.807h63.5a63.087,63.087,0,0,1-22.681,27.006A62.039,62.039,0,0,1,5705,16974.443Z" transform="translate(-5315 -16322)" fill="url(#a)"/></g></svg>