<svg xmlns="http://www.w3.org/2000/svg" xmlns:xlink="http://www.w3.org/1999/xlink" width="1080" height="1080" viewBox="0 0 1080 1080"><defs><linearGradient id="a" x2="1" y2="1" gradientUnits="objectBoundingBox"><stop offset="0" stop-color="#fe3b1f" stop-opacity="0.749"/><stop offset="1" stop-color="#f73b1f"/></linearGradient><clipPath id="c"><rect width="1080" height="1080"/></clipPath></defs><g id="b" clip-path="url(#c)"><path d="M9305,17402a548.691,548.691,0,0,1-55.212-2.789,540.174,540.174,0,0,1-53.617-8.184c-17.4-3.559-34.812-8.035-51.751-13.307-16.752-5.207-33.444-11.316-49.613-18.156-16.018-6.775-31.9-14.426-47.205-22.74-15.188-8.25-30.168-17.352-44.523-27.049-14.277-9.645-28.264-20.1-41.57-31.086-13.277-10.957-26.18-22.684-38.349-34.854s-23.9-25.08-34.853-38.348c-10.982-13.309-21.441-27.295-31.086-41.572-9.686-14.336-18.787-29.314-27.049-44.521-8.318-15.314-15.969-31.2-22.739-47.205-6.84-16.172-12.948-32.863-18.158-49.613-5.268-16.936-9.745-34.346-13.307-51.75a541.238,541.238,0,0,1-8.183-53.617,548.069,548.069,0,0,1,0-110.424,541.413,541.413,0,0,1,8.183-53.617c3.563-17.4,8.039-34.814,13.307-51.75,5.21-16.75,11.319-33.441,18.158-49.611,6.771-16.008,14.421-31.891,22.739-47.205,8.262-15.207,17.363-30.186,27.049-44.521,9.645-14.275,20.1-28.262,31.086-41.572,10.961-13.281,22.688-26.182,34.853-38.346,12.18-12.18,25.082-23.906,38.349-34.854,13.307-10.982,27.293-21.441,41.57-31.086,14.354-9.7,29.335-18.8,44.523-27.051,15.312-8.315,31.193-15.966,47.205-22.738,16.168-6.838,32.86-12.947,49.613-18.158,16.938-5.269,34.351-9.745,51.751-13.307a541.325,541.325,0,0,1,53.617-8.183,548.06,548.06,0,0,1,110.423,0,541.325,541.325,0,0,1,53.617,8.183c17.4,3.562,34.813,8.038,51.75,13.307,16.75,5.21,33.442,11.319,49.612,18.158,16.012,6.772,31.894,14.423,47.205,22.738,15.186,8.25,30.165,17.352,44.522,27.051,14.277,9.645,28.264,20.1,41.57,31.086,13.27,10.949,26.172,22.676,38.348,34.854s23.9,25.072,34.853,38.346c10.982,13.309,21.441,27.3,31.086,41.572,9.69,14.342,18.791,29.322,27.049,44.521,8.315,15.307,15.966,31.189,22.739,47.205,6.839,16.17,12.948,32.861,18.158,49.611,5.268,16.936,9.744,34.346,13.307,51.75a541.413,541.413,0,0,1,8.183,53.617,548.069,548.069,0,0,1,0,110.424,541.238,541.238,0,0,1-8.183,53.617c-3.562,17.4-8.039,34.814-13.307,51.75-5.209,16.75-11.318,33.441-18.158,49.613-6.773,16.016-14.425,31.9-22.739,47.205-8.258,15.2-17.358,30.18-27.049,44.521-9.645,14.277-20.1,28.266-31.086,41.572-10.943,13.262-22.669,26.164-34.853,38.348-12.165,12.166-25.067,23.893-38.348,34.854-13.307,10.982-27.293,21.441-41.57,31.086-14.357,9.7-29.337,18.8-44.522,27.049-15.3,8.314-31.187,15.965-47.205,22.74-16.171,6.84-32.863,12.949-49.612,18.156-16.937,5.271-34.349,9.748-51.75,13.307a540.174,540.174,0,0,1-53.617,8.184A548.686,548.686,0,0,1,9305,17402Zm-226.878-446.168a23.379,23.379,0,0,0-23.439,23.439v109.377a23.373,23.373,0,0,0,23.439,23.434h453.123a23.374,23.374,0,0,0,23.439-23.434v-109.377a23.379,23.379,0,0,0-23.439-23.439H9387.985l-47.853,47.854a50.025,50.025,0,0,1-70.895,0l-47.854-47.854Zm78.319-156.248a19.352,19.352,0,0,0-11.211,3.469,19.86,19.86,0,0,0-8.043,19.434,19.369,19.369,0,0,0,5.483,10.4L9291.4,16981.52a18.588,18.588,0,0,0,6.228,4.121,19.067,19.067,0,0,0,14.209,0,18.59,18.59,0,0,0,6.226-4.121l148.533-148.633a19.366,19.366,0,0,0,5.486-10.4,19.857,19.857,0,0,0-8.042-19.434,19.344,19.344,0,0,0-11.21-3.469h-85.648v-164.064a23.368,23.368,0,0,0-23.435-23.434h-78.127a23.371,23.371,0,0,0-23.436,23.434v164.064Zm320.116,285.154a19.3,19.3,0,0,1-7.582-1.541,19.72,19.72,0,0,1-10.408-10.406,19.428,19.428,0,0,1,0-15.166,19.72,19.72,0,0,1,10.408-10.406,19.428,19.428,0,0,1,15.166,0,19.71,19.71,0,0,1,10.405,10.406,19.428,19.428,0,0,1,0,15.166,19.71,19.71,0,0,1-10.405,10.406A19.3,19.3,0,0,1,9476.56,17084.74Zm-62.5,0a19.3,19.3,0,0,1-7.582-1.541,19.714,19.714,0,0,1-10.407-10.406,19.416,19.416,0,0,1,0-15.166,19.714,19.714,0,0,1,10.407-10.406,19.428,19.428,0,0,1,15.166,0,19.708,19.708,0,0,1,10.409,10.406,19.416,19.416,0,0,1,0,15.166,19.708,19.708,0,0,1-10.409,10.406A19.3,19.3,0,0,1,9414.059,17084.74Z" transform="translate(-8765 -16322)" fill="url(#a)"/></g></svg>