<svg xmlns="http://www.w3.org/2000/svg" xmlns:xlink="http://www.w3.org/1999/xlink" width="1080" height="1080" viewBox="0 0 1080 1080"><defs><linearGradient id="a" x1="0.957" y1="-0.071" x2="-1.054" y2="1.917" gradientUnits="objectBoundingBox"><stop offset="0" stop-color="#fff" stop-opacity="0"/><stop offset="0.23" stop-color="#fff" stop-opacity="0.231"/><stop offset="0.95" stop-color="#fff"/></linearGradient><linearGradient id="b" x1="-0.06" y1="1.346" x2="1.774" y2="-1.53" gradientUnits="objectBoundingBox"><stop offset="0" stop-color="#010101" stop-opacity="0"/><stop offset="0.95" stop-color="#010101"/></linearGradient><linearGradient id="c" x1="1.184" y1="0.261" x2="-3.568" y2="1.92" xlink:href="#b"/><linearGradient id="d" x1="0.983" y1="0.227" x2="-3.35" y2="2.679" xlink:href="#b"/><linearGradient id="e" x1="0.341" y1="0.401" x2="0.731" y2="0.802" xlink:href="#b"/><linearGradient id="f" x1="0.012" y1="0.52" x2="0.993" y2="0.463" gradientUnits="objectBoundingBox"><stop offset="0" stop-color="#e4c5d5"/><stop offset="0.42" stop-color="#e9d3cf"/><stop offset="1" stop-color="#efe8ca"/></linearGradient><linearGradient id="g" x1="1.041" y1="0.914" x2="-0.497" y2="-0.106" xlink:href="#b"/><linearGradient id="h" x1="0.001" y1="0.5" x2="1" y2="0.5" xlink:href="#b"/><linearGradient id="i" x1="1.17" y1="-2.947" x2="-0.334" y2="15.921" xlink:href="#a"/><linearGradient id="j" x1="1.375" y1="-0.984" x2="-0.13" y2="17.883" xlink:href="#a"/><linearGradient id="k" x1="1.487" y1="2.177" x2="-0.018" y2="21.043" xlink:href="#a"/><linearGradient id="l" x1="0" y1="0.501" x2="1.001" y2="0.501" xlink:href="#f"/><linearGradient id="m" x1="-0.79" y1="0.161" x2="3.424" y2="1.471" xlink:href="#b"/><linearGradient id="n" x1="0.55" y1="-1.058" x2="0.339" y2="6.237" xlink:href="#b"/><clipPath id="p"><rect width="1080" height="1080"/></clipPath></defs><g id="o" clip-path="url(#p)"><path d="M9304,16081a547.513,547.513,0,0,1-68.288-4.277,540.689,540.689,0,0,1-377.377-230.705,282.785,282.785,0,0,0,31.058,34.193,387.408,387.408,0,0,0,36.05,29.841c9.989,7.328,20.525,14.452,31.317,21.172,19.438,12.13,35.884,20.969,51.753,27.816a234.9,234.9,0,0,0,27.448,9.952,183.811,183.811,0,0,0,28.543,5.939,203.23,203.23,0,0,0,24.84,1.4c13.72,0,27.715-1.08,41.248-2.124l.022,0,.036,0,.021,0c13.538-1.045,27.537-2.126,41.328-2.126,1.564,0,3.115.014,4.607.041a269.909,269.909,0,0,1,29.007,2.177c9.054,1.147,18.43,2.727,28.665,4.828,19.032,3.909,38.228,9.081,56.791,14.083l.019,0c15.1,4.068,30.705,8.274,46.158,11.783a393.537,393.537,0,0,0,46.76,8.019,647.806,647.806,0,0,0,65.819,3.568c54.427,0,98.6-8.207,131.292-24.393a140.544,140.544,0,0,0,25.884-16.376,112.484,112.484,0,0,0,20.728-21.762,107,107,0,0,0,8.058-13.1,111.585,111.585,0,0,0,6.321-14.686,123.571,123.571,0,0,0,4.438-16.35,144.109,144.109,0,0,0,2.4-18.095c1.367-19.489,6.262-41.538,14.965-67.406,5.9-17.486,13.757-37.3,24.015-60.559,9.158-20.771,19.42-42.481,29.343-63.477l.021-.044.007-.015c11.012-23.3,22.4-47.391,32.675-70.988,5.539-12.717,10.3-24.229,14.557-35.2,4.783-12.325,8.8-23.634,12.294-34.573,3.751-11.76,6.854-23.077,9.226-33.636a271.421,271.421,0,0,0,5.353-32.381,189.571,189.571,0,0,0,.675-30.812,141.076,141.076,0,0,0-4.81-28.929,258.077,258.077,0,0,0-16.471-43.255,277.858,277.858,0,0,0-23.437-39.331,313.667,313.667,0,0,0-29.432-35.372,361.625,361.625,0,0,0-34.457-31.369,441.205,441.205,0,0,0-80.1-50.573,524.387,524.387,0,0,0-88.557-34.083c-22.956-6.525-51.314-9.834-84.287-9.834-30.316,0-63.97,2.779-100.026,8.261-17.125,2.6-34.757,5.821-52.4,9.564-17.314,3.673-34.8,7.883-51.972,12.512-17,4.583-33.826,9.613-50.017,14.951s-31.848,11.02-46.541,16.884c-14.84,5.923-28.817,12.083-41.544,18.309a391.968,391.968,0,0,0-35.027,19.227,346.066,346.066,0,0,0-37.938,27.49,381.907,381.907,0,0,0-33.822,31.927,440.059,440.059,0,0,0-30.052,35.7c-9.144,12.081-18.1,25.141-26.626,38.815-8.063,12.935-15.986,26.819-23.548,41.267-7.1,13.568-14.1,28.055-20.812,43.058-12.017,26.863-23.4,55.923-34.81,88.838-5.893,17-10.347,30.99-14.017,44.042a405.2,405.2,0,0,0-10.182,45.046c-1.256,7.748-2.193,15.375-2.786,22.667-.629,7.718-.894,15.336-.788,22.642a203.132,203.132,0,0,0,1.557,22.521,181.188,181.188,0,0,0,4.249,22.309,176.941,176.941,0,0,0,6.188,19.344,188.394,188.394,0,0,0,8.231,18.375,536.35,536.35,0,0,1-68.9-199.4,547.539,547.539,0,0,1-2.148-128.544,541.35,541.35,0,0,1,8.183-53.616c3.562-17.4,8.038-34.812,13.307-51.75,5.206-16.741,11.315-33.434,18.158-49.612,6.776-16.021,14.427-31.9,22.739-47.205,8.252-15.19,17.353-30.17,27.048-44.522,9.646-14.277,20.105-28.264,31.086-41.571,10.955-13.273,22.681-26.175,34.853-38.347s25.07-23.895,38.348-34.853c13.3-10.979,27.289-21.437,41.57-31.087,14.354-9.7,29.334-18.8,44.523-27.048,15.31-8.316,31.19-15.967,47.2-22.739,16.164-6.837,32.856-12.947,49.612-18.159,16.938-5.269,34.351-9.745,51.751-13.307a541.35,541.35,0,0,1,53.616-8.183,548.069,548.069,0,0,1,110.424,0,541.35,541.35,0,0,1,53.616,8.183c17.4,3.562,34.813,8.038,51.751,13.307,16.756,5.212,33.448,11.322,49.612,18.159,16.014,6.772,31.9,14.423,47.2,22.739,15.189,8.251,30.169,17.352,44.523,27.048,14.28,9.648,28.267,20.107,41.57,31.087,13.276,10.957,26.179,22.683,38.348,34.853s23.9,25.073,34.853,38.347c10.98,13.308,21.439,27.294,31.086,41.571,9.7,14.353,18.8,29.332,27.048,44.522,8.313,15.3,15.963,31.185,22.739,47.205,6.84,16.17,12.949,32.861,18.158,49.612,5.269,16.937,9.745,34.348,13.307,51.75a541.35,541.35,0,0,1,8.183,53.616,548.06,548.06,0,0,1,0,110.423,541.413,541.413,0,0,1-8.183,53.617c-3.562,17.4-8.038,34.813-13.307,51.75-5.21,16.753-11.319,33.445-18.158,49.613-6.777,16.022-14.428,31.9-22.739,47.2-8.251,15.189-17.352,30.169-27.048,44.523-9.646,14.277-20.105,28.264-31.086,41.571-10.958,13.276-22.684,26.179-34.853,38.348s-25.077,23.9-38.348,34.853c-13.3,10.979-27.291,21.438-41.57,31.087-14.354,9.7-29.333,18.8-44.523,27.048-15.3,8.311-31.18,15.962-47.2,22.739-16.165,6.838-32.857,12.947-49.612,18.159-16.938,5.269-34.351,9.745-51.751,13.307a541.394,541.394,0,0,1-53.616,8.183A548.938,548.938,0,0,1,9304,16081Z" transform="translate(-8764 -15001)" fill="#fe3b1f"/><g transform="translate(53.59 188.995)"><path d="M803.673,390.886c-8.037,23.886-13.5,46.475-14.968,67.406C779.787,585,625.2,589.923,523.766,579.484c-70.223-7.242-136.782-39.545-207.4-40.893-37.436-.674-74.959,7.363-112.1,2.817-38.8-4.787-74.6-23.022-107.745-43.71C85.888,491.079,75.4,484.01,65.2,476.526a28.379,28.379,0,0,1,2.454-5.842c15.78-28.241,90.808-41.377,119.6-49.725,84.6-24.681,172.455-37.211,260.324-41.809C566.318,372.877,685.125,380.793,803.673,390.886Z" transform="translate(42.651 243.529)" fill="#fe3b1f" opacity="0.42" style="isolation:isolate"/><path d="M62.457,235a959.721,959.721,0,0,0-27.792,310.17c.743,10.076,2.437,21.535,10.871,27.118,4.546,2.99,10.215,3.63,15.659,3.923,62.67,3.457,122.091-25.32,178.245-53.372Q187.5,427.88,143.188,328.949c-14.449-32.32,20.74-111.686,7.622-144.559-3.163-7.9-47.7-4.113-59.957-2.333C74.745,184.372,64.375,227.564,62.457,235Z" transform="translate(18.518 99.793)" fill="#fe3b1f" opacity="0.24" style="isolation:isolate"/><path d="M485.284,436.079,209.37,581.261l-4.978,2.644S-.175,400.7,72.692,194.11L379.25,163a7.35,7.35,0,0,1,0,.8c-.674,13.084-7.726,183.585,98.723,266.771Q481.517,433.452,485.284,436.079Z" transform="translate(36.68 87.722)" fill="#fe3b1f"/><path d="M482,435.73l-44.211,23.264-231.7,121.918c-24.2-22.9-196.721-194.993-128.883-387.151L375.9,163.48c-.432,8.728-3.733,87.558,25.787,163.813,14.674,37.937,37.522,75.27,72.936,102.958Q478.235,433.1,482,435.73Z" transform="translate(39.962 88.072)" fill="url(#a)"/><path d="M207.365,227.29a32.561,32.561,0,0,0,16.972,3.249,19.5,19.5,0,0,0,14.5-8.642,8.21,8.21,0,0,0,1.383-5.323,10.372,10.372,0,0,0-1.175-3.128c-6.913-13.429-16.955-24.906-27.429-35.76a32.2,32.2,0,0,0-9.713-7.657c-5.462-2.368-17.75-2.558-21.915,2.7-3.612,4.58-1.365,14.933-.173,20.014C183.168,207.518,193.348,220.93,207.365,227.29Z" transform="translate(124.826 91.684)" opacity="0.26" fill="url(#b)"/><ellipse cx="28.138" cy="46.89" rx="28.138" ry="46.89" transform="translate(298.548 245.638) rotate(-30)" fill="#fe3b1f"/><ellipse cx="28.138" cy="46.89" rx="28.138" ry="46.89" transform="translate(298.548 245.638) rotate(-30)" fill="url(#c)"/><ellipse cx="25.824" cy="47.052" rx="25.824" ry="47.052" transform="translate(303.87 244.055) rotate(-29.887)" fill="url(#d)"/><path d="M197.972,171.32l48.567-30.73,22.8,29.728-44.108,43.209S191.025,220.371,197.972,171.32Z" transform="translate(138.678 71.4)" fill="#fe3b1f"/><path d="M197.972,171.32l48.567-30.73,22.8,29.728-44.108,43.209S191.025,220.371,197.972,171.32Z" transform="translate(138.678 71.4)" fill="url(#e)"/><path d="M267.57,187.1a11.494,11.494,0,0,1-2.4,1.832c-10.128,5.842-26.219-3.128-35.984-20.014s-9.454-35.293.674-41.187a10.87,10.87,0,0,1,2.281-1.054c10.128-3.457,24.681,5.41,33.7,21.069C274.743,163.141,275.3,179.855,267.57,187.1Z" transform="translate(156.897 60.722)" fill="#fe3b1f"/><path d="M373.824,289.622c1.193,16.523-2.714,52.507-8.936,67.872-3.941,9.679-9.333,13.36-13.257,23.039-3.163-31.819-1.21-77.914,3.457-109.543,1.123-7.622.277-16.523,2.057-23.73C365.873,258.909,372.769,274.983,373.824,289.622Z" transform="translate(250.147 149.093)" fill="#fe3b1f"/><path d="M310.45,323.211l11.736,196.375,21.414,3.146,9.765-149.1,8.866,148.759,21.207.674s9.869-150.246,7.674-161.255,0-46.1,0-46.1Z" transform="translate(221.279 198.948)" fill="#606161"/><path d="M393.128,382.034c-10.56,15.4-32.286,15.9-50.71,14.846-6.326-.363-12.963-.8-18.545-3.992-14-8.089-15.711-17.059-14.242-33.392-5.185-48.93-2.523-101.126,4.546-107.261A44.939,44.939,0,0,1,327,244.25a29.763,29.763,0,0,1,12.53-2.333,45.059,45.059,0,0,0,6.447-.294c9.212-.933,18.718-3.63,27.014-.259,5.773,2.333,10.612,6.637,15.279,10.871C395.652,258.8,401.425,369.936,393.128,382.034Z" transform="translate(218.71 143.599)" fill="#fe3b1f"/><path d="M344.413,265.765a45.055,45.055,0,0,1-6.447.294,29.762,29.762,0,0,0-12.531,2.333,22.744,22.744,0,0,0,0-6.5c-1.348-7-8.832-10.923-12.824-16.886a24.543,24.543,0,0,1-3.249-16.454c1.279-11.6,4.165-25.044,18.908-21.362,11.908,2.938,20.5,14.484,22.469,26.651C352.4,244.765,349.443,255.879,344.413,265.765Z" transform="translate(220.276 119.457)" fill="url(#f)"/><path d="M310.192,214.459c1.728,6,6.723,10.474,12.1,13.689a39.513,39.513,0,0,1,7.5,5.03c7.052,6.913,5.323,18.355,5.185,28.224,0,7,1.141,14.311,5.323,19.928,7.173,9.592,20.637,11.459,32.6,11.77a5.79,5.79,0,0,0,3.716-.743,4.908,4.908,0,0,0,1.607-3.007c2.351-11.01-8-21.311-7.173-32.545.484-6.343,4.494-11.891,5.79-18.13,1.9-9.039-2.178-18.442-8.175-25.459a24.525,24.525,0,0,0-8.953-7.069c-6.257-2.627-13.619-1.158-19.962-3.56-3.7-1.4-6.81-4.01-10.456-5.5C319.232,193.045,307.237,204.158,310.192,214.459Z" transform="translate(220.759 111.93)" fill="#606161"/><path d="M330.675,270.53s-9.99,21.259-26.375,33.7c0,0,1.625,62.895,27.55,68.08,0,0,12.219,5.392,34.256,1.5,0,0-28.518-8.642-26.789-37.592C342.341,285.515,330.675,270.53,330.675,270.53Z" transform="translate(216.8 166.041)" opacity="0.26" fill="url(#g)"/><path d="M308.85,448.682a3.457,3.457,0,0,0-1.21,2.489,2.939,2.939,0,0,0,.985,1.728,11.874,11.874,0,0,0,6.671,2.644,58.488,58.488,0,0,0,23.609-1.314,9.955,9.955,0,0,0,5.185-2.627c1.625-1.867,1.728-4.563,1.849-7.034l.225-8.538a4.648,4.648,0,0,0-.225-1.953c-.639-1.555-2.644-1.953-4.321-2.074a114.263,114.263,0,0,0-12.1-.225c-1.435,0-3.284-.208-4.425.709s-1.538,2.679-2.3,3.63C318.771,441.042,313.084,444.084,308.85,448.682Z" transform="translate(219.232 283.438)" fill="#606161"/><path d="M332.308,448.44a3.319,3.319,0,0,0-1.158,2.4,2.766,2.766,0,0,0,.951,1.728,11.32,11.32,0,0,0,6.429,2.541,56.517,56.517,0,0,0,22.832-1.262,9.575,9.575,0,0,0,4.96-2.541,10.491,10.491,0,0,0,1.728-6.775l.225-8.262a4.321,4.321,0,0,0-.225-1.884c-.622-1.521-2.558-1.884-4.183-2a106.6,106.6,0,0,0-11.753-.225c-1.383,0-3.163-.19-4.269.691s-1.486,2.575-2.23,3.457C341.9,441.06,336.387,444.033,332.308,448.44Z" transform="translate(236.356 283.714)" fill="#606161"/><path d="M299.51,299.42c-3.716,14.968-7.415,30.8-3.059,45.594a87.177,87.177,0,0,0,8.884,18.614l18.355,31.784a6.741,6.741,0,0,0,1.867,2.35,4.7,4.7,0,0,0,6.17-1.728,12.963,12.963,0,0,0,1.625-6.827c1.141-24.664-10.076-32.51-5.479-56.776,1.728-9.454,12.271-35.829,13.274-45.4s4.321-28.224-1.728-35.69C319.334,226.622,302.5,287.391,299.51,299.42Z" transform="translate(209.647 147.798)" fill="#fe3b1f"/><g transform="translate(383.646 186.652)" opacity="0.26"><path d="M265.593,187.1c-10.145,3.457-24.629-5.462-33.651-21.069s-9.454-32.044-1.728-39.355c10.128-3.457,24.681,5.41,33.7,21.069C272.765,163.141,273.319,179.855,265.593,187.1Z" transform="translate(-224.771 -125.93)" fill="url(#h)"/></g><rect width="198.795" height="15.555" rx="4.5" transform="matrix(0.99, -0.144, 0.144, 0.99, 170.133, 373.192)" fill="url(#i)"/><rect width="198.795" height="15.555" rx="4.5" transform="matrix(0.956, -0.292, 0.292, 0.956, 189.505, 455.576)" fill="url(#j)"/><rect width="198.795" height="15.555" rx="4.5" transform="translate(231.403 527.947) rotate(-26.21)" fill="url(#k)"/><path d="M321.645,351.118c2.714-.121,4.6-2.748,5.548-5.289a20.74,20.74,0,0,0-6.395-22.78,1.728,1.728,0,0,0-.951-.449c-.588,0-.951.6-1.21,1.123-2.316,4.667-7.363,11.252-6.274,16.679C313.09,344.032,317.428,351.308,321.645,351.118Z" transform="translate(222.563 203.967)" fill="url(#l)"/><path d="M342.483,366.777l-44.211,23.264a102.321,102.321,0,0,1-32.3-24.318c-9.195-10.249-15.158-24.422-12.1-37.937,1.538-7,5.41-13.377,6.913-20.377,1.849-8.642.138-17.56-2.748-25.925-2.523-7.311-5.341-16.817.726-21.6a7.761,7.761,0,0,1,3.457-1.728c14.674,37.937,37.522,75.27,72.936,102.958Q338.716,364.15,342.483,366.777Z" transform="translate(179.481 157.024)" opacity="0.26" fill="url(#m)"/><path d="M381.275,194.57,355.35,241.253l63.379-21.9Z" transform="translate(258.821 141.723)" fill="#fe3b1f" opacity="0.24" style="isolation:isolate"/><circle cx="128.779" cy="128.779" r="128.779" transform="translate(595.453 118.935)" fill="#fe3b1f" opacity="0.24" style="isolation:isolate"/><circle cx="128.779" cy="128.779" r="128.779" transform="translate(585.947 112.437)" fill="#fff"/><path d="M514.892,163.006a22.279,22.279,0,0,0,1.417,4.027,1.262,1.262,0,0,0,.294,1l1.054,4.01a1.849,1.849,0,0,0,.346,1.348l.761,4.667a1.279,1.279,0,0,0,.225,1.054l.432,4.995v7.76l-.467,6.015a3.785,3.785,0,0,0-.259,1.728l-1.123,6.049-.6,2.351-2.437,7.38-1.262,3.025a119.407,119.407,0,0,1-5.928,10.7l-5.289,7.052q-3.837,4.148-7.985,7.985l-7.052,5.289a111.334,111.334,0,0,1-10.7,5.928l-3.025,1.262-7.38,2.454-2.368.588L457.51,260.8a3.8,3.8,0,0,0-1.728.277l-6.015.449h-7.76l-4.684-.4a1.988,1.988,0,0,0-1.365-.259l-4.667-.778a1.849,1.849,0,0,0-1.348-.328l-4.01-1.054a1.417,1.417,0,0,0-1-.311,17.65,17.65,0,0,0-3.733-1.279l-1.348-.588-3.664-1.521-1.02-.518-2.938-1.452-1.435-.864-2.575-1.486a3.458,3.458,0,0,0-1.452-.933l-2.541-1.728c-.484-.346-.968-.691-1.435-1.054l-2.42-1.9a3.456,3.456,0,0,0-1.279-1.106l-2.454-2.23a1.435,1.435,0,0,0-.83-.76l-2.506-2.61-.951-1.054-2-2.333-1.037-1.331-2-2.7a3.819,3.819,0,0,0-.985-1.4,11.369,11.369,0,0,0-1.728-2.627l-.622-1.02-1.953-3.595-.415-.76-1.4-3.007a2.3,2.3,0,0,0-.639-1.348,17.721,17.721,0,0,0-1.4-3.7l-.432-1.383-1.175-3.664a2.04,2.04,0,0,0-.38-1.331,23.517,23.517,0,0,0-.968-4.373l-.19-1.383-.57-3.975a4.234,4.234,0,0,0-.259-2.022l-.173-4.684a3.215,3.215,0,0,0-.1-1.728,34.42,34.42,0,0,0,.225-5.341l.121-1.728c.259-1.728.536-3.595.8-5.41.138-.76.259-1.521.4-2.3l1.728-6.706a6.915,6.915,0,0,0,.743-2.333c1.244-2.921,2.472-5.842,3.716-8.745l1.97-3.7a78.14,78.14,0,0,1,16.61-19.6,106.061,106.061,0,0,1,10.232-7.242l3.682-1.97,8.745-3.716a6.239,6.239,0,0,0,2.351-.743l6.706-1.728,2.3-.38,5.41-.812,1.728-.121a34.564,34.564,0,0,0,5.341-.225,3.2,3.2,0,0,0,1.728.1l5.012.173a2.869,2.869,0,0,0,1.728.259l3.975.57,1.728.294a23.473,23.473,0,0,0,4.079.864,2,2,0,0,0,1.331.38l3.647,1.175,1.4.432a19.01,19.01,0,0,0,3.681,1.4,2.506,2.506,0,0,0,1.365.639l2.99,1.383c.173.311.484.346.778.432l3.595,1.953,1.02.622a12.391,12.391,0,0,0,2.627,1.728l1.4.985,2.8,1.9,1.331,1.037,2.333,2,1.054.951,2.61,2.506.76.83,2.247,2.454a3.249,3.249,0,0,0,1.089,1.279l1.918,2.42,1.037,1.417,1.936,2.852a2.471,2.471,0,0,0,.761,1.158l1.486,2.575.864,1.435,1.452,2.938.536,1.037,1.5,3.664Zm-75.1-13.827a3.025,3.025,0,0,0-.277,2.022c0,.726-.657.743-1.054,1.054a25.442,25.442,0,0,0-14.121,14.051,29.521,29.521,0,0,0-2.9,7.691,6.429,6.429,0,0,0-.5,2.351,27.655,27.655,0,0,0-1.123,6.395,3.318,3.318,0,0,0-.121,1.728,23.212,23.212,0,0,0-.328,5.358v1.728l-.467,5.375-.553,2.351c-.173.4-.346.812-.5,1.227a14.864,14.864,0,0,1-8.78,9.264,7.242,7.242,0,0,0-4.442,7.968,2.766,2.766,0,0,0,.553,1.728,5.081,5.081,0,0,0,2.351,3.076,1.383,1.383,0,0,0,1.02.657,6.171,6.171,0,0,0,4.373.881h21.518l5.012.086v.985a7.155,7.155,0,0,0,.622,4.355,1.365,1.365,0,0,0,.536,1.037,5.427,5.427,0,0,0,3.128,2.731,2.178,2.178,0,0,0,1.365.536,7.259,7.259,0,0,0,7.829-3.076,9.229,9.229,0,0,0,1.175-6.257l.4-.4h26.876a7.311,7.311,0,0,0,7.657-7.657,1.729,1.729,0,0,0-.225-1.383,5.012,5.012,0,0,0-1.728-3.336,1.348,1.348,0,0,0-.674-.761,10.041,10.041,0,0,0-3.56-1.918l-1.02-.674-2.333-2.091-1.054-1.279-1.728-3.042-.484-1.072-1.054-3.681-.259-1.728-.242-4.649v-1.728a28.276,28.276,0,0,0-.259-4.684,2.834,2.834,0,0,0-.242-1.728,14.016,14.016,0,0,0-.657-4.39l-.225-1.365a17.421,17.421,0,0,0-.9-3.63,3.456,3.456,0,0,0-.588-1.728,10.8,10.8,0,0,0-1.383-3.681,2.368,2.368,0,0,0-.622-1.4,9.626,9.626,0,0,0-1.607-3.025,2.506,2.506,0,0,0-.8-1.262,9.694,9.694,0,0,0-2-2.714,2.558,2.558,0,0,0-.968-1.089,8.642,8.642,0,0,0-2.35-2.281,1.487,1.487,0,0,0-.916-.726,8.641,8.641,0,0,0-3.025-2,3.958,3.958,0,0,0-1.728-.916c-.6-.674-2.091-.277-2.074-1.728a1.625,1.625,0,0,0-.225-1.348,4.961,4.961,0,0,0-1.728-3.37,3.041,3.041,0,0,0-1.4-1.244,5.323,5.323,0,0,0-3.664-1.158,3.457,3.457,0,0,0-2.368.225,6.672,6.672,0,0,0-5.2,5.375Z" transform="translate(267.5 53.599)" fill="#fe3b1f"/><path d="M381.275,189.07,355.35,235.753l63.379-21.9Z" transform="translate(258.821 137.717)" fill="#fff"/><path d="M268.646,459.859a117.2,117.2,0,0,1,70.015,18.718c5.081,3.3,10.145,7.1,16.126,8,8.244,1.227,16.108-3.3,23.4-7.311a253.74,253.74,0,0,1,199.106-18.182c11.234,3.7,24.2,11.269,23.35,23.056-.38,4.978-3.353,9.4-6.792,13.015-17.664,18.511-46.216,20-71.8,20.256l-165.922,1.728c-15.106.156-30.281.311-45.231-1.815-19.738-2.8-38.767-9.523-58.522-12.1-26.807-3.56-54.08.518-81.042-1.5A180.993,180.993,0,0,1,75.9,467.516c6.153-20.239,28.31-30.384,48.307-37.332,72.591-25.268,159.959-50.554,237.545-47.132C359.522,404.76,287.018,443.25,268.646,459.859Z" transform="translate(50.444 247.769)" opacity="0.26" fill="url(#n)"/></g></g></svg>