<svg xmlns="http://www.w3.org/2000/svg" xmlns:xlink="http://www.w3.org/1999/xlink" width="1080" height="1080" viewBox="0 0 1080 1080"><defs><linearGradient id="a" x1="3.966" y1="4.531" x2="3.366" y2="3.661" gradientUnits="objectBoundingBox"><stop offset="0" stop-opacity="0"/><stop offset="0.95"/></linearGradient><linearGradient id="b" x1="4.26" y1="6.243" x2="5.234" y2="6.243" xlink:href="#a"/><linearGradient id="c" x1="1.483" y1="2.341" x2="1.278" y2="1.849" gradientUnits="objectBoundingBox"><stop offset="0.02" stop-color="#fff" stop-opacity="0"/><stop offset="0.32" stop-color="#fff" stop-opacity="0.388"/><stop offset="0.68" stop-color="#fff" stop-opacity="0.678"/><stop offset="1" stop-color="#fff"/></linearGradient><linearGradient id="d" x1="2.752" y1="3.696" x2="2.149" y2="5.415" xlink:href="#c"/><linearGradient id="e" x1="0" y1="0.5" x2="1" y2="0.5" xlink:href="#c"/><linearGradient id="f" x1="0.745" y1="0.737" x2="0.078" y2="0.023" xlink:href="#c"/><linearGradient id="g" x1="9.9" y1="10.649" x2="9.654" y2="8.141" xlink:href="#c"/><linearGradient id="h" x1="11.728" y1="12.422" x2="11.483" y2="9.913" xlink:href="#c"/><linearGradient id="i" x1="0.589" y1="0.7" x2="0.308" y2="-0.052" xlink:href="#c"/><linearGradient id="j" x1="0.407" y1="0.761" x2="0.896" y2="0.022" gradientUnits="objectBoundingBox"><stop offset="0.02" stop-color="#fff" stop-opacity="0"/><stop offset="0.32" stop-color="#fff" stop-opacity="0.388"/><stop offset="0.66" stop-color="#fff" stop-opacity="0.678"/><stop offset="1" stop-color="#fff"/></linearGradient><clipPath id="l"><rect width="1080" height="1080"/></clipPath></defs><g id="k" clip-path="url(#l)"><circle cx="540" cy="540" r="540" fill="#fe3b1f"/><path d="M914.781,806.411C898.944,851.8,787.8,822.454,754.941,820.233q-46.27-3.126-92.592-4.65c-84.738-2.842-169.657-1.783-254.291,3.178q-30.1,1.731-60.169,4.159c-39.941,3.178-80.4,7.26-119.9,1.369-3.126-.465-6.278-.982-9.43-1.6-35.988-6.9-71.536-24.388-93.677-52.884a108.945,108.945,0,0,1-10.67-16.612c-21.081-40.69-13.977-89.8-23.871-134.522-8.835-39.941-31-75.541-44.617-114.138a276.923,276.923,0,0,1,183.556-358.1c67.79-19.815,141.29-13.253,208.745-34.05,71.2-22.011,130.491-72.88,201.072-96.88a287.928,287.928,0,0,1,191.358,2.816C902.251,45.061,967.2,119.491,944.258,192.6c-9.507,30.227-32.888,55.984-35.988,87.528-6.019,61.538,65,105.1,74.662,166.169,10.9,68.953-56.449,121.165-98.508,176.891-11.6,15.32-21.8,32.5-24.853,51.463C851.537,724.851,926.613,772.568,914.781,806.411Z" transform="translate(-6.543 123.784)" fill="rgba(255,255,255,0.25)"/><g transform="translate(52.467 124.254)"><path d="M229.419,133.933s26.119,6.769,23.251,14.028-14.881,14.674-31.57,23.251l.594,8.293s44.1-13.357,49.319-31.363a35.575,35.575,0,0,0-5.735-31Z" transform="translate(272.739 184.197)" fill="#fe3b1f"/><path d="M229.419,133.933s26.119,6.769,23.251,14.028-14.881,14.674-31.57,23.251l.594,8.293s44.1-13.357,49.319-31.363a35.575,35.575,0,0,0-5.735-31Z" transform="translate(272.739 184.197)" fill="url(#a)"/><path d="M235.438,112.9s-17.826,10.541-20.668,12.917-2.79,10.127,3.953,18.291c10.153,12.246,18.549,9.12,18.549,9.12l17.18-17.826Z" transform="translate(259.899 177.483)" fill="#fe3b1f"/><path d="M235.438,112.9s-17.826,10.541-20.668,12.917-2.79,10.127,3.953,18.291c10.153,12.246,18.549,9.12,18.549,9.12l17.18-17.826Z" transform="translate(259.899 177.483)" fill="url(#b)"/><path d="M216.21,190.278a233.6,233.6,0,0,1,63.373-69.444c43.2-31.751,107.008-55.286,128.3-48.569s-5.709,57.224-94.3,105.638c-1.886,1.008-14.6,8.009-16.56,8.861L235.405,212.6S223.831,212.031,216.21,190.278Z" transform="translate(264.996 111.317)" fill="#fe3b1f"/><path d="M216.21,190.278a233.6,233.6,0,0,1,63.373-69.444c43.2-31.751,107.008-55.286,128.3-48.569s-5.709,57.224-94.3,105.638c-1.886,1.008-14.6,8.009-16.56,8.861L235.405,212.6S223.831,212.031,216.21,190.278Z" transform="translate(264.996 111.317)" fill="url(#c)"/><path d="M287.052,107.007s-19.144-18.989-40.612-9.585-52.29,55.261-52.29,55.261l10.644.594s35.523-33.74,41.93-31,6.924,26.016,6.924,26.016,14.855-1.912,25.421-19.247S287.052,107.007,287.052,107.007Z" transform="translate(230.065 148.835)" fill="#fe3b1f"/><path d="M287.052,107.007s-19.144-18.989-40.612-9.585-52.29,55.261-52.29,55.261l10.644.594s35.523-33.74,41.93-31,6.924,26.016,6.924,26.016,14.855-1.912,25.421-19.247S287.052,107.007,287.052,107.007Z" transform="translate(230.065 148.835)" fill="url(#d)"/><path d="M604.136,631.23c-84.738-2.842-169.657-1.783-254.291,3.178q-30.1,1.731-60.169,4.159c-39.941,3.178-80.4,7.26-119.9,1.369-3.126-.465-6.278-.982-9.43-1.6-35.988-6.9-71.536-24.388-93.677-52.884,10.747-121.578,80.217-200.064,110.056-239.307C226.845,280.317,428.9,124.817,449.515,118.953h0c20.435-5.761,15.372,2.583,15.372,2.583l4.056,25.318h0c-4.03,2.764-321.384,222-173.61,358.871C373.07,577.727,494.984,613.559,604.136,631.23Z" transform="translate(28.203 183.856)" fill="url(#e)"/><path d="M149.806,441.016c-39.088,96,40.354,152.3,155.138,192.159q-30.1,1.731-60.169,4.159c-39.941,3.178-80.4,7.26-119.9,1.369-21.7-48.544-31-93.005-29.736-124.472,6.536-173.274,304.85-393.1,309.474-396.512h0l19.428,27.824h0C420.657,146.681,244.335,208.684,149.806,441.016Z" transform="translate(73.104 185.115)" fill="url(#f)"/><circle cx="14.287" cy="14.287" r="14.287" transform="translate(614.746 211.768)" fill="url(#g)"/><circle cx="11.936" cy="11.936" r="11.936" transform="translate(617.097 214.119)" fill="url(#h)"/><path d="M432.307,192.623c-25.835-12.013-55.855-15.863-83.085-7.75s-50.946,29.245-59.627,56.32c-2.4,7.492-3.772,15.5-8.4,21.96-5.968,8.215-16.147,12.039-24.078,18.42-24.7,19.867-20.384,62.365,3.229,83.524s59.213,23.82,89.853,15.708c32.113,36.039,85.952,51,132.067,36.685,8.991,13.615,28.677,16.56,44.048,11.057s27.436-17.413,38.959-28.987L600.44,364.3c19.66-19.712,39.527-39.734,53.452-63.838s21.365-53.22,14.261-80.088a80.088,80.088,0,0,0-124.11-44.565c-4.5-28.806-28.418-32.888-55.829-27.178C481.393,150.022,421.457,187.56,432.307,192.623Z" transform="translate(303.474 230.55)" fill="url(#i)"/><path d="M197.784,123.425c13.2-7.26,28.418-12.452,43.247-9.43s28.082,16.508,26.61,31.518a28.806,28.806,0,0,1,17.568,53.5c15.759,11.806,15.139,37.745,2.17,52.548s-34.309,19.764-53.943,18.317-38.365-8.4-57.3-13.77a32.6,32.6,0,0,0-15.837-1.628c-5.787,1.343-10.334,5.58-15.088,9.223A93.883,93.883,0,0,1,69.127,281.2a50.249,50.249,0,0,1-23.251-10.7c-9.016-8.086-13.124-20.41-14.493-32.449-3.694-32.423,12.917-68.075,43.377-80.088,0,0,4.082-16.922,5.167-18.885a51.2,51.2,0,0,1,13.9-16.586c10.334-8.035,23.742-12.271,36.014-16.25C153.658,98.443,190.963,87.515,197.784,123.425Z" transform="translate(-28.481 154.454)" fill="url(#j)"/></g></g></svg>