<svg xmlns="http://www.w3.org/2000/svg" xmlns:xlink="http://www.w3.org/1999/xlink" width="1080" height="1080" viewBox="0 0 1080 1080"><defs><linearGradient id="a" x1="0.111" y1="0.758" x2="0.52" y2="0.467" gradientUnits="objectBoundingBox"><stop offset="0.01"/><stop offset="0.83" stop-opacity="0.071"/><stop offset="1" stop-opacity="0"/></linearGradient><linearGradient id="b" x1="-0.23" y1="0.426" x2="0.851" y2="0.547" xlink:href="#a"/><linearGradient id="c" x1="-1.085" y1="-1.18" x2="0.646" y2="0.462" xlink:href="#a"/><linearGradient id="d" x1="-0.046" y1="-0.506" x2="0.727" y2="0.725" xlink:href="#a"/><linearGradient id="e" x1="0.498" y1="1.471" x2="0.502" y2="-0.615" gradientUnits="objectBoundingBox"><stop offset="0.01"/><stop offset="0.12" stop-opacity="0.749"/><stop offset="1" stop-opacity="0"/></linearGradient><linearGradient id="f" x1="0.381" y1="-0.199" x2="0.629" y2="1.155" xlink:href="#e"/><linearGradient id="g" x1="0.482" y1="1.326" x2="0.516" y2="-0.132" xlink:href="#e"/><linearGradient id="h" x1="-0.621" y1="0.936" x2="0.963" y2="0.32" xlink:href="#a"/><linearGradient id="i" x1="0.147" y1="1.462" x2="0.578" y2="0.406" xlink:href="#a"/><linearGradient id="j" x1="0.655" y1="-1.082" x2="0.387" y2="2.51" xlink:href="#a"/><clipPath id="l"><rect width="1080" height="1080"/></clipPath></defs><g id="k" clip-path="url(#l)"><circle cx="540" cy="540" r="540" fill="#fe3b1f"/><g transform="translate(-6.927 141.923)"><path d="M417.642,465.847s-48.5-25.245-75.508-31.809c-12.5-3.08-28.956-20.322-44.608-40.594-5.049-6.665-10.1-13.683-15.147-20.625,0,0-83.637-135.541-38.145-165.154,0,0,19.515-.429,30.294,5.377s34.46,54.933,38.423,63.618,47.082,89.191,49.96,91.009,7.7,8.432,24.942,17.672c21.1,11.36,54.277,44.633,54.277,44.633Z" transform="translate(323.533 253.123)" fill="#fe3b1f"/><path d="M417.642,465.847s-48.5-25.245-75.508-31.809c-12.5-3.08-28.956-20.322-44.608-40.594-5.049-6.665-10.1-13.683-15.147-20.625,0,0-83.637-135.541-38.145-165.154,0,0,19.515-.429,30.294,5.377s34.46,54.933,38.423,63.618,47.082,89.191,49.96,91.009,7.7,8.432,24.942,17.672c21.1,11.36,54.277,44.633,54.277,44.633Z" transform="translate(323.533 253.123)" fill="url(#a)"/><path d="M439.335,315.891q2.979-39.534,4.09-73.867c-6.362-3.358-13.986-7.3-20.2-10.1-18.909-9.013-45.29-21.155-62.2-28.906-9.9-4.544-19.59-7.876-19.59-7.876s-67.632-6.488-73.211-6.135a172.366,172.366,0,0,0-21.282,7.271c-23.958,9.114-70.207,27.618-77.553,32.819-10.8,7.725-49.43,196.912-50.49,209.914-1.01,12.471,52.535,29.562,102.091,42.664,0,19.186-.429,46.073-.858,70.687,0,4.191-.151,8.306-.227,12.294H436.836c-.3-4.216-.555-8.381-.757-12.294V550.8c-.833-16.611-4.065-46.4-3.231-75.407,0,0-.53-30.547,2.525-43.725C435.826,373.424,439.335,315.891,439.335,315.891ZM164.289,427.2c.328-24.639,33.147-70.51,33.147-70.51a16.055,16.055,0,0,1,1.54-.581s1.691-.227,1.691-.2,5.049-4.822,5.049-4.822c1.186,4.367,12.067,66.294,14.743,102.344C189.863,447.367,164.113,438.936,164.289,427.2Z" transform="translate(153.095 224.671)" fill="#fff"/><path d="M439.335,315.891q2.979-39.534,4.09-73.867c-6.362-3.358-13.986-7.3-20.2-10.1-18.909-9.013-45.29-21.155-62.2-28.906-9.9-4.544-19.59-7.876-19.59-7.876s-67.632-6.488-73.211-6.135a172.366,172.366,0,0,0-21.282,7.271c-23.958,9.114-70.207,27.618-77.553,32.819-10.8,7.725-49.43,196.912-50.49,209.914-1.01,12.471,52.535,29.562,102.091,42.664,0,19.186-.429,46.073-.858,70.687,0,4.191-.151,8.306-.227,12.294H436.836c-.3-4.216-.555-8.381-.757-12.294V550.8c-.833-16.611-4.065-46.4-3.231-75.407,0,0-.53-30.547,2.525-43.725C435.826,373.424,439.335,315.891,439.335,315.891ZM164.289,427.2c.328-24.639,33.147-70.51,33.147-70.51a16.055,16.055,0,0,1,1.54-.581s1.691-.227,1.691-.2,5.049-4.822,5.049-4.822c1.186,4.367,12.067,66.294,14.743,102.344C189.863,447.367,164.113,438.936,164.289,427.2Z" transform="translate(153.095 224.671)" fill="url(#b)"/><path d="M302.277,546.135c-1.414-10.275-2.777-20.55-3.989-30.6v-.126c-.379-3.357-.783-6.665-1.161-9.947v-.53c-1.59-13.834-2.9-27.113-3.862-39.256a125.827,125.827,0,0,1,1.212-27.315c3.787-62.154,5.655-127.69,5.655-127.69,1.994-26.81,3.13-51.9,3.888-75.256,0,0-84.9-40.14-92.6-42.437,0,0,16.106,37.868,28.174,122.363,4.645,32.465,13.228,87.1,19.489,142.888h0c3.383,30.092,9.719,60.765,14.516,87.9.757,4.191,1.439,8.28,2.1,12.294H304.12C303.439,554.339,302.858,550.224,302.277,546.135Z" transform="translate(294.167 230.747)" fill="#fe3b1f"/><path d="M310.064,450.361c3.332-31.43,6.362-62.785,4.9-79.977-11.714-138.167-44.835-174.722-49.632-180.074-3.736,1.414-17.874,6.715-22.014,8.356-22.721,8.937-68.844,25.245-75.079,29.789-10.78,7.725-53.343,206.2-54.631,219.027-.858,8.684,54.681,26.81,111.356,42.917-.53,15.551.934,37.464-4.216,60.336a52.481,52.481,0,0,0-2.525,11.991l78.992-.3c.48-4.09.985-8.179,1.464-12.294,1.515-12.345,3.08-24.993,4.645-38.448,23.68,6.135,39.786,10.1,39.786,10.1s22.266-37.615,28.729-52.863C373,466.391,344.347,459.651,310.064,450.361Zm-111.23-45.946a129.482,129.482,0,0,1,8.457-49.632c2.8,9.694,6.69,37.388,10.1,64.905C205.9,413.906,198.985,410.12,198.834,404.414Z" transform="translate(145.033 226.677)" fill="#fe3b1f"/><path d="M176.7,228.9s8.609-16.258,6.236-62.406c-.656-12.774,67.127,30.294,67.127,30.294s-.227,4.418-.379,10.351c0,2.525-.126,5.2-.126,7.977v6.059c0,1.237,0,3.08.151,4.544s.2,3.231.353,4.67a43.781,43.781,0,0,0,2.525,9.063C255.717,246.643,202.1,247.123,176.7,228.9Z" transform="translate(241.236 186.753)" fill="#e4aa8b"/><path d="M203.727,201.4l9.366,12.623c2.222,2.979,3.762,4.847,3.534,8.836a17.672,17.672,0,0,1-5.529,11.764,3.838,3.838,0,0,1-3.257,1.313,4.216,4.216,0,0,1-1.868-1.313,43.169,43.169,0,0,1-9.214-11.512c-1.338-2.928.328-5.3,1.489-8.179Z" transform="translate(271.061 243.584)" fill="#18202d"/><path d="M209.092,209.268c4.09,2.7,5.933,13.885,8.1,18.429,5.049,10.653,11.31,20.726,15.627,31.758,5.478,14.011,7.574,29.057,9.442,43.977q4.393,36.858,5.705,73.968c.656,18.353.732,36.782,3.509,54.934,1.742,11.411,4.494,23.377.353,34.131-3.156,8.2-9.9,14.415-16.586,20.2-5.251-4.62-10.679-9.517-13.279-16.005a44.129,44.129,0,0,1-2.525-11.739l-5.453-48.193c-1.994-17.823-4.014-35.621-5.554-53.494-1.111-12.623-1.969-25.245-1.944-37.868,0-11.007.732-22.014-.328-32.97-1.111-11.588-4.216-22.923-5.68-34.485-1.338-10.5-5.958-32.692,2.651-41.2C205.633,208.435,207.526,208.208,209.092,209.268Z" transform="translate(273.775 254.649)" fill="#18202d"/><path d="M229.716,198.085l-13.38,15.652s-21.484-4.165-27.77-15.374S229.716,198.085,229.716,198.085Z" transform="translate(258.452 231.247)" fill="#e4aa8b"/><path d="M215.655,189.78s-1.54,11.916-16.435,29.335l26.659,30.294-1.616-53.646Z" transform="translate(275.568 225.869)" fill="#fff"/><path d="M182.482,184.09s31.052,35.116,52.762,43.7l-15.45,35.873-44.2-65.637Z" transform="translate(239.544 217.194)" fill="#fff"/><path d="M215.655,189.78s-1.54,11.916-16.435,29.335l26.659,30.294-1.616-53.646Z" transform="translate(275.568 225.869)" fill="url(#c)"/><path d="M182.482,184.09s31.052,35.116,52.762,43.7l-15.45,35.873-44.2-65.637Z" transform="translate(239.544 217.194)" fill="url(#d)"/><path d="M259.762,370.327a26.558,26.558,0,0,1-8.23-1.54s-4.292-2.777-7.574-4.544a24.174,24.174,0,0,0-2.525-1.288,47.083,47.083,0,0,1-13.834-6.589c-5.428-4.115-23.1-20.651-23.1-20.651l11.436-17.672,5.251-17.394s41.2,4.115,46.7,7.372a17.047,17.047,0,0,1,1.489,1.01c4.393,3.206,6.311,7.574,8.407,9.391.783.732,7.952,8.407,7.574,11.512a10.25,10.25,0,0,1-5.377,8.432s-1.439,8.406-5.806,12.168a15.147,15.147,0,0,1-7.826,10.956S264.432,369.393,259.762,370.327Z" transform="translate(283.617 394.892)" fill="#e5ab8c"/><path d="M239.738,118.732s74.448-17.924,58.771,76.316-33.551,101.89-78.891,83.107S177.433,199.087,174.732,169.6,215.982,120.12,239.738,118.732Z" transform="translate(238.054 115.48)" fill="#e4a98a"/><path d="M196.26,148.058c-1.111-8.28-17.545-11.083-18.681,1.363s7.952,34.157,14.137,31.91S197.775,159.468,196.26,148.058Z" transform="translate(242.427 151.438)" fill="#e4a98a"/><path d="M295.934,315.9l-30.749,52.863s-81.416-21-100.425-26.356l43.523-51.677S272.229,305.347,295.934,315.9Z" transform="translate(223.033 379.769)" fill="#fe3b1f"/><path d="M239.189,209.553h0A71.242,71.242,0,0,1,183.65,174.74a82.526,82.526,0,0,0,55.186,24.21v6.059C238.836,206.246,239.114,208.215,239.189,209.553Z" transform="translate(251.831 202.94)" fill="#a07a64"/><rect width="423.513" height="39.054" rx="7.73" transform="translate(853.213 799.375) rotate(180)" fill="#fe3b1f"/><rect width="423.513" height="39.054" rx="7.73" transform="translate(853.213 799.375) rotate(180)" fill="url(#e)"/><path d="M248,437.954l6.438,20.726,273.2,16.611,77.831-197.367A17.343,17.343,0,0,0,589.34,254.22H357.791a55.918,55.918,0,0,0-51.98,35.343Z" transform="translate(349.934 324.109)" fill="#fe3b1f"/><path d="M248,437.954l6.438,20.726,273.2,16.611,77.831-197.367A17.343,17.343,0,0,0,589.34,254.22H357.791a55.918,55.918,0,0,0-51.98,35.343Z" transform="translate(349.934 324.109)" fill="url(#f)"/><path d="M247.84,468.689H528.061l73.918-187.471A16.485,16.485,0,0,0,586.655,258.7H366.745a53.015,53.015,0,0,0-49.354,33.576Z" transform="translate(349.69 330.938)" fill="#fe3b1f"/><path d="M247.84,468.689H528.061l73.918-187.471A16.485,16.485,0,0,0,586.655,258.7H366.745a53.015,53.015,0,0,0-49.354,33.576Z" transform="translate(349.69 330.938)" fill="url(#g)"/><path d="M204.659,201.95v85.505a16.51,16.51,0,0,1-16.51,16.51H49.3a16.536,16.536,0,0,1-16.51-16.51V201.95a19.567,19.567,0,0,1,.227-2.752l98.254,66.092,72.908-66.9a16.536,16.536,0,0,1,.48,3.56Z" transform="translate(21.843 238.995)" fill="#fff"/><path d="M212.938,204.674c-1.969-5.049-4.494-10.5-9.568-12.219-6.64-2.222-13.834,4.393-14.163,11.411s4.342,13.405,9.947,17.672a212.866,212.866,0,0,1-12.622,32.819,203.121,203.121,0,0,1-9.669-60.588c-2.524-.732-3.862-3.711-4.418-6.362-3.534-16.788,5.2-33.576,14.718-47.966A61.524,61.524,0,0,1,201.855,122.7c13.153-9.341,30.648-8.179,46.7-9.618,13.228-1.187,27.038-4.317,39.357.606a41.478,41.478,0,0,1,20.2,19.439,95.175,95.175,0,0,1,8.659,27.214,102.446,102.446,0,0,1,2.348,28.931,45.82,45.82,0,0,1-10.729,26.558c-1.767,1.944-6.362,4.241-8.482,2.7a96.59,96.59,0,0,0,2.853-25.094c-.252-7.271-.3-11.638-5.049-17.116a11.385,11.385,0,0,0-7.725-4.393c-2.9,0-5.63,1.59-8.508,1.691-5.226.227-9.214-4.342-13.784-6.892a20.726,20.726,0,0,0-18.53-.454,24.538,24.538,0,0,0-12.623,13.986c-1.313,3.661-2.525,8.331-6.362,9.164-5.049,1.06-8.785-6.261-13.153-3.358C213.139,188.769,213.341,200.584,212.938,204.674Z" transform="translate(233.525 105.778)" fill="#18202d"/><path d="M170.519,381.117l58.064,19.035S209.649,285.64,204.928,280.894,144.34,215.61,144.34,215.61s29.234,59.25,16.031,100.6" transform="translate(191.902 265.247)" fill="url(#h)"/><path d="M343.18,446.711l13.784-25.4s-212.312-64.577-215.139-68.844S145.358,239.6,145.358,239.6L113.6,372.339S180.424,411.04,343.18,446.711Z" transform="translate(145.039 301.82)" fill="url(#i)"/><path d="M213.462,325.114v56.095l-58.392.328s8.179-39.963,6.665-72.327Z" transform="translate(208.26 407.942)" fill="url(#j)"/><path d="M203.408,202.385l-72.908,66.9L32.17,203.293A16.536,16.536,0,0,1,48.453,189.56H187.3A16.485,16.485,0,0,1,203.408,202.385Z" transform="translate(20.897 225.533)" fill="#fff"/><circle cx="55.337" cy="55.337" r="55.337" transform="translate(297.037 106.294)" fill="#fff"/><path d="M143.221,128.456,128.15,86.65h75.281L191.49,127.37Z" transform="translate(186.937 115.223)" fill="#fff"/><path d="M135.06,106.34h42.589v3.484a11.663,11.663,0,0,1-11.663,11.663H146.723a11.663,11.663,0,0,1-11.663-11.663Z" transform="translate(197.471 145.24)" fill="#fff"/><g transform="translate(334.974 185.514)" opacity="0.42" style="isolation:isolate"><path d="M150.432,157.643a74.6,74.6,0,0,1-6.564-28,38.852,38.852,0,0,1,9.543-27.088A10.351,10.351,0,0,1,160.4,98.62a9.088,9.088,0,0,1,7.952,5.276,9.038,9.038,0,0,1,5.276-1.363c4.822.353,8.078,4.923,9.189,9.315a36.378,36.378,0,0,1,.353,12.623,148.469,148.469,0,0,1-7.447,32.819l-2.373-.833a144.963,144.963,0,0,0,7.3-32.339,33,33,0,0,0-.278-11.891c-.884-3.509-3.358-7.144-6.917-7.4a6.362,6.362,0,0,0-3.989,1.136c.151.379.278.732.4,1.111a31.557,31.557,0,0,1,1.111,14.466,10.553,10.553,0,0,1-2.928,6.337,5.6,5.6,0,0,1-4.292,1.388,4.393,4.393,0,0,1-3.105-1.641,6.337,6.337,0,0,1-1.086-3.433,24.488,24.488,0,0,1,4.191-16.005,16.837,16.837,0,0,1,2.525-2.979,6.942,6.942,0,0,0-5.806-4.317,8.154,8.154,0,0,0-5.276,3.156,36.858,36.858,0,0,0-8.861,25.245,72.353,72.353,0,0,0,6.362,27.063Zm16.99-49.733a13.253,13.253,0,0,0-1.565,1.919,22.316,22.316,0,0,0-3.787,14.365,4.266,4.266,0,0,0,.606,2.121,1.767,1.767,0,0,0,1.313.682,3.156,3.156,0,0,0,2.525-.783,8.053,8.053,0,0,0,2.1-4.847,29.007,29.007,0,0,0-1.01-13.3s-.151-.076-.177-.126Z" transform="translate(-143.838 -98.62)" fill="#fe3b1f"/></g><rect width="208.677" height="146.22" rx="5.59" transform="translate(599.903 273.115)" fill="#fff"/><rect width="41.655" height="38.322" transform="translate(608.89 311.916)" fill="#fe3b1f" opacity="0.42" style="isolation:isolate"/><rect width="41.655" height="38.322" transform="translate(659.052 311.916)" fill="#fe3b1f" opacity="0.42" style="isolation:isolate"/><rect width="41.655" height="38.322" transform="translate(608.89 358.292)" fill="#fe3b1f" opacity="0.42" style="isolation:isolate"/><rect width="41.655" height="38.322" transform="translate(659.052 358.292)" fill="#fe3b1f" opacity="0.42" style="isolation:isolate"/><rect width="41.655" height="38.322" transform="translate(707.321 311.916)" fill="#fe3b1f" opacity="0.42" style="isolation:isolate"/><rect width="41.655" height="38.322" transform="translate(757.458 311.916)" fill="#fe3b1f" opacity="0.42" style="isolation:isolate"/><rect width="41.655" height="38.322" transform="translate(707.321 358.292)" fill="#fe3b1f" opacity="0.42" style="isolation:isolate"/><rect width="41.655" height="38.322" transform="translate(757.458 358.292)" fill="#fe3b1f" opacity="0.42" style="isolation:isolate"/></g></g></svg>