<svg xmlns="http://www.w3.org/2000/svg" xmlns:xlink="http://www.w3.org/1999/xlink" width="1080" height="1080" viewBox="0 0 1080 1080"><defs><linearGradient id="a" x1="0.496" y1="-0.028" x2="0.531" y2="1.708" gradientUnits="objectBoundingBox"><stop offset="0" stop-opacity="0"/><stop offset="0.91" stop-opacity="0.8"/><stop offset="1"/></linearGradient><linearGradient id="b" x1="0.496" y1="-0.488" x2="0.507" y2="1.918" xlink:href="#a"/><linearGradient id="c" x1="0.497" y1="-0.084" x2="0.504" y2="1.265" xlink:href="#a"/><linearGradient id="d" x1="0.508" y1="0.69" x2="0.48" y2="0.048" xlink:href="#a"/><linearGradient id="e" x1="0.491" y1="0.16" x2="0.532" y2="1.661" xlink:href="#a"/><linearGradient id="f" x1="0.482" y1="0.198" x2="0.578" y2="1.807" xlink:href="#a"/><linearGradient id="g" x1="0.796" y1="0.574" x2="-0.212" y2="0.322" xlink:href="#a"/><linearGradient id="h" x1="0.451" y1="0.618" x2="0.744" y2="-0.088" xlink:href="#a"/><linearGradient id="i" x1="0.302" y1="0.974" x2="0.896" y2="-0.443" xlink:href="#a"/><linearGradient id="j" x1="0" y1="0.5" x2="1" y2="0.5" xlink:href="#a"/><linearGradient id="k" x1="0.402" y1="1.044" x2="0.843" y2="-0.657" xlink:href="#a"/><linearGradient id="l" x1="0.512" y1="-0.037" x2="0.48" y2="1.968" xlink:href="#a"/><linearGradient id="m" x1="0.147" y1="0.267" x2="0.022" y2="0.146" xlink:href="#a"/><linearGradient id="n" x1="1.112" y1="0.481" x2="0.115" y2="0.533" gradientUnits="objectBoundingBox"><stop offset="0" stop-color="#fff" stop-opacity="0"/><stop offset="1" stop-color="#fff"/></linearGradient><linearGradient id="o" x1="0.483" y1="-0.135" x2="0.496" y2="0.657" xlink:href="#a"/><linearGradient id="p" x1="0.527" y1="0.179" x2="0.486" y2="1.115" xlink:href="#a"/><linearGradient id="q" x1="0.728" y1="-0.361" x2="0.238" y2="1.432" xlink:href="#a"/><linearGradient id="r" x1="0.527" y1="-0.12" x2="0.505" y2="0.428" gradientUnits="objectBoundingBox"><stop offset="0" stop-color="#ecc4d7"/><stop offset="0.42" stop-color="#efd4d1"/><stop offset="1" stop-color="#f2eac9"/></linearGradient><linearGradient id="s" x1="0.28" y1="0.296" x2="0.999" y2="0.863" xlink:href="#a"/><linearGradient id="t" x1="0.491" y1="0.476" x2="1.144" y2="1.057" xlink:href="#a"/><linearGradient id="u" x1="0.661" y1="0.477" x2="-0.597" y2="0.61" xlink:href="#a"/><linearGradient id="v" x1="0.387" y1="0.433" x2="1.174" y2="0.866" xlink:href="#a"/><linearGradient id="w" x1="0.294" y1="0.136" x2="1.368" y2="2.351" xlink:href="#a"/><linearGradient id="x" x1="0.506" y1="0.68" x2="0.52" y2="1.133" xlink:href="#a"/><linearGradient id="y" x1="0" y1="0.5" x2="0.999" y2="0.5" xlink:href="#n"/><linearGradient id="z" x1="-0.801" y1="0.5" x2="0.677" y2="0.5" xlink:href="#n"/><linearGradient id="aa" x1="0.44" y1="0.398" x2="0.297" y2="0.002" xlink:href="#n"/><linearGradient id="ab" x1="0.494" y1="0.507" x2="1.373" y2="0.427" xlink:href="#n"/><linearGradient id="ac" x1="0.554" y1="-1.286" x2="0.406" y2="3.535" xlink:href="#a"/><linearGradient id="ad" x1="0.546" y1="-0.933" x2="0.373" y2="4.225" xlink:href="#a"/><linearGradient id="ae" x1="0.249" y1="0.327" x2="0.607" y2="0.549" xlink:href="#a"/><linearGradient id="af" x1="-0.068" y1="0.161" x2="2.764" y2="1.806" xlink:href="#a"/><linearGradient id="ag" x1="0.326" y1="0.356" x2="0.83" y2="0.786" xlink:href="#a"/><linearGradient id="ah" x1="-0.009" y1="0.093" x2="2.123" y2="1.796" xlink:href="#a"/><linearGradient id="ai" x1="0" y1="0.5" x2="1" y2="0.5" xlink:href="#a"/><linearGradient id="aj" x1="-0.001" y1="0.5" x2="1" y2="0.5" xlink:href="#a"/><linearGradient id="ak" x1="0.001" y1="0.5" x2="0.999" y2="0.5" xlink:href="#a"/><linearGradient id="am" x1="0.491" y1="0.481" x2="0.595" y2="-0.333" xlink:href="#a"/><linearGradient id="an" x1="0.485" y1="0.949" x2="0.558" y2="0.118" xlink:href="#a"/><linearGradient id="ao" x1="0.379" y1="0.373" x2="0.793" y2="0.638" xlink:href="#r"/><linearGradient id="ap" x1="0.533" y1="0.227" x2="0.336" y2="0.825" xlink:href="#r"/><linearGradient id="aq" x1="0.64" y1="-0.038" x2="0.129" y2="1.878" xlink:href="#a"/><linearGradient id="ar" x1="0.494" y1="0.033" x2="0.51" y2="1.493" xlink:href="#a"/><linearGradient id="as" x1="0.444" y1="0.308" x2="0.492" y2="0.701" xlink:href="#r"/><linearGradient id="at" x1="0" y1="0.501" x2="1" y2="0.501" xlink:href="#n"/><linearGradient id="au" x1="0.581" y1="0.808" x2="-0.197" y2="-0.696" xlink:href="#n"/><linearGradient id="av" x1="0" y1="0.5" x2="1" y2="0.5" xlink:href="#a"/><clipPath id="ax"><rect width="1080" height="1080"/></clipPath></defs><g id="aw" clip-path="url(#ax)"><circle cx="540" cy="540" r="540" fill="#fe3b1f"/><g transform="translate(201.348 196.461)"><path d="M5.316,691.634S-20.867,481.316,42.982,368.409,159.126,258.4,191.946,152.992,320.332-26.025,446.1,5.023,548.931,190.134,598.82,235.1,768.235,384.557,758.417,645Z" transform="translate(0 2.16)" fill="#fff" opacity="0.999"/><path d="M2.94,402.375l753.1-46.635s11.446,26.563-58.949,67.375S516.9,443.892,438.367,471.106,71.762,518.645,38.96,486.4,2.94,402.375,2.94,402.375Z" transform="translate(2.376 291.419)" fill="#fe3b1f"/><path d="M2.94,402.375l753.1-46.635s11.446,26.563-58.949,67.375S516.9,443.892,438.367,471.106,71.762,518.645,38.96,486.4,2.94,402.375,2.94,402.375Z" transform="translate(2.376 291.419)" fill="url(#a)"/><path d="M25.214,416.7a8.12,8.12,0,0,0-4.81,1.989c-3.743,4.1,3.2,9.439,8.661,10.488,50.866,9.765,103.432-.108,155.112,3.616-3.092.6-3.255,5.425-.85,7.486s5.895,1.9,9.041,1.7l253.878-15.913c18.661-1.157,37.539-2.387,55.314-8.155,9.747-3.183,19.059-7.7,28.932-10.452,15.3-4.249,31.536-4.141,46.924-8.047s86.091-23.073,97.519-34c-57.014,1.808-170.464,16.383-227.315,21.048a22.639,22.639,0,0,0,0,13.417l-129.4,3.616a36.491,36.491,0,0,1-12.151-1.031,61.921,61.921,0,0,1-9.041-4.43c-13.526-6.853-29.493-6.112-44.628-5.208C177.722,397.336,97.743,395.979,25.214,416.7Z" transform="translate(15.634 299.243)" fill="url(#b)"/><circle cx="72.475" cy="72.475" r="72.475" transform="translate(453.871 548.826)" fill="#fe3b1f"/><circle cx="72.475" cy="72.475" r="72.475" transform="translate(453.871 548.826)" fill="url(#c)"/><circle cx="72.475" cy="72.475" r="72.475" transform="translate(476.167 549.134)" fill="#fe3b1f"/><circle cx="72.475" cy="72.475" r="72.475" transform="translate(476.167 549.134)" fill="url(#d)"/><path d="M341.523,305.609a66.8,66.8,0,1,0,58.3,74.319,66.8,66.8,0,0,0-58.3-74.319Zm35.008,72.457a41.047,41.047,0,1,1-35.839-45.658,41.047,41.047,0,0,1,35.839,45.658Z" transform="translate(215.563 250.505)" fill="url(#e)"/><path d="M346.17,358.991a28.661,28.661,0,1,1-25.026-31.9,28.661,28.661,0,0,1,25.026,31.9Z" transform="translate(233.627 268.097)" fill="url(#f)"/><circle cx="72.475" cy="72.475" r="72.475" transform="translate(77.393 563.238)" fill="#fe3b1f"/><circle cx="72.475" cy="72.475" r="72.475" transform="translate(77.393 563.238)" fill="url(#g)"/><circle cx="72.475" cy="72.475" r="72.475" transform="translate(96.796 567.813)" fill="#fe3b1f"/><circle cx="72.475" cy="72.475" r="72.475" transform="translate(96.796 567.813)" fill="url(#h)"/><path d="M130.247,316.388a65.242,65.242,0,1,0,56.869,72.583A65.242,65.242,0,0,0,130.247,316.388Zm33.2,73.035a41.047,41.047,0,1,1-35.821-45.676,41.047,41.047,0,0,1,35.821,45.676Z" transform="translate(46.148 259.219)" fill="url(#i)"/><path d="M50.78,331.86,64.125,346,93.4,360.846s23.76,13.236,72.185,6.383l33.471-2.749s-7.233-20.7-13.707-24.122S62.28,317.43,62.28,317.43Z" transform="translate(41.043 260.455)" fill="url(#j)"/><path d="M125.656,296s-55.6-.145-76.616,31.1L129.6,373.682l97.085-5.569S186.521,311.207,125.656,296Z" transform="translate(39.637 243.134)" fill="#fe3b1f"/><path d="M226.715,368.071l-96.9,5.569h-.181L49,327.06c21.03-31.247,76.616-31.12,76.616-31.12a158.891,158.891,0,0,1,52.222,24.791A222.415,222.415,0,0,1,226.715,368.071Z" transform="translate(39.604 243.086)" fill="url(#k)"/><path d="M213.783,360.643l-96.9,5.569L65,336.232c21.012-31.247,76.616-31.1,76.616-31.1a137.787,137.787,0,0,1,23.326,8.173,222.413,222.413,0,0,1,48.841,47.34Z" transform="translate(52.536 250.514)" fill="url(#l)"/><path d="M543.013,431.9c-3.345,2.459-331.018,48.1-439.857-31.536-45.912-33.561,67.05-194.315,67.05-194.315,8.408-11.175,28.462,2.622,28.462,2.622l-.524,1.808-37.25,132.581a28.932,28.932,0,0,0,21.826,36.165c33.163,7.106,84.771,17.739,107.7,20.2,32.078,3.436,50.866-18.209,49.673-35.586-.814-11.772-3.11-39.6-4.521-56.363-.687-8.029-1.139-13.508-1.139-13.508s10.651-34.031,123.775-27.54,110.5,70.3,110.99,108.151S546.359,429.407,543.013,431.9Z" transform="translate(74.504 166.904)" fill="#fe3b1f"/><path d="M543.9,431.9c-3.327,2.459-331.018,48.1-439.839-31.536-45.93-33.561,67.05-194.315,67.05-194.315,8.39-11.175,28.444,2.622,28.444,2.622l-.524,1.808-37.25,132.581A28.932,28.932,0,0,0,183.6,379.228c33.163,7.106,84.771,17.739,107.7,20.2,32.1,3.436,50.866-18.209,49.673-35.586-.814-11.772-3.11-39.6-4.521-56.363-.669-8.029-1.139-13.508-1.139-13.508s10.651-34.031,123.775-27.54,110.5,70.3,110.99,108.151S547.243,429.407,543.9,431.9Z" transform="translate(75.229 166.904)" fill="url(#m)"/><path d="M285.141,255v58.949s0,2.929-.344,7.631c-17.124,21.084-21.916,48.009-23.128,64.79a17.811,17.811,0,0,1-9.041,2.224,12.423,12.423,0,0,1-7.92-3.11,11.084,11.084,0,0,0,5.425-2.459c9.041-11.139-10.271-108.1-10.271-108.1L221.78,262.269Z" transform="translate(179.254 209.996)" fill="url(#n)"/><path d="M315.077,222.315s96.886-13.019,106.94-7.9,15.8,59.473,15.8,59.473L249.89,293.162S283.632,221.085,315.077,222.315Z" transform="translate(201.974 176.228)" fill="#fe3b1f"/><path d="M315.077,222.315s96.886-13.019,106.94-7.9,15.8,59.473,15.8,59.473L249.89,293.162S283.632,221.085,315.077,222.315Z" transform="translate(201.974 176.228)" fill="url(#o)"/><path d="M342.762,426.641c-3.381,4.141-29.619,6.329-62.927,5.3a573.537,573.537,0,0,1-60.594-5.081c-40.83-5.732-79.274-16.491-92.89-34.067C93.8,350.731,169.857,203.72,169.857,203.72l7.233,5.1L139.84,341.4a28.932,28.932,0,0,0,21.826,36.165c33.163,7.106,84.771,17.739,107.7,20.2,32.078,3.436,50.866-18.209,49.673-35.586-.814-11.772-3.11-39.6-4.521-56.363l17.992,12.658S351.912,415.557,342.762,426.641Z" transform="translate(95.576 168.549)" fill="#fe3b1f"/><path d="M342.746,426.641a11.013,11.013,0,0,1-5.425,2.459c-9.927,2.513-31.554,3.616-57.466,2.857a570.04,570.04,0,0,1-60.612-5.1c-40.794-5.714-79.274-16.473-92.872-34.049-32.549-42.06,43.507-189.089,43.507-189.089l7.233,5.117-37.232,132.6A28.932,28.932,0,0,0,161.686,377.6c33.163,7.106,84.789,17.739,107.717,20.2,27.232,2.911,44.863-12.224,48.823-27.5a24.81,24.81,0,0,0,.814-8.083c-.814-11.754-3.128-39.619-4.521-56.363l17.992,12.658S351.9,415.575,342.746,426.641Z" transform="translate(95.592 168.549)" fill="url(#p)"/><path d="M112.087,236.19l34.556,2.911-15.551,38.245L98.67,272.319Z" transform="translate(79.75 190.887)" fill="#fe3b1f"/><path d="M112.08,237.59l30.324,2.532L128.752,273.7l-28.462-4.412Z" transform="translate(81.059 192.019)" fill="url(#q)"/><path d="M188.43,187.234s-29.529-14.954-40.179-9.728-8.752,13.381-8.752,13.381l13.508,18.083,24.05,6.148,17.956-8.824Z" transform="translate(112.644 146.465)" fill="url(#r)"/><path d="M278.024,132.94s-18.227,42.349-21.138,52.891-74.391,16.708-81.371,24.3a11.952,11.952,0,0,0-2.821,6.148c-1.3,7.613,2.821,16.618,2.821,16.618L186.2,247.89l97.157-11.247S292.364,155.326,278.024,132.94Z" transform="translate(139.374 111.341)" fill="#fe3b1f"/><path d="M283.378,233.475l-97.157,11.247-10.669-14.99s-4.141-9.041-2.839-16.636a12.278,12.278,0,0,1,1.3-3.906l8.011,11.247L279.2,209.19s4.466-40.559,2.043-72.33C290.846,165.756,283.378,233.475,283.378,233.475Z" transform="translate(139.391 114.509)" fill="url(#s)"/><path d="M278.506,212.358l-97.175,11.247-8.011-11.247a9.13,9.13,0,0,1,1.537-2.206c6.926-7.631,78.406-13.8,81.371-24.321s21.138-52.891,21.138-52.891a30.487,30.487,0,0,1,3.237,7.143C283.045,171.8,278.506,212.358,278.506,212.358Z" transform="translate(140.086 111.341)" fill="url(#t)"/><path d="M270.034,118.51s-32.856,12.007-38.642,26.093,10.416,106.687,8.137,159.325c-1.157,26.708,32.711,35.55,74.572,17.884S320.936,172.2,320.936,172.2,308.694,122.814,270.034,118.51Z" transform="translate(186.007 99.678)" fill="#fe3b1f"/><path d="M270.034,118.51s-32.856,12.007-38.642,26.093,10.416,106.687,8.137,159.325c-1.157,26.708,32.711,35.55,74.572,17.884S320.936,172.2,320.936,172.2,308.694,122.814,270.034,118.51Z" transform="translate(186.007 99.678)" fill="url(#u)"/><path d="M293.021,162.475a37.178,37.178,0,0,1,16.527-31.735,21.1,21.1,0,0,1,22.838,0c28.805,19.421,5.19,108.115.163,115.149-12.079,16.907-65.495,36.653-135,20.035,0,0-20.289-25.207-4.412-35.514s90.25,3.056,96-18.842C292.822,197.609,293.22,176.091,293.021,162.475Z" transform="translate(151.194 106.85)" fill="#fe3b1f"/><path d="M332.548,246c-12.079,16.889-65.495,36.653-135,20.035l-.506-.651c-3.038-4.032-18.263-25.532-3.906-34.881,15.895-10.307,90.25,3.074,96.018-18.824,3.616-14.032,4.069-35.55,3.87-49.184a37.159,37.159,0,0,1,16.527-31.735,20.415,20.415,0,0,1,11.03-3.327,21.446,21.446,0,0,1,11.808,3.418C361.191,150.16,337.575,238.909,332.548,246Z" transform="translate(151.195 106.887)" fill="url(#v)"/><path d="M328.09,246.005c-12.079,16.889-65.495,36.653-135,20.035l-.506-.651a12.658,12.658,0,0,1,5.985-9.783c15.894-10.307,86.8.344,103.866-14.466C333.3,214.488,316.9,152.356,316.12,127.42a21.446,21.446,0,0,1,11.808,3.418C356.733,150.168,333.117,238.917,328.09,246.005Z" transform="translate(155.653 106.879)" fill="url(#w)"/><path d="M195.06,186.75l-13.905,1.5s-2.441-.416,0,6.709,5.226,20.921,7.233,22.983,14.81.09,14.81.09,4.322-.922-.705-9.819S200.051,189.263,195.06,186.75Z" transform="translate(145.542 154.833)" fill="#fe3b1f"/><path d="M150,215.726l12.061,9.041s5.714,5.533,11.247,1.013a11.609,11.609,0,0,0,3.255-14.466c-1.917-3.345-13.291-8.155-14.99-8.372s-7.812-1.5-9.529,6.546S150,215.726,150,215.726Z" transform="translate(121.238 167.754)" fill="#fe3b1f"/><path d="M143.535,174.5s25.189,14.3,27.5,19.33,19.276,36.545,19.276,36.545l-17.4,11.645s-10.976-8.806-17.269-5.533-28.57.814-28.57.814S132.74,179.021,143.535,174.5Z" transform="translate(102.713 144.932)" fill="#fe3b1f"/><path d="M113.5,182.278a22.242,22.242,0,0,1,25.46-11.591c8.68,2.26,19.62,6.148,28.39,12.658,17.432,12.911,6.528,38.172,3.237,43.4S146.613,248.1,126.776,241.77C110.393,236.453,101.37,206.834,113.5,182.278Z" transform="translate(87.212 141.276)" fill="#fe3b1f"/><path d="M113.5,182.278a22.242,22.242,0,0,1,25.46-11.591c8.68,2.26,19.62,6.148,28.39,12.658,17.432,12.911,6.528,38.172,3.237,43.4S146.613,248.1,126.776,241.77C110.393,236.453,101.37,206.834,113.5,182.278Z" transform="translate(87.212 141.276)" fill="url(#x)"/><ellipse cx="13.634" cy="31.174" rx="13.634" ry="31.174" transform="translate(197.208 316.792)" fill="url(#y)"/><ellipse cx="11.229" cy="25.677" rx="11.229" ry="25.677" transform="translate(197.208 322.289)" fill="url(#z)"/><path d="M145.82,223.709s8.1-32.549,19.746-56.761c6.076-12.658,13.128-23.182,20.487-25.569,21.41-7,29.691-3.761,33.091,8.318s-11.808,36.4-27.558,31.03-16.274-16.6-23.507-9.891-18.95,52.873-18.95,52.873S151.426,229.243,145.82,223.709Z" transform="translate(117.859 115.215)" fill="#fe3b1f"/><path d="M143.3,213.7s3.96-37.521,3.472-42.168-14.611-7.721-17.341-13.092-10.343-17.45,0-30.2,26.057,9.041,23.236,28.516-6.98,60.251-6.98,60.251Z" transform="translate(100.359 104.468)" fill="#fe3b1f"/><path d="M145.82,223.709s8.1-32.549,19.746-56.761c6.076-12.658,13.128-23.182,20.487-25.569,21.41-7,29.691-3.761,33.091,8.318s-11.808,36.4-27.558,31.03-16.274-16.6-23.507-9.891-18.95,52.873-18.95,52.873S151.426,229.243,145.82,223.709Z" transform="translate(117.859 115.215)" fill="url(#aa)"/><path d="M143.3,213.7s3.96-37.521,3.472-42.168-14.611-7.721-17.341-13.092-10.343-17.45,0-30.2,26.057,9.041,23.236,28.516-6.98,60.251-6.98,60.251Z" transform="translate(100.359 104.468)" fill="url(#ab)"/><path d="M167.381,180.621,177.6,179.03l10.289,28.516-12.658,1.519S163.294,182.213,167.381,180.621Z" transform="translate(134.597 148.593)" fill="#fe3b1f"/><path d="M195.06,186.75l-13.905,1.5s-2.441-.416,0,6.709,5.226,20.921,7.233,22.983,14.81.09,14.81.09,4.322-.922-.705-9.819S200.051,189.263,195.06,186.75Z" transform="translate(145.542 154.833)" fill="url(#ac)"/><path d="M167.381,180.621,177.6,179.03l10.289,28.516-12.658,1.519S163.294,182.213,167.381,180.621Z" transform="translate(134.597 148.593)" fill="url(#ad)"/><path d="M383.856,213.68s-164.026,7.088-175.4,34.013S169,371.7,169,371.7l35.767,5.732L235.073,282s122.961,1.212,136.848-15.84S383.856,213.68,383.856,213.68Z" transform="translate(136.594 176.599)" fill="#fe3b1f"/><path d="M371.886,266.155c-9.132,11.265-66.092,14.574-103.577,15.5-19.167.47-33.272.344-33.272.344l-30.306,95.44-16.654-2.676L169,371.7s27.956-97.085,39.4-124.01S383.8,213.68,383.8,213.68,385.7,249.1,371.886,266.155Z" transform="translate(136.594 176.599)" fill="url(#ae)"/><path d="M287.683,228l-27.9,42.042c-19.167.47-33.272.344-33.272.344L196.2,365.825l-16.654-2.676s25.6-91.1,35.858-112.31S272.82,228,272.82,228Z" transform="translate(145.121 188.173)" fill="url(#af)"/><path d="M234.46,244.673,357.077,213.68s10.849,61.607-25.93,71.679-79.744,9.62-79.744,9.62l-17.45,91.389-31.843.995s6.311-124.48,11.555-130.194S234.46,244.673,234.46,244.673Z" transform="translate(163.356 176.599)" fill="#fe3b1f"/><path d="M358.281,241.358c-1.23,17.775-7.233,38.516-27.124,43.995-36.726,10.072-79.726,9.62-79.726,9.62l-17.45,91.389-16.093.524-15.768.488s6.347-124.5,11.573-130.194S234.506,244.7,234.506,244.7l122.6-30.993a127.611,127.611,0,0,1,1.175,27.648Z" transform="translate(163.364 176.623)" fill="url(#ag)"/><path d="M351.233,229C350,246.775,344,267.516,324.109,272.995c-36.726,10.072-79.726,9.62-79.726,9.62L226.933,374l-16.093.524c2.152-36.635,6.437-101.262,10.18-105.385,5.244-5.732,20.813-12.477,20.813-12.477Z" transform="translate(170.412 188.981)" fill="url(#ah)"/><path d="M293.226,290.147S252.4,312.117,246.7,391.155L455.191,368.39s12.278-42.874-22.766-83.776C420.147,270.382,326.516,275.066,293.226,290.147Z" transform="translate(199.395 227.017)" fill="url(#ai)"/><path d="M343.632,277.27s-55.676,25.677-62.692,77.013l-3.49,28.932L250.327,384.9a121.149,121.149,0,0,1,.253-15.876c1.212-16.8,6-43.705,23.11-64.79C287.161,287.631,310.505,278.807,343.632,277.27Z" transform="translate(202.206 227.996)" fill="url(#aj)"/><rect width="58.877" height="6.04" rx="1.67" transform="matrix(0.997, -0.077, 0.077, 0.997, 554.948, 547.587)" fill="url(#ak)"/><rect width="58.877" height="6.04" rx="1.67" transform="matrix(0.997, -0.077, 0.077, 0.997, 555.867, 559.487)" fill="url(#ak)"/><path d="M185.674,301.979s-27.449-5.172-31.156.976a70.234,70.234,0,0,0-6.148,15.081l63.144,10.614,7.974-22.82Z" transform="translate(119.92 246.323)" fill="#fe3b1f"/><path d="M185.674,301.979s-27.449-5.172-31.156.976a70.234,70.234,0,0,0-6.148,15.081l63.144,10.614,7.974-22.82Z" transform="translate(119.92 246.323)" fill="url(#am)"/><path d="M220.34,310.11s-29.872,5.985-37.033,12.857-1.808,15.5-1.808,15.5l69.817-4.123L247.7,309.26Z" transform="translate(145.143 253.852)" fill="#fe3b1f"/><path d="M220.34,310.11s-29.872,5.985-37.033,12.857-1.808,15.5-1.808,15.5l69.817-4.123L247.7,309.26Z" transform="translate(145.143 253.852)" fill="url(#an)"/><path d="M266.64,98.06l2.857,36.979s-6.04,18.788-24.972,20.415c0,0-5.7,3.164-8.3-3.888L230.8,130.735Z" transform="translate(186.544 83.149)" fill="url(#ao)"/><path d="M202.64,70.093s2.532,92.384,30.9,94.481,37.973-7.034,46.725-17.486c17.7-21.211,19.674-62.023,0-67.394S221.952,39.064,202.64,70.093Z" transform="translate(163.784 50.341)" fill="url(#ap)"/><path d="M320.624,163.046a40.649,40.649,0,0,1-25.008,7.341h-.524a48.825,48.825,0,0,1-10.542-1.32s2.079-36.581-.561-51.1c-1.935-10.651-48.3-17.3-72.818-20.09A16.564,16.564,0,0,1,196.7,83.157a18.084,18.084,0,0,1,0-2.8c.723-10.958,2.73-20.849,8.354-27.54a63.56,63.56,0,0,1,43.995-22.151c16.274-1.284,39.257.253,60.83,13.67a90.189,90.189,0,0,1,8.553,5.949C358.868,82.488,336.157,151.473,320.624,163.046Z" transform="translate(158.942 28.38)" fill="#fe3b1f"/><path d="M295.591,146.76h-.524a48.823,48.823,0,0,1-10.542-1.32s2.079-36.581-.561-51.1c-1.935-10.651-48.3-17.3-72.818-20.09A16.455,16.455,0,0,1,196.68,59.53c2.911.344,89.129,10.651,95.476,22.115S295.591,146.76,295.591,146.76Z" transform="translate(158.967 52.007)" fill="url(#aq)"/><path d="M273.589,118.593l2.152,3.327s-6.817,17.45-24.556,19.366-17.9.6-17.54-1.989,9.041,2.532,16.835-4.846c4.973-4.665,11.609-11.844,15.8-16.473a4.611,4.611,0,0,1,7.305.615Z" transform="translate(188.781 98.022)" fill="#fe3b1f"/><path d="M273.589,118.593l2.152,3.327s-6.817,17.45-24.556,19.366-17.9.6-17.54-1.989,9.041,2.532,16.835-4.846c4.973-4.665,11.609-11.844,15.8-16.473a4.611,4.611,0,0,1,7.305.615Z" transform="translate(188.781 98.022)" fill="url(#ar)"/><path d="M208.325,192.384c-.705,1.013-20.524-1.175-32.946-6.871s-27.015,5.027-28.01,14.086-4.539,22.983,0,27.847,8.734,3.617,8.535,2.043-1.32-13.273,9.584-11.265,14.086,9.728,20.958,11.916,29.2-11.717,29.2-11.717Z" transform="translate(117.287 152.545)" fill="url(#as)"/><path d="M321.2,172.58" transform="translate(259.61 143.38)" fill="#fff"/><path d="M198.405,81.551a6.438,6.438,0,0,0,.651,2.387,6.763,6.763,0,0,0,2.3,2.3,18.318,18.318,0,0,0,9.439,3.038,37.5,37.5,0,0,0,6.672-.579L228.73,87.03a43.759,43.759,0,0,1-2.5-5.931,37.431,37.431,0,0,0,17.341,4.069,79.23,79.23,0,0,1,8.788-.108A36.943,36.943,0,0,1,264.3,89.146c1.32.633,3.273,1.067,3.942-.235.181-.362.217-.8.488-1.067a1.374,1.374,0,0,1,1.157-.271,18.083,18.083,0,0,1,5.027,2.061A4.249,4.249,0,0,0,279.939,89a3.508,3.508,0,0,0-.362-4.1,10.054,10.054,0,0,0-3.617-2.5,160.644,160.644,0,0,0-34.7-12.025,132.889,132.889,0,0,0-18.516-2.73c-5.226-.38-12.423-1.483-17.522,0S197.863,76.85,198.405,81.551Z" transform="translate(160.298 57.959)" fill="#232e30"/><path d="M309.931,44.334a9.837,9.837,0,0,1-5.19-.289,70.214,70.214,0,0,0-78.659,30.921c-2.4,3.906-3.924,9.8-7.558,12.658-4.521,3.617-10.578,2.1-15.786,1.483a37.6,37.6,0,0,0-4.286-.235,16.274,16.274,0,0,1-1.808-5.8,18.088,18.088,0,0,1,0-2.8c.723-10.958,2.73-20.849,8.354-27.54a63.56,63.56,0,0,1,44.1-22.061C265.3,29.38,288.359,30.917,309.931,44.334Z" transform="translate(158.894 28.38)" fill="url(#at)"/><path d="M270,368.521s13.363-67.412,67.3-87.7,86.6,21.554,89.852,34.357c0,0-53.886-28.408-81.1-2.532s-47.014,61.788-47.014,61.788Z" transform="translate(218.228 226.452)" fill="url(#au)"/><path d="M251.6,362.025l23.29,3.87,143.449-20.668-3.074-14.086L250.23,345.226Z" transform="translate(202.249 267.63)" fill="url(#av)"/></g></g></svg>