<svg xmlns="http://www.w3.org/2000/svg" xmlns:xlink="http://www.w3.org/1999/xlink" width="1080" height="1080" viewBox="0 0 1080 1080"><defs><linearGradient id="a" y1="0.5" x2="1" y2="0.5" gradientUnits="objectBoundingBox"><stop offset="0" stop-color="#010101" stop-opacity="0"/><stop offset="0.95" stop-color="#010101"/></linearGradient><linearGradient id="b" x1="0.202" y1="1.05" x2="1.014" y2="-0.412" xlink:href="#a"/><linearGradient id="c" x1="0.646" y1="0.304" x2="-0.276" y2="1.543" xlink:href="#a"/><linearGradient id="d" x1="0.475" y1="0.567" x2="0.923" y2="-0.624" gradientUnits="objectBoundingBox"><stop offset="0" stop-color="#fff" stop-opacity="0"/><stop offset="0.66" stop-color="#fff"/></linearGradient><linearGradient id="e" x1="0.572" y1="0.252" x2="0.392" y2="0.885" xlink:href="#a"/><linearGradient id="f" x1="0.499" y1="-0.265" x2="0.506" y2="2.708" xlink:href="#a"/><linearGradient id="g" x1="0.877" y1="-0.981" x2="-0.691" y2="5.229" xlink:href="#a"/><linearGradient id="h" x1="0.366" y1="0.191" x2="1.316" y2="2.388" xlink:href="#a"/><linearGradient id="i" x1="0.102" y1="-0.389" x2="2.92" y2="5.546" xlink:href="#a"/><linearGradient id="j" x1="0.514" y1="0.107" x2="0.375" y2="3.369" xlink:href="#a"/><linearGradient id="k" x1="-0.116" y1="0.113" x2="1.08" y2="0.895" xlink:href="#a"/><linearGradient id="l" x1="0.967" y1="0.494" x2="-0.882" y2="0.52" xlink:href="#a"/><linearGradient id="m" x1="0.185" y1="-0.025" x2="0.846" y2="1.688" xlink:href="#a"/><linearGradient id="n" x1="0.428" y1="-0.406" x2="0.539" y2="1.034" xlink:href="#a"/><linearGradient id="o" x1="0.463" y1="-0.768" x2="0.525" y2="1.324" xlink:href="#a"/><linearGradient id="p" x1="0" y1="0.5" x2="1" y2="0.5" xlink:href="#a"/><linearGradient id="q" x1="0.89" y1="-0.141" x2="-0.42" y2="2.054" xlink:href="#a"/><linearGradient id="r" x1="-0.011" y1="0.838" x2="0.734" y2="0.3" xlink:href="#a"/><linearGradient id="s" x1="3.966" y1="-0.237" x2="4.464" y2="-1.19" xlink:href="#d"/><linearGradient id="t" x1="1.03" y1="0.436" x2="-0.734" y2="0.685" xlink:href="#a"/><linearGradient id="u" x1="0.102" y1="0.989" x2="0.963" y2="0.164" xlink:href="#d"/><linearGradient id="v" x1="0.466" y1="0.471" x2="1.208" y2="-0.249" xlink:href="#d"/><linearGradient id="w" x1="1.002" y1="0.354" x2="-1.484" y2="1.008" xlink:href="#a"/><linearGradient id="x" x1="1.005" y1="0.354" x2="-1.482" y2="1.009" xlink:href="#a"/><linearGradient id="y" x1="-0.319" y1="-0.072" x2="1.835" y2="1.581" xlink:href="#a"/><clipPath id="aa"><rect width="1080" height="1080"/></clipPath></defs><g id="z" clip-path="url(#aa)"><circle cx="540" cy="540" r="540" fill="#fe3b1f"/><g transform="translate(33.787 149.758)"><path d="M1021.942,568.922a306.741,306.741,0,0,1-37.761,113.627c-35.195,61.1-93.713,109.012-161.479,128.486-83.085,23.9-172.221,4.9-254.885-20.527S402.8,732.89,316.341,730.4c-54.631-1.647-110.582,8.617-163.317-5.993-53.711-14.84-97.944-56.335-120.635-107.231a189.933,189.933,0,0,1-15.089-51.7c-6.051-43.2,1.781-86.953,5.745-130.382,4.519-48.829,4.213-98.251,14.917-146.084s34.218-95.264,75.388-121.842c86.57-55.837,205.961,1.589,302.852-33.472,65.679-23.706,116.327-88.523,186.1-91.032,87.432-3.121,230.337,73.319,285.887,139.784,32.438,38.795,54.918,84.866,76.115,130.8,24.51,53.041,47.967,107.48,56.7,165.213A328.624,328.624,0,0,1,1021.942,568.922Z" transform="translate(-15.03 -42.52)" fill="#fff" opacity="0.24" style="isolation:isolate"/><path d="M1013.674,380.876A306.741,306.741,0,0,1,975.914,494.5c-35.195,61.1-93.713,109.012-161.479,128.486-83.085,23.9-172.221,4.9-254.885-20.527s-165.021-57.618-251.477-60.107c-54.631-1.647-110.582,8.617-163.317-5.994C91.044,521.521,46.811,480.027,24.12,429.13a67.3,67.3,0,0,1,7.219-6.587c47.641-37.282,122.014-26.578,177.487-41.188,37.32-9.842,71.175-29.565,105.757-46.741A854.025,854.025,0,0,1,584.94,252.39c46.741-6.051,95.742-7.947,139.42,9.957,67.211,27.478,116.021,99.285,188.478,103.976,19.551,1.283,39.1-2.681,58.652-1.647C986.732,365.538,1002.99,370.44,1013.674,380.876Z" transform="translate(-6.762 145.526)" fill="#fff" opacity="0.24" style="isolation:isolate"/><path d="M427.023,260.065S600.2,418.327,561.2,471.081C529.7,513.725,445,543.616,413.753,553.516a30.638,30.638,0,0,1-22.691-1.7l-187.9-91.8a8.885,8.885,0,0,1,2.6-16.755c38.393-5.745,103.172-18.44,122.148-40.978C355.446,369.595,225.849,242.87,225.849,242.87Z" transform="translate(152.495 140.722)" fill="#fe3b1f"/><path d="M427.023,260.065S600.2,418.327,561.2,471.081C529.7,513.725,445,543.616,413.753,553.516a30.638,30.638,0,0,1-22.691-1.7l-187.9-91.8a8.885,8.885,0,0,1,2.6-16.755c38.393-5.745,103.172-18.44,122.148-40.978C355.446,369.595,225.849,242.87,225.849,242.87Z" transform="translate(152.495 140.722)" fill="url(#a)"/><path d="M427.669,253.757s173.16,158.262,134.173,211.016c-31.518,42.644-116.193,72.534-147.539,82.434a30.638,30.638,0,0,1-22.691-1.7l-187.9-91.759a8.885,8.885,0,0,1,2.6-16.755c38.393-5.745,103.172-18.44,122.148-40.978C356,363.325,226.4,236.6,226.4,236.6Z" transform="translate(152.999 134.986)" fill="#fe3b1f"/><path d="M259.6,341.363,454,442.85s30.1-17.234,35.272-29.24S299.18,310.4,299.18,310.4l-26.387,18.057Z" transform="translate(208.666 202.502)" fill="url(#b)"/><path d="M586.464,672.277,183.159,468.346c-17.693-8.942-28.589-25.487-28.589-43.371V99.163c0-38.546,47.641-62.654,85.747-43.371L643.679,259.8c17.693,8.942,28.589,25.487,28.589,43.371V628.887C672.211,667.49,624.531,691.54,586.464,672.277Z" transform="translate(112.58 -36.634)" fill="#fe3b1f"/><path d="M672.23,303.193V628.909c0,22.6-16.372,40.212-37.588,47.048a63.573,63.573,0,0,1-48.158-3.657L183.14,468.349c-17.674-8.961-28.57-25.506-28.57-43.371V99.185c0-16.219,8.425-29.852,21.063-38.756A63.19,63.19,0,0,1,240.374,55.8L643.679,259.8C661.315,268.764,672.23,285.27,672.23,303.193Z" transform="translate(112.58 -36.636)" fill="url(#c)"/><path d="M655.762,307.489V633.2c0,16.257-8.464,29.891-21.063,38.814a63.573,63.573,0,0,1-48.158-3.657l-403.4-203.95c-17.674-8.961-28.57-25.506-28.57-43.371V95.247c0-16.219,8.425-29.852,21.063-38.756a63.3,63.3,0,0,1,48.331,3.6L627.193,264.1C644.867,273.06,655.762,289.566,655.762,307.489Z" transform="translate(112.58 -32.698)" fill="url(#d)"/><path d="M230.246,199.236,581.333,377.316a12.466,12.466,0,0,1,6.74,12.332h0a12.446,12.446,0,0,1-17.827,9.976l-388.1-188.019a12.447,12.447,0,0,1-6.779-13.653l1.3-6.587a12.446,12.446,0,0,1,16.353-9.306S229.748,198.987,230.246,199.236Z" transform="translate(131.382 84.44)" fill="url(#e)"/><path d="M592.626,261.263,315.241,401.583c-18.057,9.153-49.575,7.985-70.409-2.528L76.9,314.132c-14.208-7.2-19.761-16.851-16.161-25.18,2.2,5.323,7.659,10.532,16.161,14.859l140.856,71.232,20.412,10.264,6.664,3.408a15.819,15.819,0,0,0,2.24,1.034,28.963,28.963,0,0,0,2.834,1.264,24.624,24.624,0,0,0,2.662,1.015,13.157,13.157,0,0,0,1.915.632c1.168.4,2.374.785,3.6,1.13a30.026,30.026,0,0,0,3.657.977,33.536,33.536,0,0,0,3.83.823c2.528.479,5.113.919,7.659,1.225.766.1,1.551.191,2.374.23s1.915.192,2.968.249c13.634.823,27.076-1.13,36.669-5.993L582.4,256.15Z" transform="translate(25.764 152.871)" fill="#fe3b1f"/><path d="M592.626,261.263,315.241,401.583c-18.057,9.153-49.575,7.985-70.409-2.528L76.9,314.132c-14.208-7.2-19.761-16.851-16.161-25.18,2.2,5.323,7.659,10.532,16.161,14.859l140.856,71.232,20.412,10.264,6.664,3.408a15.819,15.819,0,0,0,2.24,1.034c.919.44,1.915.881,2.834,1.264a24.612,24.612,0,0,0,2.662,1.015c.651.249,1.283.44,1.915.632,1.168.4,2.374.785,3.6,1.13s2.432.67,3.657.977,2.528.574,3.83.823c2.528.479,5.113.919,7.659,1.226.766.1,1.608.191,2.374.23s1.915.192,2.968.249c13.634.823,27.076-1.13,36.669-5.993L582.4,256.15Z" transform="translate(25.764 152.871)" fill="url(#f)"/><path d="M582.407,314.572,315.248,449.722c-15.434,7.851-40.71,8.138-60.758,1.36a45.5,45.5,0,0,1-7.41-2.911,15.827,15.827,0,0,1-2.24-1.034l-6.664-3.408-20.412-10.264L76.907,362.156c-8.5-4.328-13.959-9.574-16.161-14.859-3.1-7.659.44-15.319,11.164-20.776L337.25,192.29l179.421,89.423,36.382,18.172Z" transform="translate(25.757 94.449)" fill="#fe3b1f"/><path d="M106.066,296.752c-.4,4.94,2.815,9.574,6.97,12.389a41.742,41.742,0,0,0,13.94,5.074c31.748,7.468,64.435,14.955,96.681,10.015a11.163,11.163,0,0,0,6.759-2.757c1.915-2.145,2.068-5.4,3.294-8.062,2.566-5.63,9.574-7.659,15.817-7.659s12.5,1.436,18.5-.115,11.489-7.659,9.344-13.557c-1.379-3.715-5.227-5.745-8.827-7.43a221.624,221.624,0,0,0-97.466-20.47c-14.017.383-20.412,4.787-32.169,10.953C129.466,280.093,107.2,283.022,106.066,296.752Z" transform="translate(68.175 160.179)" fill="url(#g)"/><path d="M426.226,196.52l36.42,18.153L164.027,365.812l-.728.383-6.664-3.313-8.923-4.442L127.07,348.272l.249-.1Z" transform="translate(116.201 179.738)" fill="url(#h)"/><path d="M392.649,214.225l-.881.44a42.686,42.686,0,0,0-7.008-4.385Z" transform="translate(323.168 110.907)" fill="url(#i)"/><path d="M392.649,214.225l-.881.44a42.686,42.686,0,0,0-7.008-4.385Z" transform="translate(323.168 110.907)" fill="#fe3b1f"/><path d="M655.762,461.936v30.81c0,16.257-8.464,29.891-21.063,38.814A63.573,63.573,0,0,1,586.54,527.9l-403.4-203.95c-17.674-8.961-28.57-25.506-28.57-43.371V208.219l1.8-1.379Z" transform="translate(112.58 107.76)" fill="url(#j)"/><path d="M432.836,309.22,249.968,215.6c-18.134-9.287-33.606-34.467-34.467-56.392l-.46-10.532c-.938-21.868,13-32.055,31.135-22.768l182.868,93.617C447.178,228.8,462.65,254,463.512,275.921l.46,10.532C464.91,308.3,450.97,318.507,432.836,309.22Z" transform="translate(167.861 30.58)" fill="#fe3b1f"/><path d="M247.75,179.475a38.563,38.563,0,0,0,.287-5.362V153.93a48.464,48.464,0,0,0-.287-5.61c1.685,1.053,2.987,1.915,5.3,3.2l7.908,4.6c7.161,4.136,11.087,9.976,11.087,16.468s-4.117,8.2-11.125,4.136L255.18,173.4v4.768a56.982,56.982,0,0,0,.287,5.745Zm12.849-9.287c2.528,1.455,4.021.862,4.021-1.7a7.162,7.162,0,0,0-4.021-6.242l-5.381-3.045v7.947Z" transform="translate(197.825 54.223)" fill="#fff"/><path d="M289.861,200.914a42.578,42.578,0,0,0-.862-4.519l-.977-3.83-10.3-5.974-.957,2.6a15.16,15.16,0,0,0-.919,3.523l-8.444-4.825a20.1,20.1,0,0,0,1.723-3.542l7.813-17.923A13.978,13.978,0,0,0,278.123,163l9.44,5.476a45.031,45.031,0,0,0,1.225,4.749l7.832,27c.689,2.374,1.264,4.251,1.743,5.572Zm-7.047-28.723-3.351,9.249,6.8,3.945Z" transform="translate(215.802 67.653)" fill="#fff"/><path d="M308.607,209.19a48.688,48.688,0,0,0,.287,5.745l-7.889-4.576a44.16,44.16,0,0,0,.287-5.362V198.1L293,179.184c-.651-1.551-1.455-3.236-2.891-6.2l9.134,5.3a31.634,31.634,0,0,0,1.7,4.9l4,9.9,4-5.208a8.368,8.368,0,0,0,1.666-2.987l9.153,5.362c-1.053.957-2.432,2.3-2.891,2.834l-8.272,9.306Z" transform="translate(236.578 76.784)" fill="#fff"/><path d="M130.771,249.695l-1.091-.517,7.008-14.591a18.077,18.077,0,0,1,2.642-4.385,9.383,9.383,0,0,1,4.079-2.681,3.829,3.829,0,0,1,1.13-.211,2.8,2.8,0,0,1,1.666.728,8.157,8.157,0,0,1,2.317,5.323,41.073,41.073,0,0,1-.555,14.266l-1.187-.249a39.617,39.617,0,0,0,.555-13.844,7.008,7.008,0,0,0-1.915-4.576,1.494,1.494,0,0,0-.919-.44h0a1.915,1.915,0,0,0-.67.134,8.138,8.138,0,0,0-3.562,2.355,16.983,16.983,0,0,0-2.451,4.1Z" transform="translate(89.809 126.487)" fill="#fe3b1f"/><path d="M160.326,236.61q.249,9.383.728,18.785a101.949,101.949,0,0,0,3.562,25.391,2.807,2.807,0,0,1-1.685,4.327c-7.008,3.236-14.17,6.491-21.829,7.391a73.32,73.32,0,0,1-20.01-1.321,1.647,1.647,0,0,1-.728-.249c-.421-.345-.345-1.015-.23-1.551,1.513-7.391.536-15.089,1.647-22.557s4.4-14.553,7.659-21.465c1.417-3.006,3.025-3.006,6.262-3.676l11.719-2.413C148.492,239.042,160.326,236.936,160.326,236.61Z" transform="translate(80.992 134.995)" fill="#fe3b1f"/><path d="M160.326,236.61q.249,9.383.728,18.785a101.949,101.949,0,0,0,3.562,25.391,2.807,2.807,0,0,1-1.685,4.327c-7.008,3.236-14.17,6.491-21.829,7.391a73.32,73.32,0,0,1-20.01-1.321,1.647,1.647,0,0,1-.728-.249c-.421-.345-.345-1.015-.23-1.551,1.513-7.391.536-15.089,1.647-22.557s4.4-14.553,7.659-21.465c1.417-3.006,3.025-3.006,6.262-3.676l11.719-2.413C148.492,239.042,160.326,236.936,160.326,236.61Z" transform="translate(80.992 134.995)" fill="url(#k)"/><path d="M154.394,190.28c-3.581.613-5.859,4.079-7.659,7.219a81.9,81.9,0,0,0-7.334,14.8,72.627,72.627,0,0,0-2.987,16.353c-.67,7.142-1.091,14.285-1.264,21.465,0,2.26.153,4.979,2.145,6.089a4.213,4.213,0,0,0,4.711-.823A10.55,10.55,0,0,0,144.571,251c1.915-5.208,2.662-10.761,4.749-15.874,1.321-3.274,3.14-6.319,4.615-9.574a48.427,48.427,0,0,0,.957-36.171Z" transform="translate(94.813 91.787)" fill="#fe3b1f"/><path d="M154.394,190.28c-3.581.613-5.859,4.079-7.659,7.219a81.9,81.9,0,0,0-7.334,14.8,72.627,72.627,0,0,0-2.987,16.353c-.67,7.142-1.091,14.285-1.264,21.465,0,2.26.153,4.979,2.145,6.089a4.213,4.213,0,0,0,4.711-.823A10.55,10.55,0,0,0,144.571,251c1.915-5.208,2.662-10.761,4.749-15.874,1.321-3.274,3.14-6.319,4.615-9.574a48.427,48.427,0,0,0,.957-36.171Z" transform="translate(94.813 91.787)" fill="url(#l)"/><path d="M134.74,232.686a10.666,10.666,0,0,0,1.226,5.974,5.17,5.17,0,0,0,5.17,2.662,4.768,4.768,0,0,0,3.581-4.845,9.421,9.421,0,0,1,0-2.642c.115-.46.364-.881.479-1.34.383-1.551-.728-3.083-.919-4.672s.345-2.911-.287-4.174a5.362,5.362,0,0,0-6.8-1.321C135.046,224.011,134.816,230.235,134.74,232.686Z" transform="translate(94.4 121.303)" fill="#f3a984"/><path d="M134.439,251.624l-1.149-.345,4.576-15.529A17.732,17.732,0,0,1,139.781,231a9.575,9.575,0,0,1,3.581-3.313,3.485,3.485,0,0,1,1.091-.383,2.681,2.681,0,0,1,1.743.44,8.081,8.081,0,0,1,3.16,4.9,41.226,41.226,0,0,1,1.742,14.17h-1.206a39.79,39.79,0,0,0-1.685-13.749,7.066,7.066,0,0,0-2.623-4.194,1.417,1.417,0,0,0-.977-.287,1.915,1.915,0,0,0-.689.249,8.33,8.33,0,0,0-3.121,2.872,18.056,18.056,0,0,0-1.762,4.462Z" transform="translate(93.112 126.472)" fill="#fe3b1f"/><path d="M159.935,235.91c1.187,6.166,2.451,12.312,3.83,18.44a101.259,101.259,0,0,0,7.659,24.491,3.83,3.83,0,0,1,.613,2.911,3.62,3.62,0,0,1-1.589,1.628c-6.4,4.308-12.925,8.693-20.355,10.8a73.338,73.338,0,0,1-19.953,1.915,1.474,1.474,0,0,1-.766-.115c-.479-.287-.5-.938-.479-1.494.326-7.544-1.915-14.974-1.915-22.519s1.915-15.089,4.079-22.423c.919-3.2,2.508-3.447,5.591-4.634l11.164-4.251C148.656,240.218,160.011,236.255,159.935,235.91Z" transform="translate(87.339 134.355)" fill="#fe3b1f"/><path d="M159.935,235.91c1.187,6.166,2.451,12.312,3.83,18.44a101.259,101.259,0,0,0,7.659,24.491,3.83,3.83,0,0,1,.613,2.911,3.62,3.62,0,0,1-1.589,1.628c-6.4,4.308-12.925,8.693-20.355,10.8a73.338,73.338,0,0,1-19.953,1.915,1.474,1.474,0,0,1-.766-.115c-.479-.287-.5-.938-.479-1.494.326-7.544-1.915-14.974-1.915-22.519s1.915-15.089,4.079-22.423c.919-3.2,2.508-3.447,5.591-4.634l11.164-4.251C148.656,240.218,160.011,236.255,159.935,235.91Z" transform="translate(87.339 134.355)" fill="url(#m)"/><path d="M148.777,303.524a3.083,3.083,0,0,0,.823,1.819,3.14,3.14,0,0,0,2.317.5,26,26,0,0,0,13.04-4.691c1.474-1.053,2.987-2.891,2.106-4.462a3.829,3.829,0,0,0-2.623-1.474,23.362,23.362,0,0,0-5.419-.555,2.72,2.72,0,0,1-1.36-.191c-.8-.44-.919-1.532-.919-2.451,0-9.134.172-18.287.747-27.4a24.278,24.278,0,0,0-.115-6.128,7.908,7.908,0,0,0-3.121-5.132c-2.068-1.34-6.51-1.168-7.755,1.4-.517,1.091,0,2.6.1,3.83.172,2.106.211,4.232.268,6.338.172,8.253-.153,16.506.268,24.74A94.829,94.829,0,0,0,148.777,303.524Z" transform="translate(104.988 149.558)" fill="#f3a984"/><path d="M157.321,275.376a1.57,1.57,0,0,0-.153,1.226,5.323,5.323,0,0,1-.574,3.447c-1.168,1.915-3.7,2.2-5.859,2.087-1.111,0-2.432-.1-3.064.823a2.853,2.853,0,0,0-.306,1.743,15.535,15.535,0,0,0,.211,2.3,1.627,1.627,0,0,0,.23.747,1.416,1.416,0,0,0,.747.479,9.191,9.191,0,0,0,6.319-.862l10.781-4.328c3.83-1.513,5.208-4.979.881-7.162C164.827,275.05,158.565,273.729,157.321,275.376Z" transform="translate(105.961 169.74)" fill="#fe3b1f"/><path d="M157.321,275.376a1.57,1.57,0,0,0-.153,1.226,5.323,5.323,0,0,1-.574,3.447c-1.168,1.915-3.7,2.2-5.859,2.087-1.111,0-2.432-.1-3.064.823a2.853,2.853,0,0,0-.306,1.743,15.535,15.535,0,0,0,.211,2.3,1.627,1.627,0,0,0,.23.747,1.416,1.416,0,0,0,.747.479,9.191,9.191,0,0,0,6.319-.862l10.781-4.328c3.83-1.513,5.208-4.979.881-7.162C164.827,275.05,158.565,273.729,157.321,275.376Z" transform="translate(105.961 169.74)" fill="url(#n)"/><path d="M159.728,307.675a3.179,3.179,0,0,0,.823,1.915,3.1,3.1,0,0,0,2.317.479,26,26,0,0,0,13.059-4.845c1.474-1.034,2.987-2.872,2.087-4.442a3.829,3.829,0,0,0-2.6-1.494,23.434,23.434,0,0,0-5.419-.536,2.72,2.72,0,0,1-1.36-.211c-.8-.421-.919-1.532-.938-2.451q0-13.691.766-27.382a23.571,23.571,0,0,0-.134-6.147,7.775,7.775,0,0,0-3.1-5.113c-2.068-1.359-6.51-1.168-7.755,1.4-.517,1.072,0,2.585.1,3.83.153,2.106.211,4.213.268,6.319.172,8.253-.153,16.506.268,24.759a91.762,91.762,0,0,0,1.628,13.921Z" transform="translate(115.024 153.296)" fill="#f3a984"/><path d="M168.551,279.223a1.57,1.57,0,0,0-.153,1.226,5.323,5.323,0,0,1-.574,3.447c-1.168,1.915-3.7,2.2-5.859,2.087-1.111,0-2.432-.1-3.064.823a2.853,2.853,0,0,0-.306,1.742,8.5,8.5,0,0,0,.211,2.3,1.628,1.628,0,0,0,.23.747,1.417,1.417,0,0,0,.747.479,9.191,9.191,0,0,0,6.319-.862l10.781-4.193c3.83-1.513,5.208-4.979.881-7.162C176.057,278.993,169.8,277.672,168.551,279.223Z" transform="translate(116.235 173.323)" fill="#fe3b1f"/><path d="M168.551,279.223a1.57,1.57,0,0,0-.153,1.226,5.323,5.323,0,0,1-.574,3.447c-1.168,1.915-3.7,2.2-5.859,2.087-1.111,0-2.432-.1-3.064.823a2.853,2.853,0,0,0-.306,1.742,8.5,8.5,0,0,0,.211,2.3,1.628,1.628,0,0,0,.23.747,1.417,1.417,0,0,0,.747.479,9.191,9.191,0,0,0,6.319-.862l10.781-4.193c3.83-1.513,5.208-4.979.881-7.162C176.057,278.993,169.8,277.672,168.551,279.223Z" transform="translate(116.235 173.323)" fill="url(#o)"/><path d="M146.293,227.061a85.765,85.765,0,0,0-2.011,18.785l-.843,25.64c-.134,4.328-.23,8.847,1.685,12.715a18.651,18.651,0,0,0,9.421,8.2c8.847,3.944,18.919,3.619,28.589,3.236a10.321,10.321,0,0,0,5.5-1.264c2.24-1.532,2.891-4.5,3.064-7.181.5-8.387-2.164-16.583-3.83-24.893a104.644,104.644,0,0,1-2.049-21.446,9.862,9.862,0,0,0-1.072-5.745,8.981,8.981,0,0,0-3.121-2.47,94.23,94.23,0,0,0-19.148-8.1,23.841,23.841,0,0,0-10.953-1.264C149.433,223.749,146.868,224.917,146.293,227.061Z" transform="translate(102.34 122.638)" fill="#606161"/><path d="M146.293,227.061a85.765,85.765,0,0,0-2.011,18.785l-.843,25.64c-.134,4.328-.23,8.847,1.685,12.715a18.651,18.651,0,0,0,9.421,8.2c8.847,3.944,18.919,3.619,28.589,3.236a10.321,10.321,0,0,0,5.5-1.264c2.24-1.532,2.891-4.5,3.064-7.181.5-8.387-2.164-16.583-3.83-24.893a104.644,104.644,0,0,1-2.049-21.446,9.862,9.862,0,0,0-1.072-5.745,8.981,8.981,0,0,0-3.121-2.47,94.23,94.23,0,0,0-19.148-8.1,23.841,23.841,0,0,0-10.953-1.264C149.433,223.749,146.868,224.917,146.293,227.061Z" transform="translate(102.34 122.638)" fill="url(#p)"/><path d="M172.262,193.593c-4.768-2.508-9.708-5.074-15.089-5.4s-11.336,2.2-13.232,7.257a18.65,18.65,0,0,0-.823,6.683l-.249,44.252a31.307,31.307,0,0,0,1.206,10.761c2.03,5.745,7.181,9.727,12.6,12.446,6.759,3.37,14.668,5.17,21.944,3.14a10.532,10.532,0,0,0,5.591-3.274c1.915-2.432,1.915-5.745,1.915-8.847l-.326-45.956a35.9,35.9,0,0,0-.44-6.415C183.942,201.061,178.37,196.753,172.262,193.593Z" transform="translate(101.82 90.676)" fill="#fe3b1f"/><path d="M172.262,193.593c-4.768-2.508-9.708-5.074-15.089-5.4s-11.336,2.2-13.232,7.257a18.65,18.65,0,0,0-.823,6.683l-.249,44.252a31.307,31.307,0,0,0,1.206,10.761c2.03,5.745,7.181,9.727,12.6,12.446,6.759,3.37,14.668,5.17,21.944,3.14a10.532,10.532,0,0,0,5.591-3.274c1.915-2.432,1.915-5.745,1.915-8.847l-.326-45.956a35.9,35.9,0,0,0-.44-6.415C183.942,201.061,178.37,196.753,172.262,193.593Z" transform="translate(101.82 90.676)" fill="url(#q)"/><path d="M169.265,190.972a9.229,9.229,0,0,1-3.274,6.472,7.775,7.775,0,0,0-1.915,1.915c-.938,1.685-.115,3.83-.479,5.745a2.317,2.317,0,0,1-2.643,1.915,7.066,7.066,0,0,1-5.745-3.542,16.411,16.411,0,0,1-2.03-6.8,52.023,52.023,0,0,1-.249-10.359,15.452,15.452,0,0,1,1.494-6.166,8.291,8.291,0,0,1,8.483-4.366,6.97,6.97,0,0,1,5.438,5.553c.23,1.36,0,2.777.1,4.136a43.924,43.924,0,0,1,.823,5.5Z" transform="translate(110.944 79.28)" fill="#f3a984"/><path d="M146.094,200.367a68.457,68.457,0,0,0-1.589,11.164,33.4,33.4,0,0,0,4.385,17.349c1.781,3.1,4.5,6.147,8.081,6.453a8.981,8.981,0,0,0,8.31-5.515,22.385,22.385,0,0,0,1.417-10.436,43.487,43.487,0,0,1,.191-10.589c.747-3.581,2.585-6.817,3.581-10.34a44.425,44.425,0,0,0,.8-14.342,7.334,7.334,0,0,0-.651-3.217,6.051,6.051,0,0,0-2.508-2.24,17.234,17.234,0,0,0-15.778-.326c-4.021,2.03-4.442,4.6-3.964,8.444C148.889,190.927,146.936,196.078,146.094,200.367Z" transform="translate(103.363 80.072)" fill="#606161"/><path d="M146.094,200.367a68.457,68.457,0,0,0-1.589,11.164,33.4,33.4,0,0,0,4.385,17.349c1.781,3.1,4.5,6.147,8.081,6.453a8.981,8.981,0,0,0,8.31-5.515,22.385,22.385,0,0,0,1.417-10.436,43.487,43.487,0,0,1,.191-10.589c.747-3.581,2.585-6.817,3.581-10.34a44.425,44.425,0,0,0,.8-14.342,7.334,7.334,0,0,0-.651-3.217,6.051,6.051,0,0,0-2.508-2.24,17.234,17.234,0,0,0-15.778-.326c-4.021,2.03-4.442,4.6-3.964,8.444C148.889,190.927,146.936,196.078,146.094,200.367Z" transform="translate(103.363 80.072)" fill="url(#r)"/><ellipse cx="28.091" cy="16.238" rx="28.091" ry="16.238" transform="translate(229.714 254.924) rotate(-20.54)" fill="#fe3b1f"/><ellipse cx="28.091" cy="16.238" rx="28.091" ry="16.238" transform="translate(229.489 254.729) rotate(-20.54)" fill="url(#s)"/><path d="M182.783,226.183a275.239,275.239,0,0,1,5.227,39.561c.134,2.2,0,4.845-1.819,6.051a4.308,4.308,0,0,1-4.653-.364,11.834,11.834,0,0,1-3.16-3.83c-7.315-11.987-12.178-25.3-16.334-38.718a60.011,60.011,0,0,1-3.485-18.459c.1-4.653,1.264-10.359,4.442-13.959,4.059-4.615,7.181-.574,9.9,3.294C178.34,207.59,180.887,217.049,182.783,226.183Z" transform="translate(116.23 96.383)" fill="#fe3b1f"/><path d="M182.783,226.183a275.239,275.239,0,0,1,5.227,39.561c.134,2.2,0,4.845-1.819,6.051a4.308,4.308,0,0,1-4.653-.364,11.834,11.834,0,0,1-3.16-3.83c-7.315-11.987-12.178-25.3-16.334-38.718a60.011,60.011,0,0,1-3.485-18.459c.1-4.653,1.264-10.359,4.442-13.959,4.059-4.615,7.181-.574,9.9,3.294C178.34,207.59,180.887,217.049,182.783,226.183Z" transform="translate(116.23 96.383)" fill="url(#t)"/><path d="M159.216,168.322a12.1,12.1,0,0,0-12.849,4.538c-2.777,4.1-2.47,9.574-1.034,14.323a3.677,3.677,0,0,0,1.149,1.915,3.83,3.83,0,0,0,1.915.536c3.83.4,7.813.747,11.3-.823s9.23-7.162,9.21-11.03C168.79,173.588,162.8,169.28,159.216,168.322Z" transform="translate(103.146 72.154)" fill="#fe3b1f"/><path d="M168.773,175.991c0,3.83-5.917,9.574-9.23,11.049a22.021,22.021,0,0,1-11.3.8,3.83,3.83,0,0,1-1.915-.5,4.308,4.308,0,0,1-1.149-2.011,30.4,30.4,0,0,1-.862-3.964,1.282,1.282,0,0,0,.421,0c3.83.364,7.832.728,11.317-.862,3.179-1.4,8.789-6.721,9.153-10.57A8.751,8.751,0,0,1,168.773,175.991Z" transform="translate(103.202 74.002)" fill="url(#u)"/><path d="M165.365,171.85c-.364,3.83-5.974,9.172-9.153,10.57-3.485,1.589-7.525,1.225-11.317.862a1.282,1.282,0,0,1-.421,0,14.821,14.821,0,0,1,1.915-10.34,12.14,12.14,0,0,1,12.829-4.576A16.334,16.334,0,0,1,165.365,171.85Z" transform="translate(103.125 72.207)" fill="url(#v)"/><path d="M167.961,253.42A29.2,29.2,0,0,1,170.91,236.7a7.181,7.181,0,0,1,1.57-2.183,5.285,5.285,0,0,1,6.319,0,9.785,9.785,0,0,1,3.447,5.285,19.263,19.263,0,0,1,.594,9.1l-1.187-.211a18.1,18.1,0,0,0-.555-8.521,8.6,8.6,0,0,0-2.987-4.672,4.117,4.117,0,0,0-4.845,0,6.243,6.243,0,0,0-1.283,1.915,27.9,27.9,0,0,0-2.834,16.008Z" transform="translate(124.637 132.125)" fill="#fe3b1f"/><path d="M192.837,239.59l10.838,53.616a4.174,4.174,0,0,1,0,1.685c-.268,1.111-1.379,1.762-2.394,2.279a274.257,274.257,0,0,1-33.931,13.4,1.015,1.015,0,0,1-.709,0,.957.957,0,0,1-.383-.555,14.573,14.573,0,0,1-.536-4.557q-.287-17.578-1.915-35.08c-.268-2.949-.574-5.879-.919-8.808-.249-2.221-1.513-5.974-.977-8.1.823-3.255,10.13-5.189,13.136-6.415C176.6,246.445,192.837,240.375,192.837,239.59Z" transform="translate(119.177 137.721)" fill="#fe3b1f"/><path d="M192.837,239.59l10.838,53.616a4.174,4.174,0,0,1,0,1.685c-.268,1.111-1.379,1.762-2.394,2.279a274.257,274.257,0,0,1-33.931,13.4,1.015,1.015,0,0,1-.709,0,.957.957,0,0,1-.383-.555,14.573,14.573,0,0,1-.536-4.557q-.287-17.578-1.915-35.08c-.268-2.949-.574-5.879-.919-8.808-.249-2.221-1.513-5.974-.977-8.1.823-3.255,10.13-5.189,13.136-6.415C176.6,246.445,192.837,240.375,192.837,239.59Z" transform="translate(119.177 137.721)" fill="url(#w)"/><path d="M196.267,238.36l10.838,53.52a3.964,3.964,0,0,1,0,1.7c-.268,1.111-1.379,1.762-2.394,2.279a274.157,274.157,0,0,1-33.931,13.4.918.918,0,0,1-.708,0,.842.842,0,0,1-.383-.555,14.572,14.572,0,0,1-.536-4.557c-.192-11.7-.843-23.419-1.915-35.08-.268-2.93-.574-5.879-.919-8.808-.249-2.2-1.513-5.955-.977-8.081.823-3.255,10.13-5.208,13.136-6.434C180.125,245.2,196.4,239.049,196.267,238.36Z" transform="translate(122.315 136.596)" fill="#fe3b1f"/><path d="M174.284,255.379a29.163,29.163,0,0,1-4.672-16.315,7.39,7.39,0,0,1,.44-2.662,5.208,5.208,0,0,1,5.745-2.757,9.766,9.766,0,0,1,5.419,3.236,19.455,19.455,0,0,1,4.519,7.908l-1.149.326a18.325,18.325,0,0,0-4.251-7.41,8.674,8.674,0,0,0-4.73-2.891,4.117,4.117,0,0,0-4.385,2.068,6.243,6.243,0,0,0-.345,2.2,27.785,27.785,0,0,0,4.481,15.644Z" transform="translate(126.337 132.177)" fill="#fe3b1f"/><path d="M197.207,239.37l10.8,53.52a3.963,3.963,0,0,1,0,1.7c-.249,1.111-1.379,1.762-2.394,2.279a274.161,274.161,0,0,1-33.931,13.4.8.8,0,0,1-.689,0,.843.843,0,0,1-.383-.555,14.512,14.512,0,0,1-.536-4.557c-.191-11.7-.843-23.419-1.915-35.08-.287-2.93-.594-5.879-.919-8.808-.268-2.2-1.513-5.955-.977-8.081.823-3.255,10.11-5.208,13.136-6.434C181.084,246.206,197.361,240.059,197.207,239.37Z" transform="translate(123.156 137.52)" fill="url(#x)"/><path d="M200.642,238.13l10.819,53.616a3.83,3.83,0,0,1,.1,1.685c-.249,1.111-1.36,1.762-2.394,2.279a274.265,274.265,0,0,1-33.931,13.4.977.977,0,0,1-.689,0,.958.958,0,0,1-.383-.555,14.572,14.572,0,0,1-.536-4.557q-.287-17.578-1.915-35.08c-.268-2.949-.594-5.879-.919-8.808-.249-2.221-1.513-5.974-.977-8.1.823-3.255,10.11-5.189,13.136-6.415C184.5,244.985,200.776,238.819,200.642,238.13Z" transform="translate(126.404 136.386)" fill="#fe3b1f"/><path d="M200.642,238.13l10.819,53.616a3.83,3.83,0,0,1,.1,1.685c-.249,1.111-1.36,1.762-2.394,2.279a274.265,274.265,0,0,1-33.931,13.4.977.977,0,0,1-.689,0,.958.958,0,0,1-.383-.555,14.572,14.572,0,0,1-.536-4.557q-.287-17.578-1.915-35.08c-.268-2.949-.594-5.879-.919-8.808-.249-2.221-1.513-5.974-.977-8.1.823-3.255,10.11-5.189,13.136-6.415C184.5,244.985,200.776,238.819,200.642,238.13Z" transform="translate(126.404 136.386)" fill="url(#y)"/><path d="M172.729,231.871a5.572,5.572,0,0,0-3.351,1.3,3.466,3.466,0,0,0-.613,2.642c.115.919.4,1.8.5,2.719.191,1.8-.345,3.83.479,5.362a5.093,5.093,0,0,0,4.4,2.355,6.664,6.664,0,0,0,6.817-4.308,7.948,7.948,0,0,0,.134-2.777c-.249-2.2-1.072-6.644-2.662-8.31S174.548,231.488,172.729,231.871Z" transform="translate(125.518 129.183)" fill="#f3a984"/><path d="M109.907,208.65v-9.1A26.061,26.061,0,0,1,96.12,195.59l2.164-6.032a24.031,24.031,0,0,0,12.983,3.83c6.4,0,10.723-3.677,10.723-8.827s-3.523-8-10.187-10.7c-9.191-3.619-14.859-7.755-14.859-15.587,0-7.487,5.3-13.155,13.6-14.515v-9.1h5.591v8.732a24.089,24.089,0,0,1,11.7,3.16l-2.24,5.993a21.715,21.715,0,0,0-11.355-3.064c-6.932,0-9.574,4.136-9.574,7.659,0,4.691,3.332,7.027,11.183,10.283,9.268,3.83,13.959,8.464,13.959,16.468,0,7.123-4.959,13.787-14.246,15.319v9.364Z" transform="translate(59.107 41.727)" fill="#fff"/><path d="M71.587,248.58v-9.1A26.061,26.061,0,0,1,57.8,235.52l2.3-6.032a24.031,24.031,0,0,0,12.983,3.83c6.4,0,10.7-3.677,10.7-8.827s-3.5-8-10.168-10.7c-9.191-3.619-14.859-7.755-14.859-15.587,0-7.487,5.3-13.155,13.6-14.515v-9.1h5.591v8.732a24.088,24.088,0,0,1,11.7,3.159l-2.24,5.955a21.715,21.715,0,0,0-11.355-3.064c-6.932,0-9.574,4.136-9.574,7.659,0,4.691,3.332,7.027,11.183,10.283,9.268,3.83,13.959,8.464,13.959,16.468,0,7.123-4.959,13.787-14.246,15.319v9.364Z" transform="translate(24.05 78.256)" fill="#fff"/><path d="M458.827,248.58v-9.1a26.061,26.061,0,0,1-13.787-3.964l2.164-6.032a23.993,23.993,0,0,0,12.983,3.83c6.4,0,10.7-3.676,10.7-8.827s-3.5-8-10.168-10.7c-9.191-3.619-14.859-7.755-14.859-15.587,0-7.487,5.3-13.155,13.6-14.515v-9.1h5.591v8.732a24.089,24.089,0,0,1,11.7,3.159l-2.24,5.955a21.715,21.715,0,0,0-11.355-3.064c-6.951,0-9.574,4.136-9.574,7.659,0,4.691,3.332,7.027,11.183,10.283,9.268,3.83,13.959,8.464,13.959,16.468,0,7.123-4.959,13.787-14.246,15.319v9.364Z" transform="translate(378.315 78.256)" fill="#fff"/><path d="M406.827,183.83v-9.1a26.023,26.023,0,0,1-13.787-3.964l2.164-6.032a23.974,23.974,0,0,0,12.963,3.83c6.4,0,10.723-3.7,10.723-8.827s-3.5-8-10.187-10.723c-9.172-3.6-14.859-7.659-14.859-15.568,0-7.487,5.323-13.155,13.615-14.515v-9.1h5.572v8.732a24.242,24.242,0,0,1,11.719,3.159l-2.26,5.955a21.657,21.657,0,0,0-11.355-3.064c-6.932,0-9.574,4.136-9.574,7.659,0,4.691,3.332,7.027,11.164,10.264,9.287,3.83,13.959,8.483,13.959,16.487,0,7.123-4.94,13.787-14.227,15.319v9.364Z" transform="translate(330.743 19.02)" fill="#fff"/></g></g></svg>