<svg xmlns="http://www.w3.org/2000/svg" xmlns:xlink="http://www.w3.org/1999/xlink" width="1080" height="1080" viewBox="0 0 1080 1080"><defs><linearGradient id="a" x2="1" y2="1" gradientUnits="objectBoundingBox"><stop offset="0" stop-color="#fe3b1f" stop-opacity="0.749"/><stop offset="1" stop-color="#f73b1f"/></linearGradient><clipPath id="c"><rect width="1080" height="1080"/></clipPath></defs><g id="b" clip-path="url(#c)"><path d="M7005,17402a548.708,548.708,0,0,1-55.212-2.789,540.14,540.14,0,0,1-53.618-8.184c-17.4-3.559-34.813-8.035-51.751-13.307-16.751-5.207-33.444-11.316-49.613-18.156-16.018-6.775-31.9-14.426-47.2-22.74-15.185-8.248-30.165-17.348-44.523-27.049-14.277-9.645-28.263-20.1-41.571-31.086-13.284-10.963-26.186-22.689-38.348-34.854-12.183-12.184-23.909-25.086-34.853-38.348-10.983-13.307-21.442-27.295-31.086-41.572-9.691-14.344-18.792-29.322-27.048-44.521-8.315-15.307-15.965-31.189-22.739-47.205-6.84-16.17-12.949-32.863-18.159-49.613-5.269-16.939-9.746-34.35-13.307-51.75a541.526,541.526,0,0,1-8.183-53.617,548.069,548.069,0,0,1,0-110.424,541.413,541.413,0,0,1,8.183-53.617c3.561-17.4,8.038-34.811,13.307-51.75,5.21-16.752,11.32-33.443,18.159-49.611,6.773-16.016,14.424-31.9,22.739-47.205,8.257-15.2,17.357-30.178,27.048-44.521,9.645-14.275,20.1-28.264,31.086-41.572,10.956-13.275,22.682-26.176,34.853-38.346s25.074-23.9,38.348-34.854c13.308-10.982,27.294-21.441,41.571-31.086,14.358-9.7,29.338-18.8,44.523-27.051,15.311-8.315,31.193-15.966,47.2-22.738,16.168-6.838,32.86-12.947,49.613-18.158,16.938-5.268,34.35-9.745,51.751-13.307a541.335,541.335,0,0,1,53.618-8.183,548.069,548.069,0,0,1,110.424,0,541.272,541.272,0,0,1,53.617,8.183c17.4,3.562,34.813,8.039,51.75,13.307,16.751,5.211,33.444,11.32,49.613,18.158,16.011,6.772,31.893,14.423,47.2,22.738,15.186,8.25,30.166,17.352,44.523,27.051,14.277,9.645,28.263,20.1,41.571,31.086,13.272,10.951,26.174,22.678,38.347,34.854s23.9,25.068,34.853,38.346c10.983,13.309,21.442,27.3,31.086,41.572,9.688,14.34,18.789,29.318,27.048,44.521,8.316,15.311,15.967,31.193,22.739,47.205,6.839,16.168,12.948,32.859,18.158,49.611,5.269,16.939,9.746,34.352,13.307,51.75a541.413,541.413,0,0,1,8.183,53.617,548.069,548.069,0,0,1,0,110.424,541.526,541.526,0,0,1-8.183,53.617c-3.561,17.4-8.038,34.811-13.307,51.75-5.209,16.75-11.319,33.443-18.158,49.613-6.772,16.014-14.423,31.895-22.739,47.205-8.259,15.2-17.36,30.182-27.048,44.521-9.645,14.277-20.1,28.266-31.086,41.572-10.946,13.266-22.672,26.168-34.853,38.348-12.163,12.164-25.064,23.891-38.347,34.854-13.308,10.982-27.294,21.441-41.571,31.086-14.357,9.7-29.337,18.8-44.523,27.049-15.3,8.314-31.186,15.965-47.2,22.74-16.17,6.84-32.862,12.949-49.613,18.156-16.937,5.271-34.348,9.748-51.75,13.307a540.1,540.1,0,0,1-53.617,8.184A548.7,548.7,0,0,1,7005,17402Zm-200-740a49.81,49.81,0,0,0-19.48,3.908,49.5,49.5,0,0,0-26.4,26.568,50.463,50.463,0,0,0-3.871,19.52l-.253,300a50.045,50.045,0,0,0,3.911,19.52A49.831,49.831,0,0,0,6805,17062h400a49.835,49.835,0,0,0,50-50v-300a50.045,50.045,0,0,0-3.911-19.52,49.814,49.814,0,0,0-26.571-26.568A50.081,50.081,0,0,0,7205,16662Zm400,350v0H6805v-150h400v150Zm0-250H6805v-50h400v50h0Z" transform="translate(-6465 -16322)" fill="url(#a)"/></g></svg>