<svg xmlns="http://www.w3.org/2000/svg" xmlns:xlink="http://www.w3.org/1999/xlink" width="1080" height="1080" viewBox="0 0 1080 1080"><defs><linearGradient id="a" x1="0.495" y1="-1.689" x2="0.513" y2="6.48" gradientUnits="objectBoundingBox"><stop offset="0" stop-color="#010101" stop-opacity="0"/><stop offset="0.95" stop-color="#010101"/></linearGradient><linearGradient id="b" x1="0.495" y1="-1.689" x2="0.513" y2="6.479" xlink:href="#a"/><linearGradient id="c" x1="0.675" y1="1.499" x2="0.2" y2="-0.72" xlink:href="#a"/><linearGradient id="d" x1="0.282" y1="0.135" x2="0.578" y2="4.561" xlink:href="#a"/><linearGradient id="e" x1="0.599" y1="0.886" x2="0.382" y2="-0.152" xlink:href="#a"/><linearGradient id="f" x1="0.593" y1="0.561" x2="-0.454" y2="-0.133" xlink:href="#a"/><linearGradient id="g" x1="0.645" y1="0.132" x2="0.245" y2="1.147" xlink:href="#a"/><linearGradient id="h" x1="0.508" y1="0.202" x2="0.435" y2="1.977" xlink:href="#a"/><linearGradient id="i" x1="0.496" y1="-0.532" x2="0.517" y2="5.355" xlink:href="#a"/><linearGradient id="j" x1="0.492" y1="-0.021" x2="0.706" y2="2.901" xlink:href="#a"/><linearGradient id="k" x1="0.127" y1="-0.09" x2="1.521" y2="1.951" xlink:href="#a"/><linearGradient id="l" x1="0.162" y1="-0.308" x2="1.259" y2="2.114" xlink:href="#a"/><linearGradient id="m" x1="0.415" y1="-0.476" x2="0.741" y2="3.301" xlink:href="#a"/><linearGradient id="n" x1="0.796" y1="-0.185" x2="-0.365" y2="1.887" xlink:href="#a"/><linearGradient id="o" x1="-0.761" y1="0.307" x2="1.605" y2="0.67" xlink:href="#a"/><linearGradient id="p" x1="0.5" y1="-1.069" x2="0.5" y2="1.444" xlink:href="#a"/><linearGradient id="q" y1="0.5" x2="1" y2="0.5" gradientUnits="objectBoundingBox"><stop offset="0" stop-color="#fff" stop-opacity="0"/><stop offset="0.13" stop-color="#fff" stop-opacity="0.231"/><stop offset="0.23" stop-color="#fff" stop-opacity="0.412"/><stop offset="0.35" stop-color="#fff" stop-opacity="0.588"/><stop offset="0.48" stop-color="#fff" stop-opacity="0.741"/><stop offset="0.6" stop-color="#fff" stop-opacity="0.851"/><stop offset="0.72" stop-color="#fff" stop-opacity="0.929"/><stop offset="0.84" stop-color="#fff" stop-opacity="0.98"/><stop offset="0.95" stop-color="#fff"/></linearGradient><clipPath id="s"><rect width="1080" height="1080"/></clipPath></defs><g id="r" clip-path="url(#s)"><path d="M10454,16081a548.923,548.923,0,0,1-55.212-2.788,541.457,541.457,0,0,1-53.617-8.183c-17.4-3.562-34.812-8.038-51.75-13.307-16.755-5.211-33.447-11.321-49.613-18.159-16.023-6.777-31.905-14.428-47.2-22.739-15.191-8.252-30.171-17.353-44.522-27.048-14.279-9.647-28.266-20.106-41.572-31.087-13.271-10.953-26.174-22.68-38.348-34.853s-23.9-25.077-34.853-38.348c-10.979-13.306-21.438-27.292-31.087-41.571-9.7-14.354-18.8-29.334-27.048-44.523-8.312-15.3-15.962-31.182-22.739-47.2-6.838-16.165-12.947-32.857-18.159-49.613-5.269-16.937-9.745-34.349-13.307-51.75a541.413,541.413,0,0,1-8.183-53.617,548.06,548.06,0,0,1,0-110.423,541.35,541.35,0,0,1,8.183-53.616c3.562-17.4,8.038-34.813,13.307-51.75,5.211-16.754,11.32-33.445,18.159-49.612,6.776-16.021,14.427-31.9,22.739-47.205,8.252-15.19,17.353-30.17,27.048-44.522,9.648-14.279,20.107-28.266,31.087-41.571,10.949-13.268,22.676-26.169,34.853-38.347s25.07-23.895,38.348-34.853c13.306-10.979,27.292-21.439,41.572-31.087,14.353-9.7,29.332-18.8,44.522-27.048,15.309-8.316,31.19-15.967,47.2-22.739,16.165-6.838,32.857-12.947,49.613-18.159,16.938-5.269,34.349-9.745,51.75-13.307a541.413,541.413,0,0,1,53.617-8.183A548.923,548.923,0,0,1,10454,15001a539.659,539.659,0,0,1,166.275,26.084c12.981,4.2,25.971,8.954,38.605,14.14,12.537,5.145,25.041,10.841,37.166,16.931a542.3,542.3,0,0,1,230.107,220.6c6.583,11.827,12.788,24.041,18.443,36.3,5.7,12.348,10.987,25.069,15.724,37.812a475.081,475.081,0,0,0-24.164-54.156,390.843,390.843,0,0,0-30.61-49.276c-23.729-32.324-50.785-57.484-80.418-74.781a316.942,316.942,0,0,0-65.187-29.218c-23.889-7.474-47.491-11.264-70.15-11.264-6.328,0-12.679.3-18.875.89a217.981,217.981,0,0,0-34.189,6.157,301.352,301.352,0,0,0-32.889,10.72c-21.588,8.33-42.989,18.88-63.686,29.081l-.02.01c-12,5.916-24.405,12.033-36.83,17.706-13.879,6.336-26.189,11.372-37.636,15.4a376.386,376.386,0,0,1-38.131,11.081c-12.126,2.878-24.9,5.375-39.035,7.635-26.264,4.2-53.337,6.9-79.519,9.519-17.819,1.781-36.246,3.622-54.223,5.916-19.439,2.48-36.845,5.4-53.208,8.924-9.075,1.954-17.907,4.122-26.252,6.443-8.858,2.464-17.471,5.187-25.6,8.091-8.561,3.061-16.847,6.418-24.629,9.98a260.809,260.809,0,0,0-23.346,12.115,224.735,224.735,0,0,0-21.747,14.492,201.221,201.221,0,0,0-19.833,17.114,208.3,208.3,0,0,0-17.348,19.479,250.942,250.942,0,0,0-14.908,21.22,379.255,379.255,0,0,0-24.326,46.063c-6.363,14.092-12.047,28.1-16.769,39.938-5.812,14.513-11.894,29.983-16.762,45.553-5.374,17.186-8.662,32.594-10.052,47.105a112.476,112.476,0,0,0,2.256,34.853c.908,4.146,2.083,8.407,3.81,13.815,3.592,11.121,8.337,21.963,12.926,32.448l0,.008c5.913,13.514,12.027,27.487,15.861,42.4.5,1.867.89,3.566,1.2,5.194a127.484,127.484,0,0,1,2.438,16.644c1.23,16.027,2.756,30.1,4.662,43.021a371.2,371.2,0,0,0,8.655,42.565c1.919,7.132,4.074,14.092,6.406,20.687,2.452,6.934,5.179,13.685,8.1,20.064a213.717,213.717,0,0,0,10.033,19.271,196.234,196.234,0,0,0,12.2,18.311,189.861,189.861,0,0,0,18.654,21.366,211.368,211.368,0,0,0,21.336,18.377,255.533,255.533,0,0,0,48.321,28.356,288.827,288.827,0,0,0,108.022,25.539c3.61.137,7.38.206,11.2.206,10.063,0,20.31-.477,31.324-1.456,9.813-.873,20.01-2.129,31.176-3.84,20.775-3.183,41.807-7.493,62.146-11.661,28.812-5.9,58.6-12.008,88.186-15.035a568.568,568.568,0,0,1,57.882-2.66c23.434,0,47.291,1.04,70.363,2.046l.118,0,.056,0c23.073,1.009,46.933,2.052,70.491,2.052,8.622,0,16.609-.135,24.419-.412,41.266-1.466,78.588-7.857,110.93-19a269.8,269.8,0,0,0,25.973-10.452,235.972,235.972,0,0,0,24.536-13.219,212.018,212.018,0,0,0,22.732-16.224,198.181,198.181,0,0,0,20.562-19.473,208,208,0,0,0,14.938-18.433c4.485-6.221,8.816-12.924,12.873-19.925a315.61,315.61,0,0,0,20.612-43.327c11.9-30.335,20.413-62.886,28.107-93.626,4-15.972,7.862-31.637,11.189-47.675a449.621,449.621,0,0,0,7.6-48.329c.407-4.35.736-8.767.98-13.129.448-8.365.651-16.856.6-25.237.088,4.013.132,8.078.132,12.085a548.618,548.618,0,0,1-2.788,55.212,541.457,541.457,0,0,1-8.183,53.617c-3.559,17.392-8.035,34.8-13.307,51.75-5.21,16.754-11.319,33.446-18.158,49.613-6.776,16.022-14.428,31.9-22.739,47.2-8.252,15.19-17.352,30.17-27.048,44.523-9.646,14.277-20.105,28.264-31.086,41.571-10.958,13.276-22.684,26.179-34.853,38.348s-25.076,23.9-38.348,34.853c-13.3,10.979-27.29,21.438-41.57,31.087-14.354,9.7-29.333,18.8-44.523,27.048-15.3,8.312-31.181,15.962-47.2,22.739-16.165,6.838-32.857,12.947-49.612,18.159-16.938,5.269-34.351,9.745-51.751,13.307a541.35,541.35,0,0,1-53.616,8.183A548.909,548.909,0,0,1,10454,16081Z" transform="translate(-9914 -15001)" fill="#fe3b1f"/><g transform="translate(45.509 133.17)"><ellipse cx="138.089" cy="26.405" rx="138.089" ry="26.405" transform="translate(176.691 557.461)" opacity="0.26" fill="url(#a)"/><ellipse cx="171.594" cy="33.801" rx="171.594" ry="33.801" transform="translate(544.472 542.668)" opacity="0.26" fill="url(#b)"/><path d="M191.277,294.239a215.175,215.175,0,0,1-24.371-2.311,23.393,23.393,0,0,0-6.213-.407,26.272,26.272,0,0,0-7.4,2.533,75.812,75.812,0,0,1-44.9,4.845c-2.885-.573-6.009-1.516-7.544-4.013a10.8,10.8,0,0,1-1.239-4.364,71.875,71.875,0,0,1-.314-14.515,19.379,19.379,0,0,1,1.849-7.859,15.347,15.347,0,0,1,6.416-5.806c9.671-5.177,21.338-3.7,32.3-3.365,12.944.462,26.349-.647,38.831,2.9,8.876,2.5,17.6,8.006,22.355,16.105C206.754,287.49,202.483,294.682,191.277,294.239Z" transform="translate(78.515 185.949)" fill="#fdb386"/><path d="M191.277,294.239a215.175,215.175,0,0,1-24.371-2.311,23.393,23.393,0,0,0-6.213-.407,26.272,26.272,0,0,0-7.4,2.533,75.812,75.812,0,0,1-44.9,4.845c-2.885-.573-6.009-1.516-7.544-4.013a10.8,10.8,0,0,1-1.239-4.364,71.875,71.875,0,0,1-.314-14.515,19.379,19.379,0,0,1,1.849-7.859,15.347,15.347,0,0,1,6.416-5.806c9.671-5.177,21.338-3.7,32.3-3.365,12.944.462,26.349-.647,38.831,2.9,8.876,2.5,17.6,8.006,22.355,16.105C206.754,287.49,202.483,294.682,191.277,294.239Z" transform="translate(78.515 185.949)" fill="url(#c)"/><path d="M302.97,280.75l65.087,46.1,214.826,1.627-60.224-42.843Z" transform="translate(257.238 238.379)" fill="#fe3b1f"/><path d="M316.17,281.71l50.091,35.484,165.27,1.257-46.338-32.969Z" transform="translate(268.445 239.194)" fill="#fff"/><path d="M290.31,250.008s52.884-26.035,70.783-67.528l56.97,17.9s-61.019,81.359-84.632,83.8Z" transform="translate(240.886 121.38)" fill="#fe3b1f"/><path d="M319.79,270.5c3.254-2.034,51.256-17.9,71.208-55.731L439.407,240.4s-47.6,64.292-90.327,66.326Z" transform="translate(265.916 148.797)" fill="#fe3b1f"/><path d="M461.271,261.97l35.8,40.7-131.8,15.181L348.44,288Z" transform="translate(295.845 222.434)" fill="#fe3b1f"/><path d="M365,299.764l85.427-16.494s3.976,3.7,12.185,3.7l15.107,17.511s-4.493,6.028-1.942,9.726l-94.617,13.369s-7.267-4.438-13.572-4.271L356.49,307.16S366.531,306.069,365,299.764Z" transform="translate(297.078 206.958)" fill="url(#d)"/><path d="M355.826,260.213l-3.495-13.665c-2.2-7.877-8.247-1.017-15.606,2.533l-207.1,99.85a13.128,13.128,0,0,0-7.082,14.682l2.663,11.816a13.036,13.036,0,0,0,4.771,7.489L164.5,409.581a13.11,13.11,0,0,0,16.142-.111l170.688-135.5A13.092,13.092,0,0,0,355.826,260.213Z" transform="translate(98.171 172.694)" fill="#fe3b1f"/><path d="M355.826,260.213l-3.495-13.665c-2.2-7.877-8.247-1.017-15.606,2.533l-207.1,99.85a13.128,13.128,0,0,0-7.082,14.682l2.663,11.816a13.036,13.036,0,0,0,4.771,7.489L164.5,409.581a13.11,13.11,0,0,0,16.142-.111l170.688-135.5A13.092,13.092,0,0,0,355.826,260.213Z" transform="translate(98.171 172.694)" fill="url(#e)"/><path d="M126.009,358.03,279.057,232.515a6.823,6.823,0,0,1,6.416-1.2l61.3,19.859a6.8,6.8,0,0,1,2.089,11.834L175.323,398.432a6.8,6.8,0,0,1-8.191.129l-40.865-29.77a6.823,6.823,0,0,1-.259-10.762Z" transform="translate(99.258 162.56)" fill="#fe3b1f"/><path d="M126.009,358.03,279.057,232.515a6.823,6.823,0,0,1,6.416-1.2l61.3,19.859a6.8,6.8,0,0,1,2.089,11.834L175.323,398.432a6.8,6.8,0,0,1-8.191.129l-40.865-29.77a6.823,6.823,0,0,1-.259-10.762Z" transform="translate(99.258 162.56)" fill="url(#f)"/><path d="M330.014,241.1l-4.216,3.291-150.4,117.176-45.08-29.77-2.774-1.849,134.5-110.815Z" transform="translate(108.284 186.059)" fill="#fff"/><path d="M324.524,242.317,174.12,359.493l-45.08-29.77L260.361,221.57Z" transform="translate(109.558 188.131)" fill="#fe3b1f" opacity="0.13"/><path d="M197.924,295.448,149.09,270.115l14.978-13.165L212.9,282.264Z" transform="translate(126.582 218.171)" fill="#fe3b1f"/><path d="M197.924,295.448,149.09,270.115l14.978-13.165L212.9,282.264Z" transform="translate(126.582 218.171)" fill="url(#g)"/><path d="M236.255,234.4l-5.325-2.274a107.629,107.629,0,0,1,5.547-10.558l5.011,2.9a97.04,97.04,0,0,0-5.233,9.93Z" transform="translate(190.468 154.57)" fill="#fe3b1f"/><path d="M244.779,235.256l-4.549-3.569a134.29,134.29,0,0,1,14.146-15.458l3.938,4.234a127.477,127.477,0,0,0-13.535,14.793Zm29.326-26.978-3.069-4.9a93.215,93.215,0,0,1,19.027-9.245l1.849,5.547a88.924,88.924,0,0,0-17.807,8.6Zm56.989-12.444a89.215,89.215,0,0,0-19.822-.388l-.555-5.751a96.393,96.393,0,0,1,21.116.388Z" transform="translate(198.364 127.164)" fill="#fe3b1f"/><path d="M310.564,201.716c-3.532-1.479-7.1-2.811-10.614-3.939l1.849-5.547c3.7,1.183,7.4,2.57,11.094,4.123Z" transform="translate(249.071 129.659)" fill="#fe3b1f"/><path d="M304.6,299.185,302.97,280.75l65.087,46.1,214.826,1.627-4.216,11.538-216.841,1.22Z" transform="translate(257.238 238.379)" fill="#fe3b1f"/><path d="M304.6,299.185,302.97,280.75l65.087,46.1,214.826,1.627-4.216,11.538-216.841,1.22Z" transform="translate(257.238 238.379)" fill="url(#h)"/><path d="M593.747,282.535c-.24,7.285-.647,14.552-1.109,21.838-.222,4.16-.518,8.265-.869,12.426-.222,3.069-.8,6.657-3.458,8.1a5.075,5.075,0,0,1-1.165.462,14.551,14.551,0,0,1-3.92.166l-18.1-1.2a90.184,90.184,0,0,0-17.732,0c-11.686,1.5-22.429,7.507-34.1,8.839a86.773,86.773,0,0,1-15.5-.111l-47.466-3.125a34.54,34.54,0,0,1-11.89-2.256,11.631,11.631,0,0,1-7.4-8.949c-.3-2.848.8-5.677.573-8.561a.777.777,0,0,0,0-.351c-.814-7.692-10.928-13.923-7.859-21.042.684-1.664,2.126-3.106,2.182-4.9a7.044,7.044,0,0,0-1.553-3.994c-2.663-4.271-5.2-9.245-4.1-14.219.814-3.532,3.347-6.712,3.236-10.281-.166-4.1-3.7-7.4-4.16-11.446s2.718-8.376,6.638-10.244a31.434,31.434,0,0,1,12.722-2.126l22.781-.7c3.7-.111,7.914-.333,10.688-2.94,3.347-3.125,3.291-8.506,1.849-12.777s-4.16-8.1-5.547-12.426a22.632,22.632,0,0,1,4.049-20.636,7.4,7.4,0,0,1,2.94-2.367c4.1-1.5,7.526,3.347,9.245,7.4a133.76,133.76,0,0,0,27.052,40,106.377,106.377,0,0,0,52.014,27.736c5.714,1.257,14.034.462,20.636,1.387a17.419,17.419,0,0,1,5.547,1.553C597.556,261.492,593.969,275.878,593.747,282.535Z" transform="translate(350.421 118.79)" fill="#fdb386"/><path d="M614.926,270.4c0,1.516-.185,3.014-.3,4.512-.167,2.885-.407,5.788-.684,8.617a20.614,20.614,0,0,1-4.567,7.507c-5.215,5.085-12.944,5.547-19.952,5.547q-33.635.444-67.269-1.849a34.1,34.1,0,0,1-3.421-.3,18.177,18.177,0,0,1-8.6-2.885c-5.381-3.883-6.823-11.39-7.8-18.158-1.979-13.055-3.939-26.59-.814-39.422a14.512,14.512,0,0,1,1.331-3.865,8.043,8.043,0,0,1,2.422-3.125,11.6,11.6,0,0,1,6.527-1.553h4.345c16.4-.185,32.821,1.442,49.241,1.091a132.6,132.6,0,0,0,27.4-3.125c4.382-.98,15.421-7.23,21.486-7.692A423.906,423.906,0,0,1,614.926,270.4Z" transform="translate(418.83 149.586)" fill="#fdb386"/><path d="M677.675,268.3c-.166,2.885-.407,5.788-.684,8.617a20.613,20.613,0,0,1-4.567,7.507c-5.214,5.085-12.944,5.547-19.952,5.547q-33.635.444-67.269-1.849a34.1,34.1,0,0,1-3.421-.3,14.552,14.552,0,0,1-3.92.166l-18.1-1.2a90.18,90.18,0,0,0-17.733,0c-11.686,1.5-22.429,7.507-34.1,8.839a86.781,86.781,0,0,1-15.5-.111l-47.466-3.125a34.539,34.539,0,0,1-11.89-2.256,11.63,11.63,0,0,1-7.4-8.95c-.3-2.848.8-5.677.573-8.561a.776.776,0,0,0,0-.351c9.819,8.561,24.2,8.617,37.333,8.21,22.781-.684,45.728-1.387,67.806-6.99a19.711,19.711,0,0,1,3.236-20.34c2.071-2.367,4.734-4.16,6.99-6.342,4.789-4.752,7.507-11.094,11.908-16.309a19.009,19.009,0,0,1,12.37-6.99,10.8,10.8,0,0,1,5.362.98c6.952,3.347,7.637,12.833,7.23,20.525s-.166,16.993,6.527,20.858a10.96,10.96,0,0,0,2.256.98,28.53,28.53,0,0,0,7.748.98c20.987.536,41.974.462,63-.111a124.3,124.3,0,0,1,19.656.573Z" transform="translate(355.785 156.195)" fill="url(#i)"/><path d="M157.076,243.887a100.054,100.054,0,0,1,37.518,1.849,86.111,86.111,0,0,1,25.647,12.13,146.927,146.927,0,0,1,49.925,56.878c1.683,3.439,2.9,8.321-.259,10.484-2.718,1.849-6.324,0-9.023-1.849-11.779-8.062-51.2-48.076-79.418-35.04-.777,6.065,7.063,18.065,8.007,24.038.832,5.418-3.513,10.54-8.635,12.481s-10.78,1.442-16.216.869c-15.606-1.627-31.157.111-46.856-.259-36.649-.832-59.448-27.218-57.321-40.976C62.384,273.121,91.174,252.041,157.076,243.887Z" transform="translate(45.595 172.693)" fill="#fdb386"/><path d="M336.41,279.228l100.9-33.1,32.544,40.68L355.141,314.49Z" transform="translate(285.631 208.984)" fill="#fe3b1f"/><path d="M137.761,301.059a50.832,50.832,0,0,1-8.432,19.36,29.917,29.917,0,0,0-14.293.573c-6.99,1.849-13.868,5.547-20.34,8.968a493.544,493.544,0,0,1-48.205,22.707c-3.051,1.276-6.231,2.5-9.467,3.532-4.1-16.179-10.873-30.991-17.344-45.839a305.433,305.433,0,0,1-11.39-29.012c-1.442-4.512-2.774-9.079-3.809-13.813,26.46-10.873,69.377-2.829,91.844-7.526a174.011,174.011,0,0,0,18.713-5.362,141.061,141.061,0,0,1,20.007-5.547C138.279,266.093,141.293,284.639,137.761,301.059Z" transform="translate(-1.806 177.945)" fill="#fe3b1f"/><path d="M130.756,277.2a50.832,50.832,0,0,1-8.432,19.36c-11.963-2.663-23.816,3.7-34.578,9.541a493.537,493.537,0,0,1-48.205,22.707c-3.051,1.276-6.231,2.5-9.467,3.532C25.969,316.16,19.2,301.349,12.73,286.5a81.173,81.173,0,0,0,31.934,4.4c15.606-.7,30.861-4.512,46.227-7.4C104.111,280.9,117.462,279.049,130.756,277.2Z" transform="translate(5.199 201.804)" fill="url(#j)"/><path d="M363.129,186.68l27.866,9.356s-3.7,8.746.814,12.814c0,0-31.933,46.985-58.782,58.375,0,0-3.865-4.271-16.068-3.051L297.82,249.734s7.137-3.458,5.547-8.95c0,0,38.442-19.526,49.019-45.561C352.349,195.223,363.129,196.85,363.129,186.68Z" transform="translate(247.262 124.946)" fill="url(#k)"/><path d="M392,221.08l23.52,11.335s-4.2,7.4-.684,11.409c0,0-33.394,38.017-58.375,45.117,0,0-2.959-4.2-13.868-4.456l-15.31-14.793s6.675-2.274,5.843-7.4c0,0,36.112-12.944,48.335-34.855C381.532,227.441,390.87,230.067,392,221.08Z" transform="translate(272.276 154.154)" fill="url(#l)"/><path d="M352.189,292l70.8-22.374a13.961,13.961,0,0,0,10.577,2.441L447.8,287.936s-3.254,6.509-.814,9.763L368.2,317.909s-6.509-3.7-11.816-2.848L345.68,300.14S354.019,298.05,352.189,292Z" transform="translate(287.899 195.377)" fill="url(#m)"/><path d="M87,301.059a50.832,50.832,0,0,1-8.432,19.36,29.917,29.917,0,0,0-14.293.573V254.647A141.061,141.061,0,0,1,84.277,249.1C87.513,266.093,90.527,284.639,87,301.059Z" transform="translate(48.961 177.945)" fill="url(#n)"/><rect width="28.883" height="76.182" rx="3.72" transform="translate(907.314 369.599) rotate(4.12)" fill="#fe3b1f"/><rect width="28.883" height="76.182" rx="3.72" transform="translate(907.314 369.599) rotate(4.12)" fill="url(#o)"/><circle cx="23.798" cy="23.798" r="23.798" transform="translate(893.966 385.275)" fill="#fe3b1f"/><circle cx="23.798" cy="23.798" r="23.798" transform="translate(893.966 385.275)" fill="url(#p)"/><circle cx="20.395" cy="20.395" r="20.395" transform="translate(897.202 388.825)" fill="#fe3b1f"/><circle cx="20.395" cy="20.395" r="20.395" transform="translate(897.202 388.825)" fill="url(#q)"/><path d="M481.148,200.7v-6.823a19.508,19.508,0,0,1-10.318-2.959l1.609-4.512a18.1,18.1,0,0,0,9.8,2.885c4.789,0,8.025-2.755,8.025-6.6s-2.644-6.01-7.618-8.025c-6.9-2.7-11.094-5.806-11.094-11.668s3.975-9.856,10.17-10.873v-6.8h4.2v6.546a17.936,17.936,0,0,1,8.765,2.348L493,158.67a16.291,16.291,0,0,0-8.506-2.293c-5.2,0-7.156,3.106-7.156,5.806,0,3.513,2.5,5.251,8.376,7.692,6.934,2.829,10.447,6.342,10.447,12.333,0,5.344-3.7,10.318-10.651,11.464V200.7Z" transform="translate(394.161 89.828)" fill="#fe3b1f"/><path d="M408.417,207.929v-3.7a10.5,10.5,0,0,1-5.547-1.59l.869-2.422a9.615,9.615,0,0,0,5.214,1.553c2.57,0,4.308-1.479,4.308-3.532s-1.424-3.236-4.1-4.308c-3.7-1.461-5.954-3.125-5.954-6.268a5.936,5.936,0,0,1,5.455-5.825v-3.7H410.9v3.513a9.744,9.744,0,0,1,4.715,1.276l-.906,2.385a8.617,8.617,0,0,0-4.567-1.239c-2.774,0-3.828,1.664-3.828,3.125,0,1.849,1.331,2.811,4.475,4.123,3.7,1.516,5.547,3.4,5.547,6.62a6.287,6.287,0,0,1-5.714,6.139v3.7Z" transform="translate(336.458 117.695)" fill="#fe3b1f"/><path d="M475.657,306.557v-3.7a10.576,10.576,0,0,1-5.547-1.59l.869-2.422a9.652,9.652,0,0,0,5.214,1.553c2.57,0,4.308-1.479,4.308-3.55s-1.424-3.217-4.086-4.308c-3.7-1.442-5.973-3.106-5.973-6.25a5.936,5.936,0,0,1,5.455-5.843v-3.7h2.256v3.513a9.745,9.745,0,0,1,4.7,1.257l-.906,2.385a8.819,8.819,0,0,0-4.549-1.22c-2.792,0-3.846,1.664-3.846,3.106,0,1.849,1.331,2.829,4.493,4.123,3.7,1.516,5.547,3.4,5.547,6.62a6.287,6.287,0,0,1-5.714,6.157v3.7Z" transform="translate(393.549 201.422)" fill="#fe3b1f"/></g></g></svg>