<svg xmlns="http://www.w3.org/2000/svg" xmlns:xlink="http://www.w3.org/1999/xlink" width="1080" height="1080" viewBox="0 0 1080 1080"><defs><linearGradient id="a" x2="1" y2="1" gradientUnits="objectBoundingBox"><stop offset="0" stop-color="#fe3b1f" stop-opacity="0.749"/><stop offset="1" stop-color="#f73b1f"/></linearGradient><clipPath id="c"><rect width="1080" height="1080"/></clipPath></defs><g id="b" clip-path="url(#c)"><path d="M8155,17402a548.705,548.705,0,0,1-55.212-2.789,540.14,540.14,0,0,1-53.618-8.184c-17.4-3.559-34.813-8.035-51.751-13.307-16.75-5.207-33.442-11.316-49.613-18.156-16.018-6.775-31.9-14.426-47.2-22.74-15.185-8.248-30.165-17.348-44.523-27.049-14.277-9.645-28.263-20.1-41.571-31.086-13.282-10.961-26.184-22.687-38.348-34.854-12.183-12.184-23.909-25.086-34.853-38.348-10.983-13.307-21.442-27.295-31.086-41.572-9.691-14.344-18.792-29.322-27.048-44.521-8.315-15.307-15.965-31.189-22.739-47.205-6.84-16.17-12.949-32.863-18.159-49.613-5.269-16.939-9.746-34.35-13.307-51.75a541.526,541.526,0,0,1-8.183-53.617,548.069,548.069,0,0,1,0-110.424,541.413,541.413,0,0,1,8.183-53.617c3.561-17.4,8.038-34.811,13.307-51.75,5.21-16.752,11.32-33.443,18.159-49.611,6.773-16.016,14.424-31.9,22.739-47.205,8.257-15.2,17.357-30.178,27.048-44.521,9.645-14.275,20.1-28.264,31.086-41.572,10.956-13.275,22.682-26.176,34.853-38.346s25.076-23.9,38.348-34.854c13.308-10.982,27.294-21.441,41.571-31.086,14.358-9.7,29.338-18.8,44.523-27.051,15.311-8.315,31.192-15.966,47.2-22.738,16.17-6.839,32.863-12.948,49.613-18.158,16.938-5.268,34.349-9.745,51.751-13.307a541.335,541.335,0,0,1,53.618-8.183,548.065,548.065,0,0,1,110.423,0,541.35,541.35,0,0,1,53.616,8.183c17.4,3.562,34.813,8.038,51.751,13.307,16.753,5.211,33.445,11.32,49.612,18.158,16.014,6.773,31.9,14.424,47.2,22.738,15.186,8.25,30.165,17.35,44.523,27.051,14.277,9.645,28.264,20.1,41.57,31.086,13.273,10.953,26.175,22.68,38.348,34.854s23.9,25.07,34.853,38.346c10.983,13.311,21.442,27.3,31.086,41.572,9.69,14.342,18.791,29.322,27.049,44.521,8.314,15.307,15.965,31.188,22.739,47.205,6.838,16.168,12.947,32.859,18.158,49.611,5.268,16.936,9.744,34.346,13.307,51.75a541.413,541.413,0,0,1,8.183,53.617,548.069,548.069,0,0,1,0,110.424,541.526,541.526,0,0,1-8.183,53.617c-3.562,17.4-8.039,34.814-13.307,51.75-5.21,16.75-11.319,33.443-18.158,49.613-6.774,16.018-14.425,31.9-22.739,47.205-8.258,15.2-17.358,30.18-27.049,44.521-9.644,14.277-20.1,28.264-31.086,41.572-10.943,13.262-22.67,26.164-34.853,38.348-12.162,12.164-25.064,23.891-38.348,34.854-13.307,10.982-27.293,21.441-41.57,31.086-14.358,9.7-29.339,18.8-44.523,27.049-15.3,8.313-31.184,15.963-47.2,22.74-16.168,6.84-32.86,12.949-49.612,18.156-16.938,5.271-34.351,9.748-51.751,13.307a540.155,540.155,0,0,1-53.616,8.184A548.681,548.681,0,0,1,8155,17402Zm11.9-516.525-35.712,35.717,107.379,107.139L8405,16861.666l-35.717-35.711L8238.57,16956.9l-71.667-71.428Zm-261.9,0h0v47.617h190.477v-47.617Zm0-95.238h0v47.617h285.715v-47.617Zm0-95.238h0v47.617h285.715V16695Z" transform="translate(-7615 -16322)" fill="url(#a)"/></g></svg>